<?xml version="1.0" encoding="utf-8"?>
<!-- Generator: Adobe Illustrator 16.0.0, SVG Export Plug-In . SVG Version: 6.00 Build 0)  -->
<!DOCTYPE svg PUBLIC "-//W3C//DTD SVG 1.1//EN" "http://www.w3.org/Graphics/SVG/1.1/DTD/svg11.dtd">
<svg version="1.1" id="Calque_1" xmlns="http://www.w3.org/2000/svg" xmlns:xlink="http://www.w3.org/1999/xlink" x="0px" y="0px"
	 width="170.079px" height="240.945px" viewBox="61.96 82.018 170.079 240.945"
	 enable-background="new 61.96 82.018 170.079 240.945" xml:space="preserve">
<g>
	<g>
		<path fill="#FFFFFF" d="M105.265,208.83c-0.193,3.131,0.936,3.955,3.97,3.934c17.598-0.125,35.196-0.123,52.793-0.002
			c3.021,0.021,4.049-0.82,4.014-3.943c-0.152-14.101,0.041-28.205-0.188-42.305c-0.033-2.057-1.287-4.344-2.578-6.073
			c-2.078-2.779-4.951-4.971-6.957-7.791c-2.994-4.224-1.443-8.812,3.303-10.37c1.818-0.598,3.836-0.585,6.264-0.92
			c0-6.63,0.064-13.34-0.115-20.044c-0.016-0.526-1.682-1.443-2.586-1.446c-18.417-0.085-36.829-0.047-55.242-0.087
			c-1.946-0.004-2.669,0.715-2.648,2.67c0.073,6.758-0.028,13.519,0.096,20.277c0.017,0.933,0.699,2.24,1.474,2.709
			c6.257,3.786,6.887,6.781,2.386,12.412c3.865,5.199,3.875,6.228,0.128,11.664c2.482,3.984,3.748,7.957-0.208,11.744
			c4.565,5.63,3.908,8.738-2.202,12.31c-0.848,0.495-1.524,1.976-1.571,3.031"/>
	</g>
	<g>
		<path fill="#FFFFFF" d="M105.215,208.875c-0.192,3.131,0.936,3.955,3.97,3.934c17.602-0.127,35.197-0.125,52.792-0.002
			c3.023,0.02,4.049-0.82,4.016-3.943c-0.148-14.102,0.041-28.206-0.184-42.305c-0.033-2.057-1.287-4.343-2.58-6.073
			c-2.078-2.779-4.951-4.971-6.955-7.791c-2.996-4.224-1.445-8.811,3.301-10.37c1.818-0.598,3.834-0.585,6.268-0.921
			c0-6.629,0.061-13.34-0.115-20.044c-0.016-0.525-1.686-1.442-2.588-1.446c-18.417-0.085-36.831-0.047-55.243-0.087
			c-1.947-0.005-2.669,0.714-2.648,2.67c0.075,6.758-0.029,13.519,0.097,20.277c0.016,0.932,0.698,2.24,1.473,2.709
			c6.257,3.786,6.886,6.781,2.388,12.412c3.865,5.199,3.876,6.227,0.125,11.665c2.482,3.982,3.748,7.956-0.208,11.742
			c4.564,5.63,3.907,8.739-2.202,12.31c-0.85,0.495-1.526,1.976-1.57,3.031L105.215,208.875z M135.749,215.303
			c-9.086,0-18.174-0.057-27.258,0.076c-1.063,0.016-2.846,0.908-3.046,1.703c-1.59,6.439,2.632,11.662,9.314,11.684
			c13.863,0.045,27.726,0.039,41.589,0c5.775-0.014,9.268-3.566,9.617-9.273c0.188-3.053-0.596-4.361-4.012-4.271
			C153.226,215.457,144.484,215.301,135.749,215.303z M168.558,192.113c6.547,0.691,10.213-1.679,11.645-7.276
			c1.672-6.534,3.4-13.061,4.75-19.664c0.336-1.65-0.115-4.098-1.188-5.286c-3.807-4.208-7.803-8.332-12.215-11.875
			c-2.404-1.931-4.545-3.896-8.775-3.678c-1.475,0.076-3.959,1.211-4.791,2.612c-0.65,1.098,0.088,3.633,1.037,4.922
			c1.908,2.599,4.674,4.581,6.533,7.208c1.441,2.037,2.699,4.62,2.881,7.044c0.416,5.673,0.129,11.395,0.125,17.097
			C168.558,186.207,168.558,189.194,168.558,192.113z M196.253,198.872c0.916-1.133,2.607-2.349,3.025-3.905
			c2.457-9.086,4.6-18.253,6.889-27.384c0.773-3.093-0.426-5.002-3.396-5.785c-3.146-0.828-6.326-1.535-9.504-2.231
			c-2.436-0.533-4.164,0.39-4.771,2.845c-2.377,9.594-4.797,19.179-6.898,28.832c-0.277,1.267,0.859,3.819,1.92,4.218
			C187.296,196.878,191.327,197.623,196.253,198.872z M135.618,117.239c8.976,0,17.952,0.019,26.93-0.01
			c3.35-0.012,3.867-0.773,2.955-4.019c-1.094-3.883-3.779-6.307-7.777-6.334c-14.802-0.103-29.607-0.102-44.407-0.008
			c-3.84,0.024-6.811,2.707-7.754,6.397c-0.802,3.108-0.164,3.957,3.135,3.966C117.667,117.255,126.644,117.239,135.618,117.239z
			 M103.854,147.769c-2.99,0.011-5.469,1.956-5.462,4.283c0.012,2.332,2.496,4.365,5.405,4.421c2.874,0.056,5.831-2.285,5.729-4.532
			C109.42,149.761,106.703,147.76,103.854,147.769z M103.774,167.975c3.157,0.044,5.822-1.965,5.756-4.327
			c-0.064-2.143-2.797-4.173-5.644-4.194c-2.982-0.021-5.484,1.917-5.486,4.245C98.401,166.204,100.573,167.933,103.774,167.975z
			 M103.962,191.366c2.821-0.023,5.556-2.086,5.58-4.214c0.027-2.208-2.96-4.432-5.842-4.343c-2.94,0.09-5.386,2.131-5.303,4.427
			C98.479,189.54,100.975,191.39,103.962,191.366z M103.728,179.638c3.141,0.071,6.082-1.982,5.756-4.289
			c-0.405-2.872-2.498-3.954-5.233-4.044c-3.532-0.116-5.798,1.428-5.865,4.024C98.326,177.708,100.632,179.567,103.728,179.638z"/>
		<path fill="none" d="M135.126,228.885c-6.949,0-13.803-0.012-20.372-0.031c-3.311-0.012-6.111-1.271-7.89-3.549
			c-1.735-2.223-2.271-5.15-1.508-8.242c0.209-0.838,2.016-1.756,3.13-1.771c5.359-0.078,10.701-0.088,14.756-0.088
			c2.084,0,4.168,0.002,6.253,0.006c2.085,0.004,4.168,0.006,6.253,0.006h0.171c2.452,0,4.944,0.014,7.356,0.025
			c2.408,0.012,4.902,0.023,7.353,0.023c4.426,0,8.021-0.041,11.322-0.131c1.656-0.043,2.729,0.244,3.357,0.914
			c0.629,0.666,0.85,1.699,0.744,3.451c-0.359,5.844-3.984,9.342-9.703,9.355C149.058,228.875,141.917,228.885,135.126,228.885z
			 M123.243,215.379c-4.055,0-9.396,0.01-14.753,0.088c-1.036,0.014-2.773,0.879-2.961,1.637c-0.75,3.039-0.227,5.914,1.475,8.094
			c1.744,2.234,4.5,3.469,7.753,3.48c6.568,0.021,13.421,0.031,20.371,0.031c6.791,0,13.929-0.01,21.218-0.029
			c5.615-0.016,9.178-3.451,9.529-9.191c0.104-1.701-0.102-2.693-0.695-3.322c-0.553-0.588-1.475-0.863-2.906-0.863
			c-0.104,0-0.209,0.002-0.316,0.004c-3.301,0.09-6.898,0.133-11.326,0.133c-2.453,0-4.945-0.014-7.357-0.025
			c-2.408-0.012-4.902-0.023-7.353-0.023h-0.172c-2.084,0-4.168-0.004-6.253-0.006C127.411,215.381,125.326,215.379,123.243,215.379
			z M109.08,212.898c-1.678,0-2.648-0.271-3.247-0.908c-0.583-0.619-0.8-1.582-0.705-3.12l0.134-12.229
			c0.044-1.051,0.718-2.583,1.614-3.106c3.167-1.852,4.73-3.497,5.064-5.336c0.336-1.854-0.552-3.965-2.886-6.843l-0.05-0.062
			l0.058-0.056c4.109-3.934,2.404-8.088,0.194-11.633l-0.03-0.048l0.032-0.047c3.735-5.414,3.724-6.387-0.124-11.563l-0.042-0.055
			l0.043-0.053c2.285-2.859,3.159-4.943,2.835-6.757c-0.33-1.844-1.933-3.548-5.201-5.525c-0.775-0.469-1.499-1.795-1.516-2.783
			c-0.071-3.792-0.069-7.649-0.067-11.379c0.001-2.917,0.004-5.933-0.03-8.898c-0.011-1.022,0.183-1.699,0.608-2.13
			c0.424-0.43,1.095-0.629,2.111-0.629c7.196,0.016,14.498,0.02,21.558,0.024c11.045,0.006,22.469,0.012,33.701,0.064
			c0.906,0.003,2.658,0.919,2.676,1.531c0.141,5.342,0.131,10.758,0.121,15.995c-0.002,1.354-0.004,2.704-0.004,4.051v0.077
			l-0.078,0.01c-0.801,0.111-1.549,0.183-2.273,0.252c-1.484,0.144-2.764,0.267-3.977,0.665c-2.27,0.745-3.863,2.203-4.49,4.106
			c-0.637,1.934-0.197,4.112,1.234,6.13c1.037,1.46,2.334,2.776,3.588,4.049c1.164,1.18,2.363,2.401,3.367,3.74
			c0.953,1.275,2.561,3.766,2.6,6.124c0.123,7.746,0.121,15.624,0.117,23.241c-0.002,6.249-0.002,12.709,0.066,19.063
			c0.014,1.587-0.244,2.563-0.842,3.167c-0.598,0.607-1.543,0.865-3.156,0.865h-0.105c-8.822-0.061-17.703-0.092-26.394-0.092
			c-8.82,0-17.702,0.031-26.397,0.096H109.08L109.08,212.898z M109.242,181.31c2.331,2.89,3.218,5.027,2.873,6.922
			c-0.345,1.894-1.935,3.577-5.148,5.456c-0.846,0.494-1.485,1.955-1.527,2.959l-0.135,12.229c-0.091,1.471,0.119,2.422,0.657,2.994
			c0.562,0.598,1.494,0.852,3.119,0.852h0.105c8.697-0.063,17.58-0.096,26.399-0.096c8.692,0,17.572,0.031,26.395,0.094h0.104
			c1.561,0,2.467-0.244,3.033-0.814c0.563-0.568,0.805-1.506,0.789-3.042c-0.066-6.355-0.064-12.816-0.064-19.065
			c0.004-7.617,0.006-15.493-0.117-23.238c-0.039-2.309-1.623-4.765-2.563-6.022c-0.994-1.33-2.193-2.546-3.352-3.722
			c-1.258-1.277-2.559-2.599-3.605-4.07c-1.465-2.065-1.91-4.298-1.258-6.286c0.645-1.956,2.279-3.455,4.602-4.217
			c1.23-0.404,2.521-0.528,4.014-0.672c0.701-0.067,1.422-0.138,2.193-0.242c0-1.322,0.004-2.648,0.006-3.976
			c0.012-5.236,0.02-10.65-0.121-15.991c-0.014-0.43-1.586-1.357-2.5-1.36c-11.234-0.053-22.657-0.058-33.703-0.064
			c-7.059-0.003-14.361-0.008-21.54-0.023c-0.981,0-1.612,0.183-2.002,0.576c-0.392,0.396-0.568,1.033-0.558,2.005
			c0.033,2.966,0.032,5.982,0.03,8.9c-0.002,3.729-0.004,7.585,0.067,11.376c0.016,0.937,0.699,2.193,1.432,2.637
			c3.313,2.005,4.944,3.746,5.282,5.644c0.331,1.857-0.542,3.969-2.829,6.845c3.825,5.153,3.835,6.272,0.119,11.665
			C111.658,173.14,113.35,177.325,109.242,181.31z M196.284,198.971l-0.051-0.014c-1.412-0.358-2.74-0.672-4.025-0.977
			c-3.229-0.763-6.02-1.424-8.721-2.437c-1.086-0.408-2.266-2.99-1.975-4.318c1.852-8.511,3.988-17.11,6.053-25.426l0.844-3.409
			c0.498-2,1.742-3.057,3.602-3.057c0.398,0,0.828,0.05,1.275,0.148c3.227,0.708,6.385,1.411,9.508,2.232
			c3.07,0.809,4.234,2.791,3.457,5.891c-0.721,2.885-1.443,5.821-2.139,8.661c-1.508,6.149-3.07,12.509-4.75,18.725
			c-0.297,1.109-1.24,2.055-2.064,2.889c-0.361,0.365-0.703,0.71-0.977,1.048L196.284,198.971z M192.009,159.508
			c-1.768,0-2.957,1.011-3.428,2.924l-0.846,3.409c-2.064,8.314-4.199,16.912-6.053,25.42c-0.271,1.24,0.861,3.74,1.867,4.117
			c2.691,1.01,5.473,1.668,8.697,2.431c1.27,0.3,2.582,0.611,3.975,0.963c0.273-0.331,0.602-0.665,0.951-1.017
			c0.813-0.819,1.736-1.747,2.02-2.812c1.682-6.214,3.244-12.573,4.75-18.722c0.695-2.84,1.416-5.776,2.143-8.662
			c0.746-2.988-0.375-4.899-3.338-5.679c-3.117-0.821-6.271-1.524-9.496-2.231C192.812,159.557,192.396,159.508,192.009,159.508z
			 M170.659,192.317L170.659,192.317c-0.664,0-1.373-0.04-2.111-0.117l-0.078-0.008v-2.27c0-2.215,0-4.459,0.002-6.705
			c0-1.648,0.025-3.326,0.047-4.949c0.061-3.988,0.121-8.113-0.172-12.142c-0.215-2.87-1.887-5.619-2.867-7.001
			c-0.949-1.342-2.16-2.538-3.33-3.694c-1.115-1.103-2.27-2.243-3.203-3.513c-1.006-1.368-1.695-3.911-1.039-5.019
			c0.826-1.397,3.291-2.574,4.857-2.654c0.215-0.011,0.43-0.016,0.637-0.016c3.611,0,5.635,1.638,7.775,3.373l0.424,0.341
			c4.775,3.833,9.043,8.365,12.227,11.885c1.158,1.282,1.531,3.782,1.211,5.363c-1.174,5.739-2.656,11.514-4.094,17.097
			c-0.219,0.857-0.441,1.714-0.658,2.57C178.985,189.947,175.927,192.317,170.659,192.317z M168.646,192.034
			c0.703,0.072,1.381,0.108,2.014,0.108c5.176,0,8.182-2.328,9.457-7.328c0.221-0.857,0.441-1.714,0.66-2.571
			c1.436-5.582,2.918-11.354,4.09-17.089c0.313-1.545-0.08-4.007-1.168-5.21c-3.178-3.515-7.438-8.04-12.205-11.865l-0.424-0.341
			c-2.115-1.714-4.115-3.333-7.666-3.333c-0.205,0-0.414,0.006-0.627,0.016c-1.494,0.076-3.93,1.24-4.719,2.568
			c-0.604,1.023,0.063,3.508,1.031,4.826c0.926,1.26,2.076,2.395,3.188,3.493c1.176,1.161,2.391,2.362,3.348,3.717
			c0.988,1.398,2.682,4.177,2.9,7.089c0.295,4.038,0.232,8.167,0.172,12.158c-0.021,1.622-0.047,3.299-0.047,4.946
			c-0.002,2.245-0.002,4.49-0.002,6.705L168.646,192.034L168.646,192.034z M103.903,191.453c-3.001,0-5.511-1.891-5.594-4.215
			c-0.034-0.938,0.355-1.89,1.094-2.679c1.029-1.1,2.634-1.787,4.295-1.837c1.698-0.052,3.542,0.694,4.755,1.923
			c0.77,0.779,1.188,1.67,1.177,2.508c-0.024,2.188-2.78,4.277-5.667,4.3H103.903z M103.869,182.893
			c-0.055,0-0.11,0.001-0.165,0.003c-1.616,0.05-3.175,0.715-4.174,1.782c-0.706,0.754-1.077,1.662-1.045,2.554
			c0.08,2.231,2.511,4.046,5.419,4.046h0.058c2.748-0.022,5.469-2.067,5.494-4.127c0.011-0.791-0.392-1.637-1.126-2.382
			C107.187,183.612,105.477,182.893,103.869,182.893z M103.889,179.727L103.889,179.727c-0.054,0-0.107,0-0.162-0.001
			c-1.765-0.041-3.353-0.667-4.355-1.719c-0.727-0.763-1.098-1.69-1.072-2.679c0.066-2.539,2.204-4.115,5.584-4.115
			c0.123,0,0.248,0.002,0.372,0.007c3.157,0.104,4.945,1.49,5.317,4.119c0.116,0.821-0.16,1.644-0.801,2.381
			C107.71,178.938,105.794,179.727,103.889,179.727z M103.883,171.386c-3.273,0-5.346,1.512-5.409,3.945
			c-0.024,0.942,0.33,1.826,1.024,2.554c0.971,1.019,2.514,1.625,4.233,1.665c1.91,0.046,3.851-0.729,4.909-1.947
			c0.604-0.697,0.867-1.472,0.759-2.241c-0.358-2.533-2.089-3.868-5.148-3.968C104.125,171.389,104.003,171.386,103.883,171.386z
			 M103.877,168.063l-0.103,0c-3.264-0.042-5.458-1.796-5.46-4.364c0.001-2.349,2.531-4.332,5.527-4.332h0.047
			c2.879,0.021,5.665,2.101,5.73,4.279c0.027,0.937-0.355,1.841-1.108,2.615C107.413,167.389,105.681,168.063,103.877,168.063z
			 M103.84,159.541c-2.9,0-5.35,1.904-5.352,4.157c0.001,2.465,2.126,4.148,5.288,4.189l0.102,0c1.759,0,3.443-0.653,4.507-1.749
			c0.717-0.739,1.083-1.6,1.059-2.489c-0.063-2.092-2.763-4.088-5.557-4.109L103.84,159.541L103.84,159.541z M103.899,156.562
			C103.899,156.562,103.899,156.562,103.899,156.562l-0.104-0.001c-2.963-0.058-5.479-2.123-5.49-4.508
			c-0.004-1.153,0.578-2.247,1.64-3.08c1.056-0.827,2.443-1.286,3.909-1.292c2.917,0,5.652,2.029,5.76,4.256
			c0.04,0.876-0.374,1.815-1.164,2.642C107.28,155.802,105.536,156.562,103.899,156.562z M103.872,147.856
			c-1.444,0.005-2.794,0.451-3.82,1.254c-1.019,0.799-1.577,1.843-1.573,2.941c0.011,2.293,2.447,4.278,5.319,4.334l0.101,0l0,0
			c1.591,0,3.286-0.739,4.422-1.928c0.757-0.792,1.152-1.686,1.116-2.513C109.335,149.806,106.683,147.856,103.872,147.856z
			 M150.851,117.333c-2.539,0-5.078-0.001-7.617-0.003c-5.113-0.003-10.223-0.002-15.331,0c-2.572,0.001-5.145,0.003-7.716,0.003
			c-4.477,0-8.128-0.004-11.491-0.014c-1.789-0.005-2.709-0.255-3.179-0.861c-0.462-0.599-0.474-1.53-0.04-3.214
			c1-3.902,4.077-6.438,7.838-6.462c7.292-0.046,14.625-0.069,21.796-0.069c7.565,0,15.174,0.026,22.612,0.077
			c3.914,0.026,6.707,2.298,7.863,6.398c0.508,1.804,0.533,2.733,0.092,3.316c-0.438,0.58-1.314,0.807-3.133,0.813
			C159.136,117.327,155.417,117.333,150.851,117.333z M135.618,117.151c2.539,0,5.077,0.002,7.616,0.003
			c2.539,0.001,5.078,0.002,7.617,0.002c4.566,0,8.285-0.005,11.697-0.016c1.73-0.006,2.6-0.221,2.992-0.744
			c0.402-0.533,0.367-1.42-0.121-3.164c-1.135-4.018-3.867-6.245-7.697-6.271c-7.438-0.051-15.046-0.077-22.611-0.077
			c-7.171,0-14.504,0.023-21.795,0.069c-3.68,0.023-6.691,2.508-7.67,6.331c-0.414,1.604-0.411,2.52,0.009,3.063
			c0.427,0.551,1.336,0.789,3.041,0.794c3.362,0.009,7.014,0.014,11.491,0.014c2.573,0,5.146-0.001,7.716-0.002
			C130.474,117.153,133.046,117.151,135.618,117.151z"/>
	</g>
</g>
<g>
	<path fill="#FFFFFF" d="M105.265,208.742c-0.193,3.133,0.936,3.955,3.97,3.934c17.598-0.125,35.196-0.123,52.793,0
		c3.021,0.02,4.049-0.822,4.014-3.944c-0.152-14.102,0.041-28.205-0.186-42.305c-0.033-2.057-1.287-4.344-2.58-6.073
		c-2.076-2.779-4.949-4.971-6.957-7.791c-2.994-4.224-1.443-8.811,3.303-10.37c1.818-0.597,3.836-0.585,6.264-0.92
		c0-6.629,0.064-13.34-0.117-20.044c-0.014-0.526-1.682-1.443-2.584-1.446c-18.417-0.085-36.829-0.047-55.244-0.087
		c-1.946-0.004-2.669,0.714-2.647,2.67c0.073,6.758-0.029,13.519,0.096,20.277c0.017,0.933,0.699,2.24,1.473,2.709
		c6.257,3.786,6.887,6.781,2.387,12.412c3.865,5.199,3.875,6.228,0.127,11.664c2.482,3.984,3.748,7.957-0.208,11.744
		c4.564,5.63,3.907,8.739-2.202,12.311c-0.849,0.495-1.524,1.976-1.571,3.031"/>
</g>
<path fill="#020202" stroke="#000000" stroke-width="0.25" stroke-miterlimit="10" d="M102.553,197
	c-0.022-1.154-0.656-2.83-1.537-3.35c-6.348-3.718-7.032-6.815-2.423-12.364c-3.912-5.649-3.924-6.762-0.134-11.564
	c-3.763-6.573-3.75-7.083,0.233-11.834c-4.696-5.708-4.041-8.797,2.354-12.595c0.876-0.519,1.491-2.19,1.509-3.339
	c0.125-8.396,0.055-16.793,0.072-25.191c0.017-8.295,4.433-12.877,12.62-12.915c13.529-0.061,27.059-0.068,40.585,0.002
	c8.225,0.044,12.684,4.626,12.725,12.896c0.035,7.815-0.088,15.631,0.104,23.44c0.031,1.316,1.025,2.917,2.059,3.846
	c5.352,4.795,10.859,9.412,16.438,14.2c6.557-3.578,12.906,0.008,19.184,2.31c2.543,0.932,3.193,3.927,2.533,6.675
	c-2.285,9.518-4.576,19.036-7.018,28.515c-1.072,4.172-3.303,5.7-7.467,5.053c-3.779-0.588-7.627-1.302-11.186-2.659
	c-2.064-0.786-3.605-2.943-5.73-4.784c-1.887,0.476-4.545,0.908-6.986,1.879c-0.9,0.358-1.809,1.973-1.836,3.038
	c-0.168,6.529-0.072,13.062-0.086,19.591c-0.02,9.139-4.352,13.459-13.527,13.465c-13.179,0.014-26.358,0.018-39.535-0.004
	c-8.448-0.014-12.848-4.461-12.873-12.971L102.553,197z M105.216,208.788c-0.193,3.13,0.936,3.954,3.971,3.935
	c17.601-0.129,35.196-0.125,52.793-0.004c3.023,0.02,4.049-0.82,4.014-3.943c-0.146-14.102,0.041-28.205-0.182-42.304
	c-0.033-2.057-1.287-4.343-2.582-6.073c-2.078-2.779-4.951-4.972-6.955-7.791c-2.998-4.224-1.447-8.811,3.301-10.37
	c1.818-0.598,3.836-0.585,6.268-0.921c0-6.629,0.059-13.34-0.117-20.044c-0.014-0.525-1.684-1.442-2.588-1.446
	c-18.417-0.085-36.829-0.047-55.242-0.088c-1.947-0.004-2.669,0.715-2.648,2.67c0.075,6.759-0.029,13.52,0.097,20.278
	c0.016,0.932,0.698,2.24,1.473,2.709c6.257,3.786,6.887,6.781,2.389,12.412c3.865,5.199,3.876,6.227,0.125,11.665
	c2.482,3.982,3.748,7.956-0.208,11.742c4.565,5.63,3.908,8.739-2.202,12.31c-0.85,0.495-1.526,1.976-1.57,3.031L105.216,208.788z
	 M135.749,215.215c-9.086,0-18.174-0.057-27.258,0.076c-1.063,0.016-2.846,0.908-3.046,1.705c-1.59,6.438,2.632,11.662,9.314,11.682
	c13.863,0.045,27.726,0.039,41.589,0.002c5.775-0.016,9.268-3.568,9.617-9.273c0.188-3.053-0.596-4.363-4.012-4.273
	C153.226,215.369,144.486,215.213,135.749,215.215z M168.558,192.025c6.547,0.691,10.213-1.679,11.645-7.276
	c1.672-6.534,3.4-13.061,4.75-19.664c0.336-1.65-0.115-4.098-1.188-5.286c-3.807-4.208-7.803-8.332-12.215-11.875
	c-2.404-1.931-4.545-3.895-8.775-3.678c-1.473,0.075-3.959,1.211-4.791,2.611c-0.65,1.098,0.088,3.633,1.037,4.922
	c1.908,2.599,4.674,4.581,6.533,7.208c1.443,2.037,2.699,4.62,2.881,7.045c0.416,5.673,0.129,11.395,0.125,17.097
	C168.558,186.119,168.558,189.106,168.558,192.025z M196.253,198.785c0.916-1.134,2.607-2.349,3.025-3.905
	c2.459-9.086,4.6-18.253,6.891-27.385c0.771-3.092-0.428-5.002-3.398-5.785c-3.145-0.828-6.324-1.535-9.502-2.231
	c-2.436-0.533-4.164,0.39-4.771,2.845c-2.377,9.593-4.799,19.178-6.898,28.832c-0.277,1.267,0.859,3.819,1.922,4.218
	C187.296,196.791,191.329,197.535,196.253,198.785z M135.618,117.151c8.976,0,17.952,0.02,26.93-0.01
	c3.35-0.011,3.869-0.772,2.957-4.019c-1.096-3.883-3.779-6.307-7.779-6.334c-14.802-0.102-29.607-0.102-44.406-0.008
	c-3.839,0.024-6.81,2.707-7.754,6.397c-0.802,3.108-0.164,3.957,3.135,3.966C117.667,117.168,126.644,117.151,135.618,117.151z
	 M103.855,147.681c-2.99,0.01-5.47,1.956-5.463,4.283c0.012,2.332,2.495,4.364,5.405,4.421c2.873,0.056,5.83-2.285,5.729-4.532
	C109.421,149.673,106.704,147.672,103.855,147.681z M103.774,167.887c3.157,0.044,5.822-1.965,5.756-4.327
	c-0.064-2.144-2.797-4.173-5.644-4.194c-2.982-0.021-5.484,1.917-5.486,4.245C98.403,166.116,100.573,167.845,103.774,167.887z
	 M103.963,191.278c2.821-0.023,5.555-2.086,5.58-4.214c0.027-2.208-2.96-4.432-5.842-4.343c-2.941,0.09-5.385,2.131-5.303,4.426
	C98.48,189.452,100.975,191.303,103.963,191.278z M103.729,179.55c3.141,0.072,6.082-1.982,5.757-4.289
	c-0.406-2.872-2.499-3.954-5.234-4.044c-3.532-0.116-5.798,1.427-5.865,4.024C98.326,177.62,100.632,179.48,103.729,179.55z"/>
<g>
	<path d="M139.884,221.602c0-1.186-0.959-2.145-2.145-2.145h-4.287c-1.182,0-2.144,0.957-2.144,2.145l0,0
		c0,1.182,0.959,2.143,2.144,2.143h4.287C138.925,223.744,139.884,222.785,139.884,221.602L139.884,221.602z"/>
</g>
<g>
	<path d="M144.521,111.481c0-0.482-0.395-0.875-0.875-0.875h-16.1c-0.483,0-0.875,0.393-0.875,0.875l0,0
		c0,0.483,0.392,0.875,0.875,0.875h16.1C144.13,112.356,144.521,111.963,144.521,111.481L144.521,111.481z"/>
</g>
<g>
	<path fill="#FFFFFF" d="M137.721,171.123l-0.978-2.149v0.001c-5.521,1.532-11.488-1.135-13.934-6.516
		c-2.706-5.954-0.073-12.974,5.88-15.68c5.954-2.705,12.974-0.073,15.677,5.88c2.447,5.38,0.535,11.631-4.248,14.784v-0.001
		l0.978,2.148l0.919-0.416l7.533,16.589l-5.207,2.367l-7.534-16.59C136.804,171.542,137.721,171.123,137.721,171.123z"/>
	<path d="M144.339,188.831c-0.082,0-0.166-0.015-0.246-0.045c-0.174-0.065-0.314-0.197-0.393-0.366l-7.535-16.589
		c-0.1-0.219-0.079-0.474,0.053-0.674c0.076-0.117,0.184-0.205,0.309-0.259c0.027-0.013,0.133-0.061,0.265-0.121l-0.447-0.981
		c-0.899,0.205-1.823,0.308-2.751,0.308h0c-4.909,0-9.394-2.888-11.423-7.355c-2.862-6.294-0.069-13.745,6.227-16.607
		c1.645-0.748,3.389-1.126,5.182-1.126c4.91,0,9.394,2.887,11.421,7.354c2.49,5.475,0.798,11.817-4.01,15.315l0.447,0.979
		l0.281-0.128c0.353-0.16,0.768-0.003,0.926,0.349l7.533,16.589c0.16,0.353,0.006,0.767-0.348,0.927l-5.206,2.367
		C144.537,188.81,144.439,188.831,144.339,188.831z M137.734,171.888l6.955,15.316l3.931-1.788l-6.955-15.315l-0.282,0.127
		c-0.352,0.16-0.766,0.003-0.926-0.348l-0.978-2.147c-0.143-0.313-0.036-0.685,0.252-0.874c4.602-3.033,6.285-8.882,3.998-13.909
		c-1.801-3.969-5.787-6.533-10.148-6.533c-1.592,0-3.14,0.337-4.602,1.001c-5.593,2.542-8.075,9.161-5.533,14.752
		c1.805,3.97,5.79,6.535,10.151,6.535c1,0,1.996-0.136,2.96-0.403c0.333-0.095,0.682,0.072,0.824,0.384l0.978,2.147
		c0.16,0.352,0.005,0.766-0.347,0.927C137.909,171.807,137.816,171.849,137.734,171.888z"/>
</g>
<g enable-background="new    ">
	<path d="M86.672,250.133h4.721c1.254,0,2.218,0.303,2.89,0.908c0.672,0.604,1.008,1.49,1.008,2.654c0,0.861-0.23,1.594-0.689,2.193
		c-0.459,0.598-1.109,1.006-1.949,1.217l2.587,4.771h-1.781l-2.503-4.637h-2.57v4.637h-1.713V250.133L86.672,250.133z
		 M91.107,255.795c0.75,0,1.348-0.176,1.792-0.529c0.442-0.354,0.661-0.875,0.661-1.57c0-0.762-0.216-1.305-0.647-1.629
		c-0.431-0.326-1.033-0.486-1.806-0.486h-2.722v4.215H91.107z"/>
	<path d="M97.399,261.012c-0.845-0.744-1.268-1.795-1.268-3.15c0-1.322,0.375-2.369,1.131-3.141
		c0.756-0.771,1.834-1.158,3.234-1.158c0.929,0,1.719,0.176,2.369,0.531c0.652,0.354,1.142,0.836,1.473,1.461
		c0.331,0.623,0.496,1.328,0.496,2.127v0.836h-7.089c0.056,0.762,0.378,1.33,0.966,1.707s1.385,0.564,2.394,0.564
		c0.516,0,1.036-0.045,1.563-0.141c0.527-0.098,0.991-0.221,1.393-0.379v1.357c-0.36,0.146-0.832,0.268-1.417,0.365
		c-0.59,0.096-1.167,0.143-1.739,0.143C99.412,262.129,98.245,261.756,97.399,261.012z M103.237,257.324
		c-0.022-0.762-0.271-1.355-0.745-1.773c-0.479-0.42-1.152-0.629-2.027-0.629c-0.851,0-1.511,0.219-1.982,0.656
		c-0.471,0.438-0.715,1.02-0.739,1.746H103.237L103.237,257.324z"/>
	<path d="M108.546,261.625c-0.694-0.336-1.235-0.826-1.619-1.471c-0.389-0.645-0.58-1.408-0.58-2.293s0.191-1.648,0.58-2.293
		c0.386-0.645,0.928-1.139,1.628-1.486c0.7-0.348,1.502-0.52,2.409-0.52c1.233,0,2.218,0.242,2.958,0.721v1.395
		c-0.727-0.504-1.656-0.756-2.787-0.756c-0.919,0-1.661,0.248-2.226,0.748c-0.569,0.498-0.851,1.229-0.851,2.191
		c0,0.965,0.279,1.691,0.839,2.184c0.561,0.494,1.297,0.74,2.203,0.74c1.131,0,2.105-0.27,2.923-0.807v1.381
		c-0.392,0.27-0.837,0.465-1.335,0.588c-0.499,0.127-1.084,0.189-1.756,0.189C110.035,262.129,109.24,261.961,108.546,261.625z"/>
	<path d="M115.872,249.461h1.697v5.461c0.772-0.908,1.803-1.359,3.091-1.359c1.075,0,1.878,0.285,2.405,0.859s0.79,1.338,0.79,2.301
		v5.158h-1.697v-4.992c0-1.309-0.627-1.967-1.881-1.967c-0.539,0-1.037,0.125-1.502,0.377c-0.465,0.252-0.865,0.637-1.202,1.152
		v5.43h-1.698L115.872,249.461L115.872,249.461z"/>
	<path d="M126.883,261.012c-0.846-0.744-1.269-1.795-1.269-3.15c0-1.322,0.378-2.369,1.134-3.141
		c0.756-0.771,1.834-1.158,3.234-1.158c0.93,0,1.719,0.176,2.37,0.531c0.652,0.354,1.14,0.836,1.472,1.461
		c0.331,0.623,0.496,1.328,0.496,2.127v0.836h-7.089c0.056,0.762,0.378,1.33,0.966,1.707s1.385,0.564,2.394,0.564
		c0.514,0,1.035-0.045,1.56-0.141c0.527-0.098,0.991-0.221,1.394-0.379v1.357c-0.359,0.146-0.832,0.268-1.417,0.365
		c-0.59,0.096-1.168,0.143-1.738,0.143C128.896,262.129,127.729,261.756,126.883,261.012z M132.72,257.324
		c-0.022-0.762-0.271-1.355-0.748-1.773c-0.476-0.42-1.15-0.629-2.024-0.629c-0.851,0-1.512,0.219-1.982,0.656
		c-0.47,0.438-0.715,1.02-0.739,1.746H132.72L132.72,257.324z"/>
	<path d="M136.165,253.813h1.647v1.445c0.336-0.492,0.807-0.857,1.417-1.092s1.319-0.357,2.126-0.357v1.328
		c-0.861,0-1.602,0.139-2.219,0.422c-0.615,0.281-1.041,0.721-1.275,1.326v4.99h-1.697L136.165,253.813L136.165,253.813z"/>
	<path d="M144.648,261.625c-0.693-0.336-1.235-0.826-1.62-1.471c-0.387-0.645-0.577-1.408-0.577-2.293s0.19-1.648,0.577-2.293
		c0.388-0.645,0.929-1.139,1.629-1.486s1.502-0.52,2.411-0.52c1.232,0,2.219,0.242,2.957,0.721v1.395
		c-0.729-0.504-1.656-0.756-2.785-0.756c-0.92,0-1.662,0.248-2.229,0.748c-0.567,0.498-0.849,1.229-0.849,2.191
		c0,0.965,0.279,1.691,0.84,2.184c0.561,0.494,1.294,0.74,2.201,0.74c1.129,0,2.105-0.27,2.924-0.807v1.381
		c-0.395,0.27-0.836,0.465-1.336,0.588c-0.498,0.127-1.082,0.189-1.756,0.189C146.136,262.129,145.343,261.961,144.648,261.625z"/>
	<path d="M151.974,249.461h1.695v5.461c0.773-0.908,1.805-1.359,3.092-1.359c1.076,0,1.879,0.285,2.404,0.859
		c0.527,0.574,0.791,1.338,0.791,2.301v5.158h-1.697v-4.992c0-1.309-0.627-1.967-1.881-1.967c-0.539,0-1.037,0.125-1.502,0.377
		c-0.463,0.252-0.865,0.637-1.203,1.152v5.43h-1.695L151.974,249.461L151.974,249.461z"/>
	<path d="M162.985,261.012c-0.846-0.744-1.268-1.795-1.268-3.15c0-1.322,0.377-2.369,1.133-3.141s1.834-1.158,3.232-1.158
		c0.93,0,1.721,0.176,2.371,0.531c0.65,0.354,1.139,0.836,1.473,1.461c0.332,0.623,0.496,1.328,0.496,2.127v0.836h-7.092
		c0.055,0.762,0.377,1.33,0.969,1.707c0.588,0.375,1.385,0.564,2.395,0.564c0.512,0,1.035-0.045,1.559-0.141
		c0.527-0.098,0.992-0.221,1.395-0.379v1.357c-0.359,0.146-0.832,0.268-1.42,0.365c-0.588,0.096-1.166,0.143-1.734,0.143
		C164.999,262.129,163.833,261.756,162.985,261.012z M168.823,257.324c-0.021-0.762-0.271-1.355-0.746-1.773
		c-0.477-0.42-1.15-0.629-2.025-0.629c-0.852,0-1.512,0.219-1.982,0.656c-0.469,0.438-0.715,1.02-0.742,1.746H168.823
		L168.823,257.324z"/>
	<path d="M180.204,261.6c-0.645-0.354-1.146-0.852-1.512-1.496c-0.363-0.643-0.543-1.391-0.543-2.242
		c0-0.84,0.184-1.584,0.543-2.234c0.365-0.648,0.867-1.152,1.512-1.52c0.645-0.365,1.369-0.545,2.176-0.545
		c1.455,0,2.557,0.445,3.309,1.326v-5.426h1.699v12.416h-1.648v-1.178c-0.449,0.494-0.938,0.855-1.469,1.084
		c-0.537,0.229-1.162,0.344-1.891,0.344C181.573,262.129,180.849,261.953,180.204,261.6z M184.591,260.238
		c0.52-0.365,0.889-0.857,1.098-1.473v-1.814c-0.189-0.615-0.551-1.109-1.082-1.479c-0.533-0.365-1.146-0.553-1.84-0.553
		c-0.549,0-1.045,0.125-1.486,0.369c-0.443,0.246-0.791,0.594-1.041,1.039c-0.25,0.449-0.379,0.957-0.379,1.531
		c0,0.572,0.129,1.08,0.379,1.531c0.25,0.449,0.598,0.793,1.041,1.035c0.441,0.24,0.938,0.363,1.486,0.363
		C183.462,260.785,184.069,260.604,184.591,260.238z"/>
	<path d="M190.505,261.012c-0.848-0.744-1.27-1.795-1.27-3.15c0-1.322,0.377-2.369,1.133-3.141c0.754-0.771,1.832-1.158,3.232-1.158
		c0.93,0,1.719,0.176,2.371,0.531c0.65,0.354,1.139,0.836,1.471,1.461c0.33,0.623,0.494,1.328,0.494,2.127v0.836h-7.088
		c0.055,0.762,0.377,1.33,0.965,1.707s1.387,0.564,2.395,0.564c0.514,0,1.035-0.045,1.563-0.141c0.525-0.098,0.99-0.221,1.395-0.379
		v1.357c-0.363,0.146-0.832,0.268-1.42,0.365c-0.588,0.096-1.168,0.143-1.738,0.143
		C192.517,262.129,191.349,261.756,190.505,261.012z M196.343,257.324c-0.021-0.762-0.273-1.355-0.746-1.773
		c-0.479-0.42-1.15-0.629-2.025-0.629c-0.854,0-1.514,0.219-1.982,0.656c-0.473,0.438-0.715,1.02-0.74,1.746H196.343
		L196.343,257.324z"/>
	<path d="M200.979,261.918c-0.629-0.139-1.121-0.326-1.477-0.563v-1.443c0.438,0.254,0.941,0.467,1.51,0.627
		s1.123,0.246,1.662,0.246c0.604,0,1.047-0.072,1.328-0.219c0.277-0.145,0.42-0.381,0.42-0.707c0-0.248-0.064-0.443-0.189-0.598
		c-0.133-0.15-0.348-0.287-0.656-0.412c-0.307-0.123-0.771-0.268-1.387-0.436c-0.66-0.189-1.184-0.385-1.57-0.58
		c-0.387-0.193-0.678-0.445-0.873-0.744c-0.197-0.307-0.295-0.693-0.295-1.18c0-0.771,0.305-1.355,0.916-1.756
		c0.611-0.393,1.432-0.598,2.465-0.598c0.539,0,1.064,0.051,1.578,0.152c0.512,0.102,0.93,0.242,1.24,0.422v1.414
		c-0.324-0.189-0.723-0.34-1.201-0.453c-0.477-0.111-0.961-0.166-1.451-0.166c-0.596,0-1.047,0.072-1.359,0.219
		s-0.471,0.4-0.471,0.773c0,0.234,0.066,0.422,0.201,0.568c0.133,0.146,0.352,0.271,0.648,0.379c0.295,0.104,0.77,0.242,1.416,0.41
		c1.018,0.279,1.73,0.611,2.125,0.992c0.396,0.381,0.598,0.906,0.598,1.578c0,0.695-0.283,1.25-0.857,1.664
		c-0.57,0.418-1.416,0.625-2.539,0.625C202.198,262.129,201.604,262.059,200.979,261.918z"/>
</g>
<g enable-background="new    ">
	<path d="M87.605,281.172c-0.846-0.744-1.269-1.793-1.269-3.15c0-1.32,0.378-2.369,1.134-3.141c0.754-0.771,1.832-1.156,3.232-1.156
		c0.929,0,1.719,0.178,2.371,0.529c0.649,0.354,1.14,0.842,1.47,1.463c0.331,0.625,0.496,1.33,0.496,2.125v0.84h-7.089
		c0.056,0.762,0.378,1.326,0.966,1.707c0.588,0.373,1.386,0.563,2.394,0.563c0.515,0,1.036-0.045,1.563-0.141
		c0.526-0.096,0.991-0.221,1.394-0.379v1.359c-0.361,0.146-0.832,0.268-1.419,0.363s-1.167,0.143-1.739,0.143
		C89.618,282.289,88.451,281.918,87.605,281.172z M93.443,277.484c-0.02-0.762-0.272-1.352-0.745-1.771
		c-0.479-0.422-1.152-0.631-2.027-0.631c-0.852,0-1.511,0.221-1.982,0.658c-0.471,0.438-0.714,1.018-0.74,1.746L93.443,277.484
		L93.443,277.484z M90.94,270.178h1.795l-1.394,2.889h-1.546L90.94,270.178z"/>
	<path d="M95.879,273.975h1.797l2.37,5.795l2.369-5.795h1.797l-3.428,8.064h-1.479L95.879,273.975z"/>
	<path d="M106.321,281.172c-0.846-0.744-1.269-1.793-1.269-3.15c0-1.32,0.377-2.369,1.133-3.141
		c0.756-0.771,1.833-1.156,3.234-1.156c0.93,0,1.719,0.178,2.369,0.529c0.653,0.354,1.14,0.842,1.473,1.463
		c0.33,0.625,0.496,1.33,0.496,2.125v0.84h-7.09c0.056,0.762,0.378,1.326,0.966,1.707c0.588,0.373,1.385,0.563,2.394,0.563
		c0.515,0,1.035-0.045,1.561-0.141c0.526-0.096,0.991-0.221,1.394-0.379v1.359c-0.359,0.146-0.832,0.268-1.417,0.363
		c-0.59,0.096-1.168,0.143-1.738,0.143C108.333,282.289,107.167,281.918,106.321,281.172z M112.158,277.484
		c-0.022-0.762-0.271-1.352-0.748-1.771c-0.476-0.422-1.15-0.631-2.024-0.631c-0.851,0-1.512,0.221-1.982,0.658
		c-0.47,0.438-0.715,1.018-0.739,1.746L112.158,277.484L112.158,277.484z M109.655,270.178h1.798l-1.395,2.889h-1.546
		L109.655,270.178z"/>
	<path d="M115.602,273.975h1.647v1.158c0.38-0.482,0.849-0.836,1.403-1.066c0.554-0.227,1.134-0.342,1.736-0.342
		c1.075,0,1.878,0.283,2.405,0.859c0.526,0.57,0.79,1.336,0.79,2.299v5.158h-1.697v-4.988c0-1.311-0.627-1.971-1.881-1.971
		c-0.538,0-1.038,0.131-1.502,0.377c-0.465,0.254-0.864,0.639-1.202,1.154v5.426h-1.698L115.602,273.975L115.602,273.975z"/>
	<path d="M126.615,281.172c-0.846-0.744-1.269-1.793-1.269-3.15c0-1.32,0.377-2.369,1.134-3.141
		c0.756-0.771,1.834-1.156,3.234-1.156c0.93,0,1.719,0.178,2.369,0.529c0.65,0.354,1.14,0.842,1.472,1.463
		c0.331,0.625,0.496,1.33,0.496,2.125v0.84h-7.091c0.056,0.762,0.378,1.326,0.968,1.707c0.588,0.373,1.385,0.563,2.394,0.563
		c0.513,0,1.035-0.045,1.56-0.141c0.526-0.096,0.991-0.221,1.394-0.379v1.359c-0.359,0.146-0.832,0.268-1.419,0.363
		c-0.588,0.096-1.167,0.143-1.736,0.143C128.628,282.289,127.461,281.918,126.615,281.172z M132.453,277.484
		c-0.022-0.762-0.272-1.352-0.748-1.771c-0.476-0.422-1.151-0.631-2.024-0.631c-0.852,0-1.512,0.221-1.982,0.658
		s-0.717,1.018-0.74,1.746L132.453,277.484L132.453,277.484z"/>
	<path d="M135.896,273.975h1.613v1.158c0.381-0.471,0.813-0.824,1.297-1.059c0.48-0.234,0.977-0.354,1.494-0.354
		c0.65,0,1.165,0.109,1.547,0.328c0.379,0.219,0.658,0.551,0.839,1c0.358-0.438,0.798-0.768,1.319-0.992
		c0.521-0.219,1.045-0.334,1.57-0.334c0.984,0,1.697,0.248,2.132,0.748c0.438,0.496,0.656,1.234,0.656,2.203v5.359h-1.646v-5.143
		c0-0.658-0.123-1.125-0.369-1.404c-0.246-0.275-0.667-0.41-1.26-0.41c-0.851,0-1.545,0.367-2.083,1.107
		c0.02,0.168,0.033,0.443,0.033,0.824v5.025h-1.648v-5.143c0-0.658-0.111-1.125-0.335-1.404c-0.224-0.275-0.627-0.41-1.21-0.41
		c-0.852,0-1.613,0.48-2.285,1.443v5.512h-1.663L135.896,273.975L135.896,273.975z"/>
	<path d="M151.394,281.172c-0.846-0.744-1.27-1.793-1.27-3.15c0-1.32,0.379-2.369,1.135-3.141s1.834-1.156,3.234-1.156
		c0.926,0,1.715,0.178,2.369,0.529c0.648,0.354,1.139,0.842,1.469,1.463c0.332,0.625,0.496,1.33,0.496,2.125v0.84h-7.09
		c0.057,0.762,0.379,1.326,0.967,1.707c0.588,0.373,1.385,0.563,2.395,0.563c0.514,0,1.035-0.045,1.561-0.141
		c0.527-0.096,0.992-0.221,1.395-0.379v1.359c-0.361,0.146-0.832,0.268-1.418,0.363c-0.588,0.096-1.168,0.143-1.74,0.143
		C153.407,282.289,152.239,281.918,151.394,281.172z M157.231,277.484c-0.021-0.762-0.271-1.352-0.746-1.771
		c-0.473-0.422-1.15-0.631-2.025-0.631c-0.852,0-1.51,0.221-1.982,0.658c-0.471,0.436-0.715,1.018-0.74,1.746L157.231,277.484
		L157.231,277.484z"/>
	<path d="M160.677,273.975h1.646v1.158c0.379-0.482,0.848-0.836,1.402-1.066c0.553-0.227,1.133-0.342,1.738-0.342
		c1.074,0,1.877,0.283,2.402,0.859c0.527,0.57,0.789,1.336,0.789,2.299v5.158h-1.697v-4.988c0-1.311-0.625-1.971-1.881-1.971
		c-0.539,0-1.035,0.131-1.502,0.377c-0.465,0.254-0.863,0.639-1.201,1.154v5.426h-1.697V273.975L160.677,273.975z"/>
	<path d="M171.974,281.584c-0.443-0.471-0.662-1.137-0.662-1.998v-4.303h-1.227v-1.309h1.227v-2.42h1.713v2.42h1.982v1.309h-1.982
		v4.186c0,0.539,0.102,0.92,0.309,1.143c0.209,0.223,0.586,0.336,1.133,0.336c0.324,0,0.652-0.074,0.977-0.219v1.344
		c-0.424,0.145-0.951,0.219-1.58,0.219C173.046,282.289,172.415,282.055,171.974,281.584z"/>
	<path d="M177.896,282.08c-0.627-0.141-1.123-0.328-1.479-0.564v-1.443c0.438,0.258,0.941,0.469,1.512,0.627
		c0.57,0.16,1.125,0.248,1.662,0.248c0.605,0,1.049-0.074,1.328-0.219c0.277-0.146,0.422-0.381,0.422-0.707
		c0-0.246-0.066-0.445-0.193-0.598c-0.129-0.154-0.346-0.287-0.656-0.412c-0.307-0.125-0.771-0.271-1.385-0.438
		c-0.658-0.189-1.182-0.385-1.57-0.578c-0.387-0.195-0.678-0.447-0.871-0.746c-0.195-0.305-0.297-0.695-0.297-1.176
		c0-0.773,0.307-1.357,0.918-1.76c0.611-0.395,1.432-0.596,2.463-0.596c0.539,0,1.064,0.047,1.58,0.15
		c0.514,0.102,0.928,0.244,1.242,0.424v1.412c-0.326-0.191-0.727-0.342-1.203-0.453c-0.475-0.111-0.959-0.168-1.451-0.168
		c-0.594,0-1.047,0.072-1.361,0.219c-0.311,0.146-0.471,0.404-0.471,0.773c0,0.236,0.07,0.422,0.201,0.568
		c0.135,0.146,0.352,0.277,0.648,0.379c0.297,0.104,0.771,0.246,1.42,0.412c1.018,0.279,1.727,0.609,2.123,0.99
		s0.598,0.912,0.598,1.582c0,0.691-0.283,1.246-0.857,1.664c-0.57,0.414-1.416,0.623-2.537,0.623
		C179.116,282.289,178.521,282.219,177.896,282.08z"/>
	<path d="M192.989,281.777c-0.686-0.342-1.225-0.834-1.613-1.479c-0.387-0.645-0.578-1.402-0.578-2.277
		c0-0.859,0.189-1.617,0.57-2.266c0.381-0.65,0.918-1.152,1.613-1.502c0.693-0.354,1.494-0.529,2.404-0.529
		c0.908,0,1.705,0.176,2.402,0.529c0.695,0.352,1.236,0.855,1.621,1.502c0.387,0.652,0.578,1.408,0.578,2.266
		c0,0.875-0.189,1.633-0.578,2.277c-0.387,0.645-0.926,1.137-1.621,1.479c-0.691,0.342-1.494,0.512-2.402,0.512
		C194.476,282.289,193.679,282.119,192.989,281.777z M197.466,280.139c0.516-0.537,0.773-1.242,0.773-2.117
		c0-0.906-0.256-1.623-0.773-2.148c-0.514-0.527-1.209-0.791-2.084-0.791s-1.566,0.264-2.084,0.791
		c-0.52,0.525-0.773,1.242-0.773,2.148c0,0.875,0.256,1.58,0.773,2.117c0.514,0.539,1.209,0.807,2.084,0.807
		S196.952,280.678,197.466,280.139z"/>
	<path d="M202.583,281.416c-0.555-0.584-0.83-1.361-0.83-2.336v-5.105h1.695v5.035c0,1.291,0.645,1.936,1.934,1.936
		c1.129,0,2.016-0.512,2.654-1.533v-5.438h1.695v8.063h-1.646v-1.143c-0.379,0.482-0.832,0.836-1.352,1.059
		c-0.521,0.225-1.088,0.336-1.689,0.336C203.956,282.289,203.138,281.998,202.583,281.416z M203.665,270.178h1.799l1.158,2.889
		h-1.563L203.665,270.178z"/>
</g>
<g enable-background="new    ">
	<path d="M93.88,301.121c-0.368,0.438-0.846,0.771-1.429,0.992c-0.581,0.223-1.209,0.336-1.882,0.336
		c-0.817,0-1.545-0.18-2.184-0.541c-0.638-0.357-1.139-0.859-1.503-1.512c-0.364-0.648-0.543-1.393-0.543-2.23
		c0-0.854,0.182-1.6,0.543-2.244c0.365-0.643,0.868-1.145,1.512-1.502c0.644-0.359,1.369-0.539,2.175-0.539
		c1.412,0,2.531,0.482,3.36,1.443v-1.191h1.647v11.74H93.88V301.121L93.88,301.121z M92.788,300.551
		c0.538-0.371,0.902-0.863,1.093-1.479v-1.814c-0.222-0.627-0.597-1.121-1.118-1.479c-0.521-0.357-1.123-0.537-1.806-0.537
		c-0.548,0-1.043,0.119-1.487,0.361c-0.442,0.24-0.79,0.582-1.041,1.023c-0.25,0.443-0.378,0.955-0.378,1.537
		c0,0.584,0.128,1.098,0.378,1.547c0.251,0.447,0.599,0.791,1.041,1.033c0.443,0.244,0.938,0.363,1.487,0.363
		C91.64,301.105,92.25,300.92,92.788,300.551z"/>
	<path d="M98.508,301.574c-0.554-0.582-0.832-1.359-0.832-2.334v-5.107h1.697v5.039c0,1.289,0.644,1.934,1.932,1.934
		c1.131,0,2.016-0.512,2.654-1.533v-5.439h1.697v8.064h-1.646v-1.143c-0.381,0.482-0.832,0.836-1.355,1.059
		c-0.519,0.225-1.083,0.336-1.687,0.336C99.883,302.449,99.063,302.158,98.508,301.574z"/>
	<path d="M108.773,301.332c-0.846-0.744-1.269-1.795-1.269-3.15c0-1.322,0.375-2.369,1.131-3.137c0.756-0.773,1.834-1.16,3.234-1.16
		c0.93,0,1.719,0.176,2.369,0.529c0.653,0.355,1.143,0.84,1.473,1.465c0.33,0.621,0.496,1.326,0.496,2.121v0.84h-7.09
		c0.056,0.762,0.378,1.332,0.966,1.707c0.588,0.373,1.385,0.564,2.394,0.564c0.515,0,1.035-0.047,1.562-0.143
		s0.991-0.221,1.393-0.379v1.361c-0.359,0.146-0.832,0.266-1.417,0.361c-0.59,0.096-1.168,0.143-1.739,0.143
		C110.786,302.449,109.618,302.076,108.773,301.332z M114.61,297.645c-0.022-0.762-0.271-1.354-0.747-1.773
		c-0.477-0.42-1.152-0.629-2.025-0.629c-0.851,0-1.512,0.219-1.982,0.656c-0.47,0.438-0.715,1.02-0.739,1.748L114.61,297.645
		L114.61,297.645z"/>
	<path d="M125.488,301.742c-0.442-0.475-0.663-1.135-0.663-1.998v-4.301h-1.227v-1.311h1.227v-2.42h1.713v2.42h1.982v1.311h-1.982
		v4.184c0,0.537,0.104,0.918,0.311,1.141c0.207,0.225,0.585,0.338,1.134,0.338c0.325,0,0.649-0.074,0.974-0.221v1.344
		c-0.425,0.146-0.952,0.221-1.579,0.221C126.561,302.449,125.931,302.213,125.488,301.742z"/>
	<path d="M131.217,301.574c-0.554-0.582-0.832-1.359-0.832-2.334v-5.107h1.697v5.039c0,1.289,0.644,1.934,1.932,1.934
		c1.131,0,2.019-0.512,2.655-1.533v-5.439h1.699v8.064h-1.647v-1.143c-0.382,0.482-0.832,0.836-1.353,1.059
		c-0.521,0.225-1.084,0.336-1.688,0.336C132.592,302.449,131.771,302.158,131.217,301.574z"/>
	<path d="M147.958,302.238c-0.627-0.139-1.121-0.332-1.477-0.566v-1.443c0.438,0.256,0.939,0.467,1.512,0.627
		c0.57,0.162,1.123,0.248,1.664,0.248c0.602,0,1.045-0.074,1.328-0.221c0.279-0.146,0.422-0.381,0.422-0.705
		c0-0.248-0.066-0.445-0.193-0.598c-0.133-0.152-0.348-0.289-0.656-0.414c-0.307-0.123-0.771-0.268-1.387-0.436
		c-0.66-0.189-1.184-0.385-1.57-0.58c-0.387-0.191-0.678-0.445-0.873-0.742c-0.195-0.307-0.295-0.695-0.295-1.182
		c0-0.771,0.307-1.355,0.916-1.754c0.611-0.395,1.432-0.598,2.465-0.598c0.539,0,1.064,0.051,1.58,0.15
		c0.512,0.102,0.928,0.242,1.242,0.42v1.416c-0.328-0.189-0.725-0.34-1.203-0.453c-0.479-0.111-0.963-0.166-1.451-0.166
		c-0.596,0-1.047,0.072-1.361,0.219c-0.313,0.146-0.471,0.404-0.471,0.773c0,0.236,0.068,0.422,0.201,0.568
		c0.133,0.145,0.352,0.275,0.648,0.377c0.295,0.107,0.77,0.248,1.418,0.416c1.02,0.277,1.729,0.607,2.125,0.99
		c0.395,0.381,0.598,0.904,0.598,1.576c0,0.695-0.285,1.248-0.857,1.664c-0.572,0.418-1.416,0.625-2.537,0.625
		C149.179,302.449,148.585,302.379,147.958,302.238z"/>
	<path d="M156.585,301.936c-0.688-0.342-1.227-0.83-1.613-1.479c-0.387-0.643-0.58-1.402-0.58-2.275c0-0.861,0.189-1.619,0.57-2.268
		c0.383-0.648,0.92-1.152,1.615-1.502c0.693-0.352,1.494-0.529,2.402-0.529c0.906,0,1.707,0.178,2.406,0.529
		c0.691,0.354,1.234,0.857,1.619,1.502c0.387,0.652,0.578,1.408,0.578,2.268c0,0.873-0.191,1.633-0.578,2.275
		c-0.389,0.648-0.926,1.137-1.619,1.479c-0.695,0.342-1.498,0.514-2.406,0.514S157.274,302.277,156.585,301.936z M161.062,300.299
		c0.514-0.539,0.773-1.244,0.773-2.117c0-0.906-0.258-1.619-0.773-2.146s-1.209-0.793-2.084-0.793s-1.566,0.268-2.084,0.793
		c-0.518,0.527-0.771,1.24-0.771,2.146c0,0.873,0.258,1.582,0.771,2.117s1.211,0.807,2.084,0.807S160.546,300.836,161.062,300.299z"
		/>
	<path d="M165.716,292.268c-0.189-0.189-0.285-0.426-0.285-0.707c0-0.277,0.098-0.514,0.285-0.705
		c0.189-0.189,0.424-0.285,0.705-0.285c0.291,0,0.537,0.096,0.734,0.285c0.193,0.189,0.295,0.422,0.295,0.705
		c0,0.277-0.102,0.512-0.295,0.707c-0.197,0.189-0.443,0.285-0.734,0.285C166.142,292.555,165.905,292.459,165.716,292.268z
		 M165.563,294.133h1.732v8.064h-1.732V294.133z"/>
	<path d="M170.823,302.238c-0.629-0.139-1.121-0.332-1.477-0.566v-1.443c0.438,0.256,0.941,0.467,1.512,0.627
		c0.568,0.162,1.123,0.248,1.664,0.248c0.602,0,1.045-0.074,1.326-0.221c0.283-0.146,0.424-0.381,0.424-0.705
		c0-0.248-0.068-0.445-0.193-0.598c-0.129-0.152-0.346-0.289-0.656-0.414c-0.307-0.123-0.77-0.268-1.385-0.436
		c-0.66-0.189-1.184-0.385-1.57-0.58c-0.387-0.191-0.678-0.445-0.873-0.742c-0.195-0.307-0.295-0.695-0.295-1.182
		c0-0.771,0.307-1.355,0.916-1.754c0.609-0.395,1.434-0.598,2.463-0.598c0.539,0,1.066,0.051,1.582,0.15
		c0.514,0.102,0.928,0.242,1.242,0.42v1.416c-0.326-0.189-0.727-0.34-1.205-0.453c-0.477-0.111-0.957-0.166-1.451-0.166
		c-0.596,0-1.047,0.072-1.357,0.219c-0.314,0.146-0.473,0.404-0.473,0.773c0,0.236,0.068,0.422,0.201,0.568
		c0.133,0.145,0.35,0.275,0.648,0.377c0.297,0.107,0.77,0.248,1.418,0.416c1.02,0.277,1.727,0.607,2.123,0.99
		c0.396,0.381,0.598,0.904,0.598,1.576c0,0.695-0.285,1.248-0.857,1.664c-0.568,0.418-1.416,0.625-2.537,0.625
		C172.044,302.449,171.45,302.379,170.823,302.238z"/>
	<path d="M177.735,301.969c-0.15-0.15-0.225-0.334-0.225-0.563c0-0.227,0.074-0.414,0.225-0.57c0.154-0.156,0.338-0.236,0.566-0.236
		c0.221,0,0.414,0.08,0.568,0.236c0.16,0.16,0.236,0.348,0.236,0.57c0,0.225-0.076,0.412-0.236,0.563
		c-0.156,0.156-0.346,0.229-0.568,0.229C178.073,302.197,177.888,302.119,177.735,301.969z"/>
</g>
</svg>
