<?xml version="1.0" encoding="utf-8"?>
<!-- Generator: Adobe Illustrator 16.0.0, SVG Export Plug-In . SVG Version: 6.00 Build 0)  -->
<!DOCTYPE svg PUBLIC "-//W3C//DTD SVG 1.1//EN" "http://www.w3.org/Graphics/SVG/1.1/DTD/svg11.dtd">
<svg version="1.1" id="Calque_1" xmlns="http://www.w3.org/2000/svg" xmlns:xlink="http://www.w3.org/1999/xlink" x="0px" y="0px"
	 width="170.079px" height="226.771px" viewBox="61.96 93.104 170.079 226.771"
	 enable-background="new 61.96 93.104 170.079 226.771" xml:space="preserve">
<path fill="none" stroke="#000000" stroke-width="3" stroke-linecap="round" stroke-miterlimit="10" d="M147.239,111.839"/>
<path fill="none" stroke="#000000" stroke-width="3" stroke-linecap="round" stroke-miterlimit="10" d="M181.977,118.114"/>
<path fill="#FFFDFD" stroke="#000000" stroke-width="3" stroke-linecap="round" stroke-miterlimit="10" d="M107.798,112.019
	l-0.001-0.18c-2.436,0.627-4.233,2.838-4.233,5.469v69.308c0,3.118,2.527,5.646,5.644,5.646h71.035c3.118,0,5.645-2.527,5.645-5.646
	l0,0v-69.309c0-2.534-1.613-4.48-3.91-5.195"/>
<path fill="none" stroke="#000000" stroke-width="3" stroke-linecap="round" stroke-miterlimit="10" d="M120.971,111.839h-4.783"/>
<path fill="none" stroke="#000000" stroke-width="3" stroke-linecap="round" stroke-miterlimit="10" d="M134.223,111.839h-4.861"/>
<path fill="none" stroke="#000000" stroke-width="3" stroke-linecap="round" stroke-miterlimit="10" d="M147.239,111.839h-4.625"/>
<path fill="#FFFFFF" stroke="#020202" stroke-miterlimit="10" d="M107.496,132.627c24.948,0,49.552,0,74.436,0
	c0.049,0.908,0.133,1.728,0.133,2.548c0.014,16.464,0.016,32.929,0.018,49.39c0,3.44-0.832,4.268-4.318,4.27
	c-21.95,0.011-43.902,0.018-65.855,0.021c-3.695,0-4.537-0.879-4.537-4.594c0-16.385-0.01-32.77-0.007-49.155
	C107.367,134.339,107.445,133.573,107.496,132.627z"/>
<path fill="#020202" d="M134.524,159.236c-0.373,0-0.726,0.168-1.08,0.513c-0.36,0.352-0.544,0.729-0.548,1.121
	c-0.006,0.51,0.295,1.087,0.866,1.669c0.981,0.997,1.953,2.004,2.923,3.014c1.146,1.189,2.291,2.379,3.457,3.55
	c0.714,0.717,1.239,1.037,1.707,1.037c0.515,0,1.07-0.379,1.86-1.27c1.606-1.814,3.201-3.643,4.792-5.474
	c1.095-1.26,2.187-2.522,3.279-3.786c1.363-1.576,2.729-3.152,4.096-4.724c0.568-0.653,1.142-1.413,1.076-2.097
	c-0.033-0.366-0.248-0.703-0.658-1.026c-1.01-0.8-1.969-0.467-3.051,0.991c-0.199,0.266-0.423,0.509-0.639,0.743
	c-0.102,0.112-0.206,0.225-0.307,0.339l-10.475,12.075l-1.794-1.816c-1.324-1.337-2.574-2.6-3.819-3.907
	C135.604,159.557,135.038,159.236,134.524,159.236z"/>
<path fill="#020202" stroke="#020202" stroke-miterlimit="10" d="M144.656,179.035l-0.002-0.032
	c-10.16-0.184-18.371-8.241-18.371-18.103c0.005-10.129,8.367-18.408,18.644-18.454h0.083c10.188,0,18.512,8.256,18.56,18.405
	c0.021,4.704-1.851,9.185-5.269,12.619c-3.471,3.487-8.057,5.444-12.943,5.533v0.003L144.656,179.035z M144.977,178.306h0.028
	c4.831,0,9.377-1.894,12.798-5.33c3.287-3.301,5.086-7.606,5.065-12.122c-0.046-9.765-8.058-17.708-17.859-17.708h-0.081
	c-9.892,0.044-17.942,8.008-17.946,17.754C126.983,170.481,135.055,178.289,144.977,178.306z"/>
<path fill="none" stroke="#000000" stroke-width="2" stroke-miterlimit="10" d="M115.247,107.951c0-1.797-1.459-3.254-3.253-3.254
	l0,0c-1.797,0-3.255,1.458-3.255,3.254v9.958c0,1.797,1.458,3.254,3.255,3.254l0,0c1.794,0,3.253-1.458,3.253-3.254V107.951z"/>
<path fill="none" stroke="#000000" stroke-width="2" stroke-miterlimit="10" d="M128.42,107.951c0-1.797-1.458-3.254-3.252-3.254
	l0,0c-1.796,0-3.254,1.458-3.254,3.254v9.958c0,1.797,1.458,3.254,3.254,3.254l0,0c1.794,0,3.252-1.458,3.252-3.254V107.951z"/>
<path fill="none" stroke="#000000" stroke-width="2" stroke-miterlimit="10" d="M141.672,107.951c0-1.797-1.459-3.254-3.254-3.254
	l0,0c-1.795,0-3.254,1.458-3.254,3.254v9.958c0,1.797,1.459,3.254,3.254,3.254l0,0c1.795,0,3.254-1.458,3.254-3.254V107.951z"/>
<path fill="none" stroke="#000000" stroke-width="2" stroke-miterlimit="10" d="M154.689,107.951c0-1.797-1.459-3.254-3.252-3.254
	l0,0c-1.795,0-3.255,1.458-3.255,3.254v9.958c0,1.797,1.46,3.254,3.255,3.254l0,0c1.794,0,3.252-1.458,3.252-3.254V107.951z"/>
<path fill="none" stroke="#000000" stroke-width="2" stroke-miterlimit="10" d="M167.943,107.951c0-1.797-1.461-3.254-3.253-3.254
	l0,0c-1.796,0-3.254,1.458-3.254,3.254v9.958c0,1.797,1.458,3.254,3.254,3.254l0,0c1.794,0,3.253-1.458,3.253-3.254V107.951z"/>
<path fill="#020202" d="M142.612,111.839h4.627"/>
<path fill="none" stroke="#000000" stroke-width="2" stroke-miterlimit="10" d="M181.037,107.951c0-1.797-1.459-3.254-3.252-3.254
	l0,0c-1.797,0-3.254,1.458-3.254,3.254v9.958c0,1.797,1.457,3.254,3.254,3.254l0,0c1.794,0,3.252-1.458,3.252-3.254V107.951z"/>
<g enable-background="new    ">
	<path d="M74.398,215.809h1.731v11.742h-1.731V215.809z"/>
	<path d="M78.313,219.488h1.647v1.158c0.381-0.482,0.849-0.836,1.402-1.066c0.555-0.229,1.135-0.344,1.736-0.344
		c1.076,0,1.878,0.285,2.405,0.859c0.526,0.569,0.79,1.339,0.79,2.303v5.157h-1.697v-4.993c0-1.307-0.627-1.966-1.882-1.966
		c-0.539,0-1.037,0.126-1.502,0.377c-0.464,0.253-0.863,0.637-1.203,1.151v5.431h-1.697V219.488L78.313,219.488z"/>
	<path d="M89.585,227.594c-0.627-0.14-1.122-0.328-1.477-0.563v-1.443c0.436,0.253,0.94,0.468,1.511,0.626
		c0.569,0.161,1.123,0.248,1.663,0.248c0.603,0,1.047-0.073,1.327-0.219c0.28-0.146,0.423-0.381,0.423-0.707
		c0-0.248-0.067-0.445-0.192-0.599c-0.131-0.151-0.348-0.288-0.656-0.411c-0.308-0.123-0.772-0.27-1.386-0.438
		c-0.659-0.189-1.184-0.383-1.57-0.579c-0.387-0.192-0.679-0.445-0.873-0.744c-0.194-0.306-0.295-0.694-0.295-1.179
		c0-0.773,0.307-1.357,0.919-1.756c0.608-0.395,1.43-0.598,2.462-0.598c0.538,0,1.064,0.049,1.579,0.151
		c0.514,0.103,0.93,0.243,1.242,0.421v1.414c-0.325-0.189-0.725-0.34-1.201-0.452c-0.479-0.111-0.961-0.166-1.452-0.166
		c-0.598,0-1.048,0.072-1.361,0.219s-0.471,0.4-0.471,0.772c0,0.235,0.068,0.424,0.202,0.569c0.133,0.146,0.35,0.272,0.646,0.378
		c0.297,0.104,0.772,0.244,1.419,0.412c1.019,0.277,1.729,0.609,2.125,0.99c0.395,0.381,0.598,0.908,0.598,1.58
		c0,0.694-0.285,1.248-0.858,1.662c-0.569,0.418-1.415,0.626-2.536,0.626C90.807,227.805,90.213,227.733,89.585,227.594z"/>
	<path d="M98.053,227.299c-0.694-0.336-1.235-0.826-1.62-1.471c-0.387-0.644-0.579-1.408-0.579-2.292s0.192-1.649,0.579-2.293
		c0.388-0.644,0.929-1.139,1.629-1.486c0.7-0.347,1.502-0.521,2.411-0.521c1.231,0,2.218,0.244,2.956,0.722v1.394
		c-0.728-0.504-1.657-0.755-2.786-0.755c-0.919,0-1.661,0.249-2.228,0.747s-0.85,1.229-0.85,2.192s0.28,1.69,0.841,2.185
		c0.56,0.492,1.294,0.74,2.2,0.74c1.131,0,2.107-0.271,2.926-0.807v1.381c-0.395,0.268-0.836,0.465-1.334,0.588
		c-0.499,0.127-1.084,0.188-1.758,0.188C99.543,227.805,98.747,227.635,98.053,227.299z"/>
	<path d="M105.378,219.488h1.646v1.443c0.336-0.492,0.809-0.855,1.419-1.092c0.611-0.234,1.319-0.356,2.126-0.356v1.327
		c-0.862,0-1.602,0.141-2.218,0.422c-0.616,0.279-1.042,0.723-1.277,1.327v4.99h-1.696V219.488L105.378,219.488z"/>
	<path d="M112.366,217.623c-0.19-0.189-0.285-0.423-0.285-0.707c0-0.279,0.095-0.514,0.285-0.705
		c0.189-0.189,0.423-0.285,0.706-0.285c0.291,0,0.535,0.096,0.73,0.285c0.195,0.191,0.294,0.426,0.294,0.705
		c0,0.28-0.099,0.516-0.294,0.707c-0.195,0.189-0.439,0.285-0.73,0.285C112.792,217.908,112.557,217.813,112.366,217.623z
		 M112.216,219.488h1.733v8.064h-1.733V219.488z"/>
	<path d="M117.473,227.594c-0.627-0.14-1.122-0.328-1.477-0.563v-1.443c0.437,0.253,0.941,0.468,1.512,0.626
		c0.569,0.161,1.123,0.248,1.663,0.248c0.604,0,1.046-0.073,1.327-0.219c0.28-0.146,0.423-0.381,0.423-0.707
		c0-0.248-0.065-0.445-0.192-0.599c-0.131-0.151-0.348-0.288-0.655-0.411c-0.31-0.123-0.772-0.27-1.386-0.438
		c-0.659-0.189-1.183-0.383-1.571-0.579c-0.388-0.192-0.679-0.445-0.874-0.744c-0.193-0.306-0.294-0.694-0.294-1.179
		c0-0.773,0.307-1.357,0.92-1.756c0.608-0.395,1.43-0.598,2.461-0.598c0.54,0,1.064,0.049,1.579,0.151s0.93,0.243,1.242,0.421v1.414
		c-0.325-0.189-0.725-0.34-1.2-0.452c-0.48-0.111-0.961-0.166-1.453-0.166c-0.596,0-1.048,0.072-1.361,0.219
		c-0.312,0.146-0.471,0.4-0.471,0.772c0,0.235,0.067,0.424,0.202,0.569c0.133,0.146,0.35,0.272,0.647,0.378
		c0.297,0.104,0.771,0.244,1.418,0.412c1.019,0.277,1.729,0.609,2.126,0.99c0.394,0.381,0.597,0.908,0.597,1.58
		c0,0.694-0.285,1.248-0.857,1.662c-0.57,0.418-1.416,0.626-2.536,0.626C118.694,227.805,118.101,227.733,117.473,227.594z"/>
	<path d="M124.16,221.857h5.358v1.395h-5.358V221.857z"/>
	<path d="M132.585,227.098c-0.442-0.471-0.662-1.137-0.662-1.999v-4.302h-1.227v-1.309h1.227v-2.419h1.712v2.419h1.982v1.309h-1.982
		v4.184c0,0.541,0.103,0.92,0.311,1.146c0.207,0.221,0.586,0.336,1.132,0.336c0.326,0,0.652-0.072,0.978-0.219v1.344
		c-0.426,0.146-0.952,0.219-1.58,0.219C133.657,227.805,133.027,227.569,132.585,227.098z"/>
	<path d="M139.423,227.291c-0.686-0.342-1.227-0.834-1.612-1.479c-0.388-0.645-0.58-1.402-0.58-2.276
		c0-0.861,0.189-1.619,0.571-2.267c0.38-0.65,0.918-1.152,1.613-1.502c0.693-0.355,1.495-0.531,2.402-0.531
		c0.909,0,1.708,0.176,2.405,0.531c0.693,0.353,1.235,0.854,1.619,1.502c0.388,0.647,0.58,1.405,0.58,2.267
		c0,0.874-0.191,1.632-0.58,2.276c-0.386,0.645-0.925,1.137-1.619,1.479c-0.694,0.341-1.497,0.512-2.405,0.512
		C140.91,227.803,140.111,227.632,139.423,227.291z M143.899,225.652c0.516-0.54,0.772-1.242,0.772-2.116
		c0-0.907-0.256-1.623-0.772-2.149c-0.514-0.526-1.21-0.79-2.085-0.79s-1.566,0.264-2.083,0.79
		c-0.518,0.526-0.773,1.242-0.773,2.149c0,0.874,0.258,1.579,0.773,2.116c0.514,0.538,1.209,0.803,2.083,0.803
		C142.688,226.455,143.385,226.19,143.899,225.652z"/>
	<path d="M148.555,217.623c-0.189-0.189-0.285-0.423-0.285-0.707c0-0.279,0.098-0.514,0.285-0.705
		c0.189-0.189,0.424-0.285,0.707-0.285c0.291,0,0.536,0.096,0.73,0.285c0.194,0.191,0.295,0.426,0.295,0.705
		c0,0.28-0.101,0.516-0.295,0.707c-0.194,0.189-0.439,0.285-0.73,0.285C148.979,217.908,148.744,217.813,148.555,217.623z
		 M148.402,219.488h1.732v8.064h-1.732V219.488z"/>
	<path d="M159.23,227.056c-0.588-0.498-0.882-1.174-0.882-2.024c0-0.896,0.28-1.59,0.848-2.079c0.567-0.482,1.37-0.731,2.41-0.731
		c1.108,0,2.051,0.223,2.823,0.673v-0.423c0-0.636-0.193-1.113-0.58-1.417c-0.387-0.307-0.994-0.462-1.823-0.462
		c-0.493,0-0.974,0.048-1.437,0.143c-0.465,0.1-0.883,0.227-1.252,0.395v-1.377c0.336-0.16,0.773-0.283,1.311-0.379
		c0.537-0.097,1.058-0.143,1.562-0.143c1.329,0,2.319,0.294,2.962,0.885c0.645,0.588,0.965,1.402,0.965,2.441v4.989h-1.592v-0.902
		c-0.348,0.38-0.758,0.669-1.238,0.861c-0.477,0.195-1.056,0.298-1.734,0.298C160.599,227.805,159.818,227.555,159.23,227.056z
		 M163.455,226.19c0.438-0.213,0.762-0.509,0.977-0.89v-1.094c-0.729-0.471-1.538-0.706-2.436-0.706
		c-0.648,0-1.133,0.126-1.451,0.378c-0.317,0.25-0.48,0.635-0.48,1.152c0,0.982,0.645,1.475,1.932,1.475
		C162.531,226.51,163.019,226.404,163.455,226.19z"/>
	<path d="M168.99,226.931c-0.555-0.583-0.832-1.357-0.832-2.335v-5.107h1.697v5.039c0,1.289,0.645,1.934,1.934,1.934
		c1.129,0,2.016-0.511,2.654-1.53v-5.442h1.697v8.064h-1.648v-1.143c-0.379,0.48-0.831,0.831-1.354,1.059
		c-0.523,0.225-1.085,0.336-1.689,0.336C170.365,227.805,169.545,227.514,168.99,226.931z"/>
	<path d="M180.859,223.334l-3.159-3.846h1.933l2.184,2.67l2.202-2.67h1.933l-3.158,3.846l3.46,4.217h-1.915l-2.521-3.04l-2.502,3.04
		h-1.916L180.859,223.334z"/>
</g>
<g enable-background="new    ">
	<path d="M75.331,246.847c-0.846-0.744-1.269-1.794-1.269-3.15c0-1.321,0.377-2.368,1.134-3.14c0.756-0.773,1.833-1.156,3.233-1.156
		c0.93,0,1.72,0.176,2.369,0.529c0.651,0.352,1.14,0.84,1.473,1.461c0.331,0.625,0.496,1.33,0.496,2.125v0.84h-7.091
		c0.056,0.762,0.378,1.328,0.968,1.707c0.588,0.373,1.385,0.564,2.394,0.564c0.513,0,1.035-0.047,1.561-0.143
		c0.526-0.096,0.991-0.221,1.395-0.379v1.36c-0.359,0.146-0.832,0.267-1.418,0.362c-0.59,0.096-1.169,0.143-1.738,0.143
		C77.345,247.963,76.178,247.592,75.331,246.847z M81.169,243.159c-0.021-0.762-0.272-1.353-0.747-1.772
		c-0.477-0.42-1.15-0.63-2.024-0.63c-0.853,0-1.512,0.22-1.982,0.657c-0.47,0.438-0.716,1.02-0.74,1.747L81.169,243.159
		L81.169,243.159z M78.666,235.852h1.798l-1.395,2.889h-1.545L78.666,235.852z"/>
	<path d="M83.605,239.648h1.796l2.369,5.795l2.37-5.795h1.796l-3.428,8.064h-1.478L83.605,239.648z"/>
	<path d="M94.047,246.847c-0.846-0.744-1.269-1.794-1.269-3.15c0-1.321,0.378-2.368,1.135-3.14c0.754-0.773,1.833-1.156,3.232-1.156
		c0.93,0,1.719,0.176,2.37,0.529c0.649,0.352,1.139,0.84,1.47,1.461c0.333,0.625,0.496,1.33,0.496,2.125v0.84h-7.09
		c0.056,0.762,0.377,1.328,0.966,1.707c0.59,0.373,1.386,0.564,2.396,0.564c0.512,0,1.035-0.047,1.56-0.143
		c0.526-0.096,0.991-0.221,1.395-0.379v1.36c-0.359,0.146-0.832,0.267-1.419,0.362c-0.588,0.096-1.168,0.143-1.736,0.143
		C96.061,247.963,94.893,247.592,94.047,246.847z M99.884,243.159c-0.021-0.762-0.274-1.353-0.746-1.772
		c-0.478-0.42-1.151-0.63-2.025-0.63c-0.852,0-1.511,0.22-1.982,0.657c-0.471,0.438-0.716,1.02-0.741,1.747L99.884,243.159
		L99.884,243.159z M97.381,235.852h1.797l-1.395,2.889h-1.545L97.381,235.852z"/>
	<path d="M103.328,239.648h1.647v1.158c0.381-0.481,0.849-0.836,1.402-1.065c0.556-0.226,1.135-0.341,1.739-0.341
		c1.075,0,1.876,0.282,2.402,0.859c0.526,0.568,0.79,1.336,0.79,2.299v5.157h-1.697v-4.989c0-1.311-0.627-1.97-1.881-1.97
		c-0.54,0-1.038,0.13-1.503,0.378c-0.465,0.252-0.862,0.637-1.201,1.152v5.426h-1.697L103.328,239.648L103.328,239.648z"/>
	<path d="M114.342,246.847c-0.847-0.744-1.27-1.794-1.27-3.15c0-1.321,0.377-2.368,1.133-3.14c0.756-0.773,1.835-1.156,3.234-1.156
		c0.93,0,1.719,0.176,2.369,0.529c0.65,0.352,1.141,0.84,1.471,1.461c0.332,0.625,0.495,1.33,0.495,2.125v0.84h-7.09
		c0.057,0.762,0.379,1.328,0.967,1.707c0.588,0.373,1.385,0.564,2.394,0.564c0.516,0,1.036-0.047,1.563-0.143
		s0.991-0.221,1.394-0.379v1.36c-0.361,0.146-0.831,0.267-1.419,0.362s-1.167,0.143-1.737,0.143
		C116.354,247.963,115.187,247.592,114.342,246.847z M120.18,243.159c-0.023-0.762-0.274-1.353-0.748-1.772
		c-0.476-0.42-1.152-0.63-2.024-0.63c-0.854,0-1.513,0.22-1.982,0.657c-0.474,0.437-0.716,1.02-0.742,1.747L120.18,243.159
		L120.18,243.159z"/>
	<path d="M123.623,239.648h1.612v1.158c0.382-0.471,0.812-0.822,1.294-1.059c0.482-0.234,0.979-0.352,1.496-0.352
		c0.651,0,1.164,0.108,1.546,0.327s0.66,0.552,0.839,0.999c0.361-0.436,0.801-0.767,1.32-0.991c0.52-0.22,1.043-0.335,1.57-0.335
		c0.985,0,1.697,0.249,2.133,0.748c0.438,0.498,0.657,1.234,0.657,2.205v5.359h-1.648v-5.145c0-0.658-0.123-1.125-0.366-1.402
		c-0.248-0.275-0.667-0.412-1.261-0.412c-0.854,0-1.545,0.369-2.086,1.109c0.022,0.166,0.034,0.441,0.034,0.822v5.027h-1.647v-5.145
		c0-0.658-0.112-1.125-0.335-1.402c-0.222-0.275-0.627-0.412-1.211-0.412c-0.851,0-1.613,0.482-2.287,1.445v5.51h-1.662
		L123.623,239.648L123.623,239.648z"/>
	<path d="M139.12,246.847c-0.847-0.744-1.27-1.794-1.27-3.15c0-1.321,0.379-2.368,1.134-3.14c0.757-0.773,1.834-1.156,3.233-1.156
		c0.93,0,1.721,0.176,2.37,0.529c0.651,0.352,1.141,0.84,1.473,1.461c0.331,0.625,0.496,1.33,0.496,2.125v0.84h-7.091
		c0.056,0.762,0.378,1.328,0.968,1.707c0.588,0.373,1.385,0.564,2.394,0.564c0.513,0,1.035-0.047,1.561-0.143
		c0.527-0.096,0.991-0.221,1.394-0.379v1.36c-0.358,0.146-0.831,0.267-1.417,0.362c-0.59,0.096-1.168,0.143-1.738,0.143
		C141.134,247.963,139.967,247.592,139.12,246.847z M144.958,243.159c-0.021-0.762-0.272-1.353-0.745-1.772
		c-0.479-0.42-1.152-0.63-2.026-0.63c-0.852,0-1.512,0.22-1.982,0.657c-0.47,0.438-0.715,1.02-0.74,1.747L144.958,243.159
		L144.958,243.159z"/>
	<path d="M148.402,239.648h1.648v1.158c0.379-0.481,0.848-0.836,1.402-1.065c0.554-0.226,1.133-0.341,1.734-0.341
		c1.076,0,1.879,0.282,2.406,0.859c0.527,0.568,0.791,1.336,0.791,2.299v5.157h-1.698v-4.989c0-1.311-0.628-1.97-1.882-1.97
		c-0.539,0-1.037,0.13-1.502,0.378c-0.463,0.252-0.864,0.637-1.205,1.152v5.426h-1.696L148.402,239.648L148.402,239.648z"/>
	<path d="M159.699,247.258c-0.443-0.471-0.662-1.136-0.662-1.997v-4.303h-1.227v-1.31h1.227v-2.419h1.713v2.419h1.98v1.31h-1.98
		v4.186c0,0.54,0.103,0.919,0.309,1.143c0.207,0.223,0.586,0.335,1.134,0.335c0.325,0,0.649-0.072,0.975-0.219v1.344
		c-0.423,0.146-0.948,0.219-1.579,0.219C160.772,247.963,160.142,247.729,159.699,247.258z"/>
	<path d="M165.623,247.754c-0.627-0.139-1.123-0.328-1.477-0.563v-1.444c0.436,0.257,0.939,0.468,1.51,0.627
		c0.57,0.161,1.123,0.247,1.663,0.247c0.603,0,1.048-0.072,1.327-0.219c0.281-0.146,0.423-0.381,0.423-0.705
		c0-0.248-0.067-0.446-0.192-0.598c-0.132-0.154-0.348-0.289-0.656-0.412c-0.308-0.127-0.773-0.271-1.385-0.438
		c-0.661-0.189-1.185-0.387-1.572-0.58c-0.387-0.195-0.678-0.447-0.873-0.745c-0.195-0.304-0.294-0.694-0.294-1.177
		c0-0.773,0.306-1.357,0.919-1.76c0.608-0.394,1.43-0.596,2.463-0.596c0.538,0,1.064,0.048,1.578,0.15s0.93,0.244,1.243,0.424v1.412
		c-0.327-0.189-0.725-0.342-1.203-0.452c-0.479-0.112-0.96-0.169-1.45-0.169c-0.598,0-1.048,0.074-1.361,0.221
		c-0.313,0.146-0.471,0.402-0.471,0.772c0,0.235,0.068,0.423,0.201,0.569c0.132,0.145,0.351,0.275,0.647,0.377
		c0.298,0.105,0.772,0.247,1.419,0.412c1.018,0.279,1.729,0.61,2.125,0.991c0.395,0.381,0.598,0.911,0.598,1.583
		c0,0.69-0.285,1.245-0.859,1.663c-0.569,0.415-1.414,0.622-2.535,0.622C166.844,247.963,166.25,247.894,165.623,247.754z"/>
	<path d="M180.584,247.435c-0.647-0.353-1.151-0.851-1.512-1.495c-0.365-0.645-0.545-1.391-0.545-2.243
		c0-0.839,0.182-1.585,0.545-2.233c0.364-0.65,0.864-1.152,1.512-1.521c0.644-0.364,1.365-0.542,2.173-0.542
		c1.456,0,2.558,0.441,3.311,1.326v-5.426h1.698v12.412h-1.648v-1.177c-0.449,0.493-0.938,0.854-1.472,1.085
		c-0.533,0.228-1.161,0.344-1.889,0.344C181.952,247.963,181.228,247.787,180.584,247.435z M184.967,246.074
		c0.521-0.363,0.889-0.854,1.101-1.471v-1.818c-0.19-0.615-0.552-1.109-1.084-1.475c-0.534-0.369-1.147-0.554-1.84-0.554
		c-0.549,0-1.044,0.123-1.487,0.365c-0.444,0.247-0.791,0.598-1.041,1.042c-0.25,0.447-0.377,0.954-0.377,1.528
		s0.127,1.085,0.377,1.531c0.252,0.449,0.598,0.794,1.041,1.034c0.443,0.242,0.938,0.363,1.487,0.363
		C183.839,246.619,184.447,246.438,184.967,246.074z"/>
	<path d="M190.881,246.847c-0.846-0.744-1.268-1.794-1.268-3.15c0-1.321,0.378-2.368,1.135-3.14
		c0.754-0.773,1.832-1.156,3.231-1.156c0.93,0,1.718,0.176,2.37,0.529c0.65,0.352,1.139,0.84,1.472,1.461
		c0.332,0.625,0.495,1.33,0.495,2.125v0.84h-7.09c0.055,0.762,0.376,1.328,0.965,1.707c0.59,0.373,1.385,0.564,2.396,0.564
		c0.512,0,1.035-0.047,1.561-0.143c0.526-0.096,0.991-0.221,1.395-0.379v1.36c-0.36,0.146-0.832,0.267-1.419,0.362
		c-0.588,0.096-1.168,0.143-1.735,0.143C192.895,247.963,191.727,247.592,190.881,246.847z M196.718,243.159
		c-0.021-0.762-0.274-1.353-0.747-1.772c-0.477-0.42-1.15-0.63-2.023-0.63c-0.853,0-1.512,0.22-1.982,0.657s-0.717,1.02-0.743,1.747
		L196.718,243.159L196.718,243.159z"/>
</g>
<g enable-background="new    ">
	<path d="M75.616,267.417c-0.442-0.474-0.662-1.136-0.662-1.999v-4.301h-1.226v-1.31h1.226v-2.42h1.713v2.42h1.982v1.31h-1.982
		v4.184c0,0.537,0.102,0.919,0.309,1.143c0.207,0.225,0.585,0.336,1.134,0.336c0.324,0,0.649-0.073,0.977-0.219v1.344
		c-0.425,0.145-0.951,0.219-1.581,0.219C76.69,268.123,76.06,267.889,75.616,267.417z"/>
	<path d="M82.454,267.611c-0.686-0.342-1.227-0.832-1.612-1.479c-0.388-0.644-0.579-1.402-0.579-2.276
		c0-0.859,0.189-1.617,0.569-2.267c0.381-0.649,0.92-1.151,1.613-1.502c0.694-0.351,1.496-0.528,2.403-0.528
		s1.707,0.176,2.405,0.528c0.691,0.354,1.235,0.856,1.618,1.502c0.388,0.653,0.58,1.409,0.58,2.267c0,0.874-0.192,1.633-0.58,2.276
		c-0.386,0.649-0.926,1.138-1.618,1.479c-0.695,0.342-1.498,0.512-2.405,0.512S83.143,267.953,82.454,267.611z M86.932,265.973
		c0.513-0.538,0.772-1.243,0.772-2.117c0-0.906-0.257-1.619-0.772-2.146c-0.516-0.527-1.211-0.794-2.086-0.794
		s-1.567,0.268-2.083,0.794c-0.515,0.526-0.773,1.239-0.773,2.146c0,0.874,0.259,1.584,0.773,2.117
		c0.512,0.537,1.21,0.807,2.083,0.807C85.72,266.779,86.416,266.51,86.932,265.973z"/>
	<path d="M91.301,259.808h1.647v1.157c0.381-0.481,0.85-0.836,1.403-1.064c0.555-0.23,1.134-0.346,1.738-0.346
		c1.075,0,1.877,0.286,2.403,0.857s0.79,1.338,0.79,2.302v5.157h-1.697v-4.99c0-1.31-0.627-1.965-1.881-1.965
		c-0.539,0-1.038,0.126-1.503,0.377c-0.465,0.248-0.865,0.637-1.202,1.152v5.426h-1.697v-8.063H91.301z"/>
	<path d="M109.46,267.619c-0.694-0.334-1.235-0.826-1.619-1.471c-0.387-0.643-0.578-1.408-0.578-2.293s0.19-1.647,0.578-2.289
		c0.388-0.644,0.928-1.14,1.628-1.486c0.7-0.348,1.504-0.521,2.411-0.521c1.232,0,2.218,0.243,2.956,0.723v1.391
		c-0.727-0.504-1.654-0.756-2.786-0.756c-0.919,0-1.659,0.248-2.227,0.748c-0.567,0.498-0.85,1.229-0.85,2.191
		c0,0.964,0.279,1.691,0.84,2.184s1.295,0.744,2.202,0.744c1.128,0,2.105-0.271,2.924-0.807v1.377
		c-0.395,0.271-0.838,0.465-1.336,0.59s-1.083,0.188-1.756,0.188C110.95,268.123,110.154,267.955,109.46,267.619z"/>
	<path d="M116.786,255.455h1.696v5.461c0.773-0.908,1.804-1.357,3.091-1.357c1.075,0,1.879,0.287,2.405,0.861
		c0.526,0.568,0.789,1.338,0.789,2.301v5.154h-1.696v-4.989c0-1.311-0.628-1.97-1.882-1.97c-0.538,0-1.037,0.13-1.502,0.377
		c-0.466,0.254-0.864,0.638-1.203,1.153v5.427h-1.697L116.786,255.455L116.786,255.455z"/>
	<path d="M128.47,267.611c-0.688-0.342-1.227-0.832-1.613-1.479c-0.389-0.644-0.58-1.402-0.58-2.276
		c0-0.859,0.189-1.617,0.569-2.267c0.381-0.649,0.919-1.151,1.615-1.502c0.691-0.353,1.494-0.528,2.402-0.528
		s1.707,0.176,2.403,0.528c0.695,0.354,1.237,0.856,1.62,1.502c0.387,0.652,0.58,1.409,0.58,2.267c0,0.874-0.192,1.633-0.58,2.276
		c-0.387,0.649-0.926,1.138-1.62,1.479s-1.495,0.512-2.403,0.512S129.158,267.953,128.47,267.611z M132.946,265.973
		c0.515-0.538,0.773-1.243,0.773-2.117c0-0.906-0.258-1.619-0.773-2.146c-0.512-0.527-1.21-0.794-2.083-0.794
		s-1.567,0.268-2.085,0.794c-0.514,0.526-0.772,1.239-0.772,2.146c0,0.874,0.257,1.584,0.772,2.117
		c0.516,0.537,1.21,0.807,2.085,0.807S132.432,266.51,132.946,265.973z"/>
	<path d="M137.6,257.942c-0.189-0.19-0.285-0.426-0.285-0.706c0-0.279,0.096-0.515,0.285-0.706c0.189-0.19,0.423-0.286,0.706-0.286
		c0.291,0,0.535,0.097,0.731,0.286c0.195,0.189,0.294,0.423,0.294,0.706c0,0.276-0.099,0.512-0.294,0.706
		c-0.196,0.189-0.44,0.284-0.731,0.284C138.025,258.229,137.79,258.133,137.6,257.942z M137.448,259.808h1.731v8.063h-1.731V259.808
		z"/>
	<path d="M144.64,263.653l-3.158-3.846h1.932l2.184,2.669l2.202-2.669h1.934l-3.16,3.846l3.461,4.214h-1.914l-2.522-3.04
		l-2.503,3.04h-1.912L144.64,263.653z"/>
	<path d="M152.148,266.98h1.781l-1.596,3.373h-1.546L152.148,266.98z"/>
	<path d="M162.926,267.006c-0.846-0.744-1.27-1.794-1.27-3.15c0-1.321,0.379-2.369,1.135-3.137c0.754-0.773,1.83-1.16,3.23-1.16
		c0.93,0,1.721,0.178,2.373,0.53c0.649,0.355,1.139,0.84,1.471,1.464c0.332,0.623,0.496,1.328,0.496,2.123v0.84h-7.091
		c0.056,0.762,0.378,1.33,0.968,1.707c0.588,0.371,1.385,0.563,2.393,0.563c0.514,0,1.035-0.048,1.561-0.143
		c0.526-0.095,0.991-0.222,1.393-0.378v1.359c-0.359,0.146-0.83,0.267-1.416,0.362c-0.589,0.095-1.168,0.144-1.738,0.144
		C164.939,268.123,163.771,267.751,162.926,267.006z M168.764,263.318c-0.02-0.762-0.271-1.352-0.744-1.772
		c-0.479-0.42-1.152-0.63-2.027-0.63c-0.852,0-1.512,0.22-1.982,0.657s-0.715,1.019-0.739,1.747L168.764,263.318L168.764,263.318z"
		/>
	<path d="M173.426,267.417c-0.442-0.474-0.662-1.136-0.662-1.999v-4.301h-1.228v-1.31h1.228v-2.42h1.712v2.42h1.982v1.31h-1.982
		v4.184c0,0.537,0.104,0.919,0.31,1.143c0.209,0.225,0.586,0.336,1.135,0.336c0.324,0,0.65-0.073,0.975-0.219v1.344
		c-0.425,0.145-0.951,0.219-1.579,0.219C174.498,268.123,173.868,267.889,173.426,267.417z"/>
</g>
<g enable-background="new    ">
	<path d="M75.331,287.166c-0.846-0.744-1.269-1.795-1.269-3.15c0-1.324,0.377-2.372,1.134-3.141
		c0.756-0.773,1.833-1.159,3.233-1.159c0.93,0,1.72,0.177,2.369,0.528c0.651,0.354,1.14,0.841,1.473,1.463
		c0.331,0.625,0.496,1.33,0.496,2.125v0.84h-7.091c0.056,0.762,0.378,1.33,0.968,1.707c0.588,0.375,1.385,0.563,2.394,0.563
		c0.513,0,1.035-0.047,1.561-0.143c0.525-0.095,0.991-0.221,1.395-0.378v1.36c-0.359,0.146-0.832,0.266-1.418,0.361
		c-0.59,0.096-1.169,0.144-1.738,0.144C77.345,288.283,76.178,287.911,75.331,287.166z M81.169,283.479
		c-0.021-0.762-0.272-1.352-0.747-1.771c-0.477-0.42-1.15-0.627-2.024-0.627c-0.853,0-1.512,0.217-1.982,0.654
		c-0.47,0.438-0.716,1.02-0.74,1.747L81.169,283.479L81.169,283.479z M78.666,276.17h1.798l-1.395,2.891h-1.545L78.666,276.17z"/>
	<path d="M86.478,287.779c-0.694-0.336-1.235-0.83-1.619-1.473c-0.387-0.645-0.578-1.408-0.578-2.289
		c0-0.889,0.19-1.649,0.578-2.293c0.388-0.645,0.928-1.141,1.628-1.487s1.504-0.521,2.411-0.521c1.232,0,2.218,0.244,2.957,0.723
		v1.394c-0.728-0.504-1.655-0.755-2.786-0.755c-0.92,0-1.66,0.246-2.228,0.746c-0.567,0.498-0.85,1.229-0.85,2.193
		c0,0.963,0.279,1.69,0.84,2.184c0.561,0.488,1.295,0.739,2.202,0.739c1.128,0,2.106-0.269,2.924-0.807v1.38
		c-0.395,0.271-0.838,0.463-1.336,0.59c-0.498,0.123-1.083,0.186-1.756,0.186C87.968,288.283,87.173,288.115,86.478,287.779z"/>
	<path d="M93.804,275.616H95.5v5.46c0.773-0.907,1.804-1.36,3.092-1.36c1.074,0,1.878,0.286,2.404,0.86
		c0.527,0.568,0.79,1.334,0.79,2.302v5.153h-1.697v-4.989c0-1.311-0.628-1.966-1.882-1.966c-0.538,0-1.036,0.127-1.502,0.378
		c-0.465,0.248-0.864,0.636-1.201,1.151v5.426h-1.699L93.804,275.616L93.804,275.616z"/>
	<path d="M104.176,287.536c-0.588-0.499-0.882-1.173-0.882-2.024c0-0.896,0.28-1.588,0.849-2.075
		c0.566-0.487,1.369-0.731,2.408-0.731c1.109,0,2.052,0.221,2.822,0.673v-0.423c0-0.639-0.19-1.111-0.579-1.416
		c-0.387-0.308-0.994-0.461-1.823-0.461c-0.492,0-0.974,0.043-1.437,0.142c-0.464,0.096-0.884,0.228-1.251,0.394v-1.377
		c0.335-0.158,0.772-0.283,1.31-0.379c0.538-0.095,1.06-0.143,1.561-0.143c1.332,0,2.319,0.294,2.964,0.882
		c0.645,0.593,0.967,1.407,0.967,2.444v4.99h-1.596v-0.908c-0.347,0.381-0.759,0.67-1.235,0.865
		c-0.479,0.195-1.058,0.295-1.738,0.295C105.546,288.283,104.765,288.034,104.176,287.536z M108.401,286.67
		c0.437-0.216,0.763-0.51,0.976-0.889v-1.094c-0.729-0.47-1.54-0.705-2.436-0.705c-0.652,0-1.135,0.127-1.453,0.379
		c-0.319,0.248-0.481,0.631-0.481,1.15c0,0.986,0.646,1.479,1.935,1.479C107.478,286.99,107.964,286.884,108.401,286.67z"/>
	<path d="M113.19,279.968h1.646v1.159c0.381-0.482,0.849-0.837,1.403-1.066c0.557-0.23,1.134-0.345,1.738-0.345
		c1.075,0,1.877,0.286,2.403,0.86c0.528,0.568,0.791,1.334,0.791,2.302v5.153h-1.699v-4.989c0-1.311-0.627-1.966-1.881-1.966
		c-0.539,0-1.038,0.127-1.503,0.378c-0.465,0.248-0.862,0.636-1.201,1.151v5.426h-1.696L113.19,279.968L113.19,279.968z"/>
	<path d="M125.882,291.762c-0.521-0.09-0.96-0.219-1.319-0.387v-1.395c0.84,0.381,1.815,0.57,2.924,0.57
		c1.04,0,1.799-0.226,2.276-0.684c0.477-0.452,0.715-1.14,0.715-2.057v-0.86c-0.742,0.89-1.824,1.327-3.259,1.327
		c-0.817,0-1.552-0.18-2.202-0.539c-0.651-0.359-1.158-0.86-1.531-1.509c-0.368-0.653-0.554-1.394-0.554-2.233
		c0-0.852,0.183-1.6,0.546-2.243s0.866-1.146,1.511-1.502c0.645-0.362,1.368-0.54,2.174-0.54c0.749,0,1.385,0.109,1.909,0.328
		c0.519,0.219,1.006,0.579,1.451,1.086v-1.158h1.647v7.656c0,1.382-0.383,2.436-1.151,3.168c-0.77,0.732-1.945,1.1-3.537,1.1
		C126.938,291.896,126.402,291.852,125.882,291.762z M129.395,286.386c0.533-0.37,0.893-0.862,1.085-1.479v-1.813
		c-0.216-0.627-0.579-1.12-1.1-1.479c-0.521-0.358-1.128-0.538-1.823-0.538c-0.547,0-1.042,0.121-1.486,0.361
		c-0.443,0.24-0.79,0.586-1.039,1.035c-0.252,0.449-0.379,0.959-0.379,1.529c0,0.583,0.127,1.096,0.379,1.537
		c0.249,0.443,0.598,0.787,1.039,1.033c0.443,0.248,0.939,0.371,1.486,0.371C128.248,286.939,128.86,286.755,129.395,286.386z"/>
	<path d="M135.29,287.166c-0.846-0.744-1.27-1.795-1.27-3.15c0-1.324,0.378-2.372,1.134-3.141c0.756-0.773,1.833-1.159,3.232-1.159
		c0.93,0,1.72,0.177,2.37,0.528c0.649,0.354,1.14,0.841,1.473,1.463c0.332,0.625,0.496,1.33,0.496,2.125v0.84h-7.092
		c0.056,0.762,0.377,1.33,0.969,1.707c0.588,0.375,1.385,0.563,2.394,0.563c0.513,0,1.035-0.047,1.561-0.143
		c0.524-0.095,0.991-0.221,1.395-0.378v1.36c-0.359,0.146-0.832,0.266-1.42,0.361s-1.168,0.144-1.736,0.144
		C137.303,288.283,136.135,287.911,135.29,287.166z M141.127,283.479c-0.021-0.762-0.274-1.352-0.746-1.771
		c-0.478-0.42-1.151-0.627-2.025-0.627c-0.852,0-1.512,0.217-1.982,0.654s-0.716,1.02-0.742,1.747L141.127,283.479L141.127,283.479z
		"/>
	<path d="M151.332,287.536c-0.588-0.499-0.884-1.173-0.884-2.024c0-0.896,0.282-1.588,0.851-2.075
		c0.566-0.487,1.368-0.731,2.408-0.731c1.109,0,2.051,0.221,2.82,0.673v-0.423c0-0.639-0.191-1.111-0.578-1.416
		c-0.387-0.308-0.994-0.461-1.822-0.461c-0.49,0-0.973,0.043-1.438,0.142c-0.465,0.096-0.883,0.228-1.252,0.394v-1.377
		c0.336-0.158,0.773-0.283,1.311-0.379c0.539-0.095,1.063-0.143,1.561-0.143c1.332,0,2.32,0.294,2.964,0.882
		c0.646,0.593,0.968,1.407,0.968,2.444v4.99h-1.596v-0.908c-0.347,0.381-0.76,0.67-1.236,0.865s-1.057,0.295-1.738,0.295
		C152.703,288.283,151.92,288.034,151.332,287.536z M155.559,286.67c0.438-0.216,0.762-0.51,0.976-0.889v-1.094
		c-0.728-0.47-1.538-0.705-2.436-0.705c-0.653,0-1.135,0.127-1.454,0.379c-0.319,0.248-0.48,0.631-0.48,1.15
		c0,0.986,0.645,1.479,1.936,1.479C154.635,286.99,155.123,286.884,155.559,286.67z"/>
	<path d="M159.255,279.968h1.796l2.37,5.796l2.369-5.796h1.798l-3.428,8.063h-1.479L159.255,279.968z"/>
	<path d="M169.696,287.166c-0.847-0.744-1.27-1.795-1.27-3.15c0-1.324,0.378-2.372,1.135-3.141c0.755-0.773,1.833-1.159,3.233-1.159
		c0.928,0,1.717,0.177,2.369,0.528c0.65,0.354,1.141,0.841,1.472,1.463c0.331,0.625,0.495,1.33,0.495,2.125v0.84h-7.09
		c0.056,0.762,0.379,1.33,0.967,1.707s1.385,0.563,2.394,0.563c0.515,0,1.036-0.047,1.563-0.143
		c0.526-0.095,0.991-0.221,1.393-0.378v1.36c-0.36,0.146-0.831,0.266-1.418,0.361c-0.589,0.096-1.167,0.144-1.737,0.144
		C171.709,288.283,170.541,287.911,169.696,287.166z M175.535,283.479c-0.022-0.762-0.273-1.352-0.745-1.771
		c-0.479-0.42-1.151-0.627-2.026-0.627c-0.852,0-1.51,0.217-1.982,0.654c-0.471,0.438-0.715,1.02-0.74,1.747L175.535,283.479
		L175.535,283.479z"/>
	<path d="M180.844,287.779c-0.693-0.336-1.236-0.83-1.619-1.473c-0.389-0.645-0.58-1.408-0.58-2.289c0-0.889,0.191-1.649,0.58-2.293
		c0.387-0.645,0.928-1.141,1.629-1.487c0.699-0.347,1.502-0.521,2.407-0.521c1.234,0,2.218,0.244,2.96,0.723v1.394
		c-0.729-0.504-1.657-0.755-2.787-0.755c-0.92,0-1.661,0.246-2.227,0.746c-0.57,0.498-0.85,1.229-0.85,2.193
		c0,0.963,0.277,1.69,0.839,2.184c0.561,0.488,1.296,0.739,2.202,0.739c1.131,0,2.106-0.269,2.924-0.807v1.38
		c-0.393,0.271-0.834,0.463-1.332,0.59c-0.5,0.123-1.087,0.186-1.759,0.186C182.332,288.283,181.537,288.115,180.844,287.779z"/>
	<path d="M194.383,275.616h1.697v12.411h-1.697V275.616z"/>
	<path d="M199.195,287.166c-0.846-0.744-1.27-1.795-1.27-3.15c0-1.324,0.378-2.372,1.135-3.141c0.755-0.773,1.832-1.159,3.231-1.159
		c0.93,0,1.72,0.177,2.37,0.528c0.651,0.354,1.141,0.841,1.473,1.463c0.332,0.625,0.496,1.33,0.496,2.125v0.84h-7.092
		c0.055,0.762,0.379,1.33,0.969,1.707c0.588,0.375,1.385,0.563,2.395,0.563c0.512,0,1.034-0.047,1.559-0.143
		c0.525-0.095,0.992-0.221,1.395-0.378v1.36c-0.359,0.146-0.83,0.266-1.419,0.361c-0.588,0.096-1.168,0.144-1.735,0.144
		C201.209,288.283,200.041,287.911,199.195,287.166z M205.033,283.479c-0.021-0.762-0.271-1.352-0.746-1.771
		c-0.477-0.42-1.152-0.627-2.025-0.627c-0.852,0-1.511,0.217-1.982,0.654c-0.471,0.438-0.716,1.02-0.74,1.747L205.033,283.479
		L205.033,283.479z"/>
	<path d="M209.67,288.073c-0.627-0.14-1.123-0.327-1.477-0.563v-1.444c0.438,0.258,0.941,0.467,1.512,0.629
		c0.57,0.16,1.125,0.244,1.664,0.244c0.603,0,1.046-0.072,1.327-0.219c0.276-0.146,0.421-0.381,0.421-0.705
		c0-0.246-0.065-0.445-0.193-0.598c-0.13-0.15-0.347-0.287-0.656-0.411c-0.307-0.128-0.771-0.272-1.386-0.437
		c-0.659-0.19-1.183-0.384-1.571-0.58c-0.386-0.195-0.677-0.445-0.873-0.747c-0.193-0.303-0.294-0.694-0.294-1.176
		c0-0.773,0.307-1.358,0.919-1.757c0.607-0.396,1.431-0.598,2.461-0.598c0.539,0,1.064,0.051,1.582,0.151
		c0.513,0.103,0.928,0.245,1.242,0.423v1.412c-0.326-0.189-0.727-0.338-1.203-0.452c-0.479-0.111-0.961-0.167-1.453-0.167
		c-0.596,0-1.047,0.072-1.359,0.219s-0.471,0.402-0.471,0.772c0,0.235,0.068,0.425,0.201,0.569c0.132,0.148,0.35,0.274,0.648,0.376
		c0.295,0.106,0.771,0.247,1.418,0.416c1.018,0.276,1.728,0.61,2.124,0.991c0.396,0.381,0.599,0.906,0.599,1.579
		c0,0.694-0.285,1.249-0.857,1.663s-1.417,0.622-2.537,0.622C210.892,288.283,210.297,288.213,209.67,288.073z"/>
</g>
<g enable-background="new    ">
	<path d="M74.944,307.697c-0.59-0.503-0.884-1.178-0.884-2.028c0-0.896,0.282-1.588,0.849-2.075c0.568-0.486,1.369-0.73,2.41-0.73
		c1.108,0,2.05,0.224,2.822,0.672v-0.423c0-0.636-0.192-1.112-0.579-1.417c-0.388-0.308-0.994-0.461-1.822-0.461
		c-0.492,0-0.973,0.047-1.438,0.142c-0.465,0.096-0.882,0.228-1.252,0.394v-1.377c0.336-0.157,0.773-0.283,1.311-0.379
		c0.54-0.094,1.06-0.143,1.563-0.143c1.33,0,2.319,0.295,2.962,0.887c0.646,0.588,0.968,1.402,0.968,2.439v4.99h-1.595v-0.907
		c-0.347,0.381-0.759,0.669-1.237,0.865c-0.478,0.196-1.057,0.294-1.736,0.294C76.314,308.444,75.533,308.195,74.944,307.697z
		 M79.171,306.831c0.435-0.212,0.762-0.511,0.975-0.89v-1.093c-0.729-0.47-1.54-0.706-2.435-0.706c-0.65,0-1.133,0.127-1.452,0.379
		c-0.318,0.248-0.48,0.636-0.48,1.15c0,0.986,0.644,1.479,1.933,1.479C78.246,307.15,78.733,307.045,79.171,306.831z"/>
	<path d="M84.706,307.57c-0.555-0.582-0.832-1.356-0.832-2.334v-5.107h1.698v5.039c0,1.289,0.644,1.933,1.933,1.933
		c1.13,0,2.016-0.511,2.653-1.529v-5.442h1.697v8.064h-1.647v-1.146c-0.381,0.482-0.831,0.835-1.353,1.063
		c-0.521,0.221-1.086,0.335-1.688,0.335C86.08,308.444,85.26,308.153,84.706,307.57z"/>
	<path d="M95.256,307.738c-0.442-0.471-0.664-1.137-0.664-1.999v-4.301h-1.226v-1.31h1.226v-2.42h1.714v2.42h1.982v1.31h-1.982
		v4.184c0,0.54,0.103,0.919,0.311,1.146c0.207,0.221,0.585,0.336,1.133,0.336c0.326,0,0.65-0.072,0.977-0.219v1.344
		c-0.425,0.146-0.952,0.219-1.58,0.219C96.328,308.444,95.698,308.209,95.256,307.738z"/>
	<path d="M100.32,300.129h1.647v1.443c0.336-0.492,0.809-0.859,1.419-1.094c0.61-0.235,1.32-0.353,2.125-0.353v1.327
		c-0.862,0-1.602,0.137-2.218,0.42c-0.618,0.281-1.041,0.723-1.276,1.328v4.993h-1.697V300.129L100.32,300.129z"/>
	<path d="M107.452,307.326c-0.846-0.744-1.27-1.794-1.27-3.149c0-1.321,0.378-2.368,1.135-3.142c0.756-0.771,1.83-1.158,3.23-1.158
		c0.93,0,1.72,0.176,2.372,0.533c0.649,0.352,1.14,0.836,1.471,1.461c0.331,0.621,0.496,1.326,0.496,2.125v0.836h-7.091
		c0.056,0.764,0.378,1.33,0.967,1.707c0.588,0.375,1.386,0.563,2.395,0.563c0.514,0,1.035-0.044,1.561-0.144
		c0.526-0.094,0.991-0.219,1.393-0.377v1.359c-0.359,0.146-0.831,0.267-1.417,0.362c-0.588,0.099-1.168,0.143-1.738,0.143
		C109.466,308.444,108.298,308.072,107.452,307.326z M113.29,303.64c-0.02-0.762-0.271-1.353-0.745-1.769
		c-0.479-0.424-1.152-0.63-2.026-0.63c-0.852,0-1.511,0.22-1.982,0.657c-0.471,0.437-0.715,1.02-0.739,1.747h5.493V303.64
		L113.29,303.64z"/>
	<path d="M117.928,308.234c-0.628-0.141-1.121-0.328-1.478-0.563v-1.445c0.438,0.258,0.942,0.468,1.511,0.63
		c0.57,0.16,1.125,0.244,1.665,0.244c0.603,0,1.046-0.073,1.327-0.219c0.282-0.146,0.423-0.381,0.423-0.71
		c0-0.246-0.067-0.445-0.192-0.597c-0.131-0.151-0.347-0.288-0.656-0.411c-0.307-0.123-0.771-0.27-1.386-0.438
		c-0.66-0.189-1.184-0.383-1.57-0.579c-0.388-0.196-0.679-0.445-0.874-0.747c-0.195-0.303-0.294-0.69-0.294-1.176
		c0-0.772,0.307-1.356,0.917-1.756c0.609-0.397,1.431-0.599,2.462-0.599c0.539,0,1.065,0.051,1.581,0.155
		c0.514,0.102,0.928,0.241,1.242,0.42v1.411c-0.327-0.188-0.726-0.337-1.203-0.452c-0.478-0.111-0.96-0.167-1.452-0.167
		c-0.596,0-1.047,0.073-1.359,0.22c-0.313,0.146-0.471,0.398-0.471,0.771c0,0.236,0.067,0.426,0.2,0.571s0.351,0.272,0.648,0.378
		c0.296,0.104,0.771,0.244,1.419,0.412c1.018,0.276,1.728,0.61,2.123,0.99c0.396,0.381,0.599,0.908,0.599,1.58
		c0,0.694-0.285,1.248-0.857,1.663c-0.57,0.414-1.417,0.622-2.537,0.622C119.147,308.444,118.553,308.374,117.928,308.234z"/>
	<path d="M132.434,308.268c-0.656-0.117-1.189-0.276-1.604-0.479v-1.546c1.075,0.504,2.231,0.757,3.479,0.757
		c1.747,0,2.62-0.593,2.62-1.766c0-0.403-0.096-0.729-0.285-0.975c-0.19-0.248-0.465-0.463-0.823-0.647
		c-0.361-0.188-0.942-0.443-1.747-0.769c-1.108-0.447-1.91-0.939-2.403-1.474c-0.492-0.54-0.741-1.215-0.741-2.033
		c0-0.615,0.167-1.161,0.503-1.638c0.336-0.48,0.807-0.846,1.415-1.109c0.604-0.262,1.298-0.395,2.083-0.395
		c0.639,0,1.216,0.051,1.733,0.151c0.513,0.103,1.019,0.265,1.51,0.487v1.479c-0.975-0.438-1.961-0.657-2.957-0.657
		c-0.807,0-1.422,0.146-1.849,0.437c-0.426,0.291-0.638,0.707-0.638,1.243c0,0.37,0.092,0.681,0.276,0.933
		c0.188,0.248,0.46,0.477,0.826,0.672c0.364,0.195,0.905,0.439,1.619,0.731c0.796,0.325,1.422,0.632,1.881,0.923
		c0.457,0.291,0.807,0.646,1.051,1.064c0.241,0.424,0.361,0.947,0.361,1.571c0,1.019-0.364,1.809-1.093,2.368
		c-0.729,0.561-1.803,0.841-3.225,0.841C133.753,308.444,133.09,308.386,132.434,308.268z"/>
	<path d="M140.59,296.449h1.713v11.743h-1.713V296.449z M142.388,302.211l5.358-5.76h2.084l-5.359,5.76l5.697,5.984h-2.086
		L142.388,302.211z"/>
	<path d="M153.107,307.68c-0.941-0.511-1.677-1.229-2.218-2.159c-0.538-0.929-0.804-1.993-0.804-3.194
		c0-1.198,0.27-2.26,0.804-3.191c0.54-0.93,1.276-1.652,2.218-2.168c0.943-0.515,1.996-0.773,3.162-0.773
		c1.164,0,2.217,0.258,3.158,0.773c0.941,0.512,1.678,1.238,2.217,2.168s0.805,1.993,0.805,3.191c0,1.203-0.27,2.263-0.805,3.194
		c-0.537,0.931-1.275,1.647-2.217,2.159c-0.941,0.51-1.996,0.765-3.158,0.765C155.103,308.444,154.047,308.189,153.107,307.68z
		 M158.525,306.336c0.677-0.375,1.21-0.908,1.604-1.596c0.395-0.686,0.588-1.492,0.588-2.407c0-0.911-0.189-1.707-0.578-2.395
		c-0.388-0.688-0.916-1.22-1.59-1.596c-0.672-0.375-1.422-0.563-2.25-0.563c-0.841,0-1.6,0.186-2.277,0.551
		c-0.678,0.371-1.215,0.902-1.613,1.597c-0.396,0.694-0.598,1.495-0.598,2.406c0,0.919,0.196,1.722,0.588,2.407
		c0.395,0.688,0.927,1.221,1.604,1.596c0.681,0.375,1.431,0.563,2.26,0.563C157.094,306.898,157.847,306.711,158.525,306.336z"/>
	<path d="M166.898,307.68c-0.94-0.511-1.676-1.229-2.217-2.159c-0.537-0.929-0.805-1.993-0.805-3.194
		c0-1.198,0.271-2.26,0.805-3.191c0.539-0.931,1.276-1.652,2.217-2.168c0.943-0.515,1.996-0.773,3.16-0.773
		c1.166,0,2.219,0.258,3.16,0.773c0.941,0.512,1.679,1.238,2.219,2.168c0.539,0.93,0.805,1.993,0.805,3.191
		c0,1.203-0.27,2.263-0.805,3.194c-0.539,0.933-1.277,1.647-2.219,2.159c-0.941,0.51-1.994,0.765-3.16,0.765
		C168.895,308.444,167.84,308.189,166.898,307.68z M172.316,306.336c0.678-0.375,1.211-0.908,1.605-1.596
		c0.393-0.686,0.588-1.492,0.588-2.407c0-0.911-0.191-1.707-0.58-2.395c-0.387-0.688-0.916-1.22-1.588-1.596
		c-0.672-0.375-1.422-0.563-2.252-0.563c-0.84,0-1.598,0.186-2.275,0.551c-0.678,0.371-1.215,0.902-1.617,1.597
		c-0.396,0.694-0.596,1.495-0.596,2.406c0,0.919,0.193,1.722,0.588,2.407c0.395,0.688,0.925,1.221,1.604,1.596
		c0.678,0.375,1.432,0.563,2.261,0.563C170.886,306.898,171.639,306.711,172.316,306.336z"/>
	<path d="M178.088,296.449h1.629l5.98,8.852v-8.852h1.731v11.743h-1.648l-5.979-8.854v8.854h-1.713V296.449L178.088,296.449z"/>
	<path d="M189.611,296.449h7.745v1.443h-6.032v3.717h4.504v1.428h-4.504v3.73h6.032v1.428h-7.745V296.449z"/>
	<path d="M199.121,296.449h4.721c1.254,0,2.217,0.303,2.891,0.906c0.671,0.605,1.006,1.49,1.006,2.654
		c0,0.863-0.229,1.594-0.688,2.193c-0.46,0.6-1.109,1.007-1.949,1.218l2.588,4.771h-1.783l-2.501-4.638h-2.571v4.638h-1.713V296.449
		L199.121,296.449z M203.556,302.11c0.751,0,1.347-0.177,1.79-0.529c0.445-0.353,0.663-0.876,0.663-1.571
		c0-0.76-0.217-1.304-0.647-1.629c-0.43-0.324-1.033-0.486-1.806-0.486h-2.722v4.216H203.556z"/>
	<path d="M210.855,308.268c-0.655-0.117-1.188-0.276-1.604-0.479v-1.546c1.074,0.504,2.233,0.757,3.479,0.757
		c1.747,0,2.621-0.593,2.621-1.766c0-0.403-0.098-0.729-0.286-0.975c-0.189-0.248-0.463-0.463-0.823-0.647
		c-0.359-0.188-0.942-0.443-1.747-0.769c-1.108-0.447-1.909-0.939-2.404-1.474c-0.492-0.54-0.739-1.215-0.739-2.033
		c0-0.615,0.168-1.161,0.504-1.638c0.336-0.48,0.807-0.846,1.414-1.109c0.604-0.262,1.297-0.395,2.085-0.395
		c0.639,0,1.214,0.051,1.734,0.151c0.511,0.103,1.016,0.265,1.508,0.487v1.479c-0.976-0.438-1.96-0.657-2.958-0.657
		c-0.805,0-1.421,0.146-1.85,0.437c-0.422,0.291-0.638,0.707-0.638,1.243c0,0.37,0.093,0.681,0.277,0.933
		c0.187,0.248,0.458,0.477,0.823,0.672s0.904,0.439,1.621,0.731c0.795,0.325,1.421,0.632,1.881,0.923
		c0.458,0.291,0.807,0.646,1.051,1.064c0.24,0.424,0.361,0.947,0.361,1.571c0,1.019-0.365,1.809-1.093,2.368
		c-0.729,0.561-1.802,0.841-3.226,0.841C212.174,308.444,211.51,308.386,210.855,308.268z"/>
	<path d="M218.902,307.965c-0.151-0.15-0.225-0.338-0.225-0.566c0-0.221,0.073-0.414,0.225-0.568
		c0.154-0.156,0.338-0.235,0.565-0.235c0.221,0,0.415,0.077,0.569,0.235c0.16,0.156,0.235,0.348,0.235,0.568
		c0,0.225-0.075,0.416-0.235,0.566c-0.156,0.151-0.348,0.228-0.569,0.228C219.24,308.192,219.054,308.116,218.902,307.965z"/>
</g>
<path fill="none" stroke="#000000" stroke-width="3" stroke-linecap="round" stroke-miterlimit="10" d="M173.588,111.839h-4.705"/>
<path fill="#020202" stroke="#000000" stroke-width="3" stroke-linecap="round" stroke-miterlimit="10" d="M160.493,111.839h-4.862"
	/>
</svg>
