<?xml version="1.0" encoding="utf-8"?>
<!-- Generator: Adobe Illustrator 16.0.0, SVG Export Plug-In . SVG Version: 6.00 Build 0)  -->
<!DOCTYPE svg PUBLIC "-//W3C//DTD SVG 1.1//EN" "http://www.w3.org/Graphics/SVG/1.1/DTD/svg11.dtd">
<svg version="1.1" id="Calque_1" xmlns="http://www.w3.org/2000/svg" xmlns:xlink="http://www.w3.org/1999/xlink" x="0px" y="0px"
	 width="170.079px" height="226.772px" viewBox="60.46 63.605 170.079 226.772"
	 enable-background="new 60.46 63.605 170.079 226.772" xml:space="preserve">
<g>
	<path d="M175.372,140.75c-0.001-6.466-0.021-12.936,0.007-19.403c0.021-5.359,1.734-7.188,6.939-7.223
		c8.436-0.058,16.873-0.082,25.309,0.012c5.787,0.064,7.276,1.6,7.293,7.272c0.036,13.076,0.037,26.152,0,39.227
		c-0.018,5.548-1.562,7.106-6.914,7.124c-8.717,0.027-17.436,0.04-26.15-0.004c-4.568-0.023-6.41-1.799-6.461-6.334
		C175.313,154.529,175.372,147.641,175.372,140.75z M179.4,118.461c0,14.151,0,28.065,0,41.918c10.732,0,21.053,0,31.449,0
		c0-14.104,0-27.924,0-41.918C200.211,118.461,189.887,118.461,179.4,118.461z"/>
	<path d="M173.49,141.82c0,3.135,0,5.931,0,9.04c-22.939,0-45.771,0-68.877,0c0-2.974,0-5.86,0-9.04
		C127.538,141.82,150.467,141.82,173.49,141.82z"/>
	<path d="M177.847,111.537c0-4.503-0.067-8.843,0.017-13.18c0.078-3.847-1.492-5.573-5.527-5.555
		c-22.496,0.104-44.991,0.099-67.486,0.005c-3.969-0.017-5.59,1.531-5.544,5.496c0.121,10.109,0.041,20.22,0.041,30.567
		c-3.678-0.055-3.907-0.038-3.907-0.038c0.046-9.561-0.115-21.451,0.075-31.008c0.116-5.826,3.262-8.688,9.082-8.698
		c22.776-0.034,45.553-0.034,68.33-0.002c5.705,0.008,8.826,3.008,9.081,8.767c0.161,3.648-0.082,9.964,0.077,13.613
		C182.085,111.507,181.016,111.605,177.847,111.537z"/>
	<path d="M79.072,149.263c0-3.649-0.017-7.3,0.004-10.95c0.03-5.272,1.829-7.138,6.951-7.214c3.368-0.05,6.739-0.009,10.105-0.099
		c3.992-0.106,6.264,2.07,6.376,5.745c0.254,8.415,0.235,16.847-0.008,25.265c-0.102,3.526-2.443,5.608-6.084,5.714
		c-3.645,0.107-7.303,0.147-10.945-0.003c-4.3-0.178-6.317-2.353-6.387-6.665C79.023,157.128,79.072,153.196,79.072,149.263z
		 M99.817,162.369c0-8.951,0-17.42,0-25.989c-6.152,0-11.967,0-17.983,0c0,8.766,0,17.25,0,25.989
		C87.874,162.369,93.692,162.369,99.817,162.369z"/>
	<path d="M125.605,167.492L125.605,167.492l-0.104-4.188l4.477-0.086c1.156-3.637,2.437-8.776,2.437-8.776l12.411-0.07
		c0,0,1.358,4.682,3.016,8.846l3.898,0.083l-0.01,4.186l0,0"/>
	<path fill="#FFFFFF" d="M179.4,118.461c10.484,0,20.809,0,31.449,0c0,13.996,0,27.815,0,41.918c-10.396,0-20.717,0-31.449,0
		C179.4,146.526,179.4,132.612,179.4,118.461z"/>
	<path fill="#FFFFFF" d="M99.817,162.369c-6.125,0-11.943,0-17.983,0c0-8.739,0-17.223,0-25.989c6.018,0,11.831,0,17.983,0
		C99.817,144.948,99.817,153.418,99.817,162.369z"/>
	<circle fill="#FEFEFE" cx="195.125" cy="164.017" r="2.043"/>
	<circle fill="#FEFEFE" cx="201.255" cy="164.017" r="2.043"/>
	<circle fill="#FEFEFE" cx="188.371" cy="164.017" r="2.043"/>
	<circle fill="#FEFEFE" cx="90.871" cy="164.969" r="1.646"/>
	<path fill="#FCFCFC" d="M95.157,133.341c0-0.303-0.245-0.547-0.545-0.547H87.22c-0.301,0-0.545,0.245-0.545,0.547l0,0
		c0,0.3,0.244,0.543,0.545,0.543h7.393C94.915,133.884,95.157,133.642,95.157,133.341L95.157,133.341z"/>
	<circle fill="#FEFEFE" cx="138.752" cy="146.135" r="2.042"/>
	<path fill="#FFFFFF" d="M99.405,131.607c1.966,0.859,3.058,2.674,3.135,5.192c0.051,1.69,0.091,3.382,0.121,5.074
		c22.929,0,49.72,0,72.743,0c0-6.466-0.018-14.006,0.009-20.473c0.015-3.349,0.688-5.319,2.463-6.335l0.01-0.017
		c0-4.503-0.07-12.301,0.017-16.636c0.079-3.848-1.493-5.573-5.528-5.555c-22.496,0.102-44.993,0.098-67.488,0.004
		c-3.969-0.017-5.589,1.532-5.543,5.496c0.119,10.108,0.04,22.969,0.04,33.317L99.405,131.607z"/>
</g>
<g enable-background="new    ">
	<path d="M85.026,224.721c-0.941-0.506-1.674-1.215-2.201-2.144c-0.526-0.923-0.79-1.997-0.79-3.218c0-1.22,0.263-2.295,0.79-3.225
		c0.527-0.929,1.26-1.646,2.201-2.149c0.941-0.505,2.017-0.757,3.226-0.757c1.613,0,2.962,0.41,4.048,1.227v1.648
		c-0.975-0.86-2.273-1.295-3.897-1.295c-0.906,0-1.709,0.187-2.409,0.553c-0.7,0.371-1.246,0.9-1.639,1.59
		c-0.393,0.686-0.588,1.495-0.588,2.411c0,0.919,0.198,1.725,0.597,2.416c0.397,0.694,0.947,1.226,1.646,1.597
		c0.7,0.367,1.5,0.554,2.394,0.554c0.83,0,1.571-0.109,2.228-0.329c0.656-0.219,1.263-0.568,1.823-1.05v1.663
		c-1.007,0.84-2.407,1.262-4.2,1.262C87.042,225.477,85.966,225.224,85.026,224.721z"/>
	<path d="M95.736,224.963c-0.688-0.342-1.227-0.834-1.614-1.479c-0.387-0.645-0.58-1.402-0.58-2.276
		c0-0.861,0.189-1.618,0.571-2.267c0.38-0.649,0.919-1.152,1.613-1.502c0.694-0.355,1.495-0.531,2.403-0.531
		c0.907,0,1.707,0.176,2.403,0.531c0.694,0.353,1.235,0.854,1.621,1.502c0.386,0.649,0.579,1.405,0.579,2.267
		c0,0.874-0.192,1.632-0.579,2.276c-0.387,0.645-0.926,1.137-1.621,1.479s-1.496,0.512-2.403,0.512
		C97.223,225.477,96.424,225.305,95.736,224.963z M100.212,223.324c0.515-0.539,0.772-1.242,0.772-2.116
		c0-0.907-0.257-1.622-0.772-2.149c-0.515-0.525-1.21-0.79-2.083-0.79c-0.873,0-1.567,0.265-2.084,0.79
		c-0.515,0.527-0.772,1.242-0.772,2.149c0,0.874,0.257,1.579,0.772,2.116c0.515,0.538,1.21,0.804,2.084,0.804
		C99.003,224.131,99.698,223.862,100.212,223.324z"/>
	<path d="M104.58,217.16h1.647v1.158c0.38-0.482,0.849-0.836,1.403-1.065s1.134-0.345,1.738-0.345c1.076,0,1.876,0.285,2.403,0.859
		s0.791,1.34,0.791,2.303v5.157h-1.698v-4.993c0-1.307-0.627-1.966-1.881-1.966c-0.539,0-1.039,0.126-1.503,0.378
		c-0.466,0.252-0.865,0.636-1.202,1.15v5.431h-1.697V217.16L104.58,217.16z"/>
	<path d="M115.854,225.266c-0.627-0.139-1.121-0.328-1.478-0.563v-1.444c0.436,0.254,0.94,0.468,1.511,0.627
		c0.571,0.161,1.125,0.247,1.664,0.247c0.604,0,1.047-0.072,1.327-0.219c0.28-0.146,0.42-0.381,0.42-0.707
		c0-0.248-0.064-0.444-0.192-0.598c-0.13-0.152-0.348-0.289-0.656-0.412c-0.307-0.123-0.771-0.269-1.385-0.438
		c-0.66-0.189-1.184-0.383-1.57-0.579c-0.387-0.192-0.678-0.444-0.874-0.743c-0.195-0.307-0.294-0.694-0.294-1.18
		c0-0.773,0.306-1.357,0.916-1.756c0.611-0.395,1.43-0.598,2.461-0.598c0.539,0,1.065,0.049,1.58,0.152
		c0.514,0.102,0.929,0.242,1.243,0.42v1.414c-0.325-0.189-0.726-0.34-1.202-0.451c-0.477-0.111-0.961-0.166-1.453-0.166
		c-0.594,0-1.047,0.072-1.36,0.219c-0.314,0.145-0.472,0.4-0.472,0.771c0,0.235,0.069,0.424,0.202,0.57
		c0.134,0.145,0.35,0.271,0.646,0.377c0.298,0.104,0.771,0.244,1.42,0.412c1.019,0.277,1.728,0.61,2.125,0.991
		c0.396,0.381,0.597,0.907,0.597,1.579c0,0.694-0.285,1.249-0.857,1.663c-0.57,0.417-1.417,0.626-2.537,0.626
		C117.074,225.477,116.48,225.405,115.854,225.266z"/>
	<path d="M123.624,224.604c-0.555-0.583-0.832-1.358-0.832-2.336v-5.107h1.697v5.039c0,1.289,0.644,1.934,1.933,1.934
		c1.13,0,2.016-0.51,2.655-1.53v-5.442h1.696v8.064h-1.647v-1.143c-0.381,0.48-0.832,0.831-1.352,1.059
		c-0.521,0.225-1.084,0.336-1.688,0.336C124.998,225.477,124.177,225.186,123.624,224.604z"/>
	<path d="M132.957,212.809h1.697v12.415h-1.697V212.809z"/>
	<path d="M138.054,224.77c-0.442-0.471-0.663-1.137-0.663-1.998v-4.302h-1.226v-1.31h1.226v-2.419h1.713v2.419h1.982v1.31h-1.982
		v4.184c0,0.54,0.103,0.919,0.311,1.146c0.207,0.221,0.585,0.335,1.133,0.335c0.325,0,0.65-0.072,0.975-0.219v1.344
		c-0.424,0.146-0.95,0.219-1.579,0.219C139.127,225.477,138.497,225.241,138.054,224.77z"/>
	<path d="M144.051,224.357c-0.845-0.743-1.269-1.793-1.269-3.149c0-1.321,0.377-2.368,1.133-3.14c0.756-0.773,1.834-1.16,3.234-1.16
		c0.93,0,1.719,0.176,2.369,0.533c0.651,0.352,1.14,0.836,1.472,1.461c0.331,0.623,0.496,1.326,0.496,2.125v0.837h-7.09
		c0.056,0.762,0.379,1.329,0.967,1.707c0.588,0.376,1.385,0.565,2.394,0.565c0.515,0,1.036-0.047,1.561-0.143
		c0.528-0.098,0.991-0.22,1.394-0.379v1.359c-0.358,0.145-0.832,0.267-1.418,0.363c-0.59,0.097-1.168,0.143-1.738,0.143
		C146.065,225.477,144.897,225.104,144.051,224.357z M149.89,220.671c-0.021-0.762-0.271-1.356-0.747-1.772
		c-0.477-0.42-1.151-0.63-2.025-0.63c-0.852,0-1.512,0.22-1.982,0.657c-0.47,0.437-0.715,1.018-0.74,1.745H149.89L149.89,220.671z"
		/>
	<path d="M159.551,212.809h1.697v12.415h-1.697V212.809z"/>
	<path d="M164.363,224.357c-0.846-0.743-1.269-1.793-1.269-3.149c0-1.321,0.378-2.368,1.134-3.14c0.756-0.773,1.833-1.16,3.232-1.16
		c0.93,0,1.721,0.176,2.371,0.533c0.649,0.352,1.139,0.836,1.47,1.461c0.333,0.623,0.495,1.326,0.495,2.125v0.837h-7.089
		c0.056,0.762,0.378,1.329,0.966,1.707s1.386,0.565,2.395,0.565c0.514,0,1.035-0.047,1.562-0.143
		c0.526-0.098,0.991-0.22,1.394-0.379v1.359c-0.359,0.145-0.832,0.267-1.418,0.363c-0.588,0.097-1.168,0.143-1.738,0.143
		C166.376,225.477,165.209,225.104,164.363,224.357z M170.199,220.671c-0.021-0.762-0.271-1.356-0.746-1.772
		c-0.477-0.42-1.15-0.63-2.024-0.63c-0.853,0-1.513,0.22-1.982,0.657c-0.47,0.437-0.716,1.018-0.74,1.745H170.199L170.199,220.671z"
		/>
	<path d="M174.838,225.266c-0.627-0.139-1.121-0.328-1.48-0.563v-1.444c0.438,0.254,0.943,0.468,1.513,0.627
		c0.571,0.161,1.126,0.247,1.664,0.247c0.604,0,1.048-0.072,1.327-0.219c0.281-0.146,0.422-0.381,0.422-0.707
		c0-0.248-0.066-0.444-0.193-0.598c-0.131-0.152-0.348-0.289-0.656-0.412c-0.307-0.123-0.771-0.269-1.385-0.438
		c-0.659-0.189-1.183-0.383-1.57-0.579c-0.387-0.192-0.678-0.444-0.873-0.743c-0.195-0.307-0.295-0.694-0.295-1.18
		c0-0.773,0.307-1.357,0.917-1.756c0.61-0.395,1.431-0.598,2.462-0.598c0.537,0,1.064,0.049,1.579,0.152
		c0.515,0.102,0.93,0.242,1.243,0.42v1.414c-0.325-0.189-0.727-0.34-1.201-0.451c-0.479-0.111-0.961-0.166-1.453-0.166
		c-0.596,0-1.048,0.072-1.36,0.219c-0.313,0.145-0.472,0.4-0.472,0.771c0,0.235,0.068,0.424,0.201,0.57
		c0.135,0.145,0.351,0.271,0.646,0.377c0.298,0.104,0.771,0.244,1.422,0.412c1.018,0.277,1.727,0.61,2.124,0.991
		c0.396,0.381,0.597,0.907,0.597,1.579c0,0.694-0.285,1.249-0.857,1.663c-0.57,0.417-1.416,0.626-2.537,0.626
		C176.059,225.477,175.463,225.405,174.838,225.266z"/>
</g>
<g enable-background="new    ">
	<path d="M83.304,244.519c-0.846-0.743-1.269-1.794-1.269-3.149c0-1.322,0.379-2.369,1.135-3.141
		c0.755-0.773,1.833-1.156,3.233-1.156c0.929,0,1.72,0.176,2.37,0.529c0.65,0.353,1.139,0.84,1.47,1.461
		c0.331,0.626,0.496,1.33,0.496,2.125v0.841h-7.091c0.056,0.762,0.378,1.327,0.966,1.707c0.588,0.372,1.386,0.563,2.394,0.563
		c0.516,0,1.036-0.047,1.563-0.142c0.526-0.097,0.991-0.222,1.395-0.379v1.36c-0.361,0.146-0.832,0.266-1.42,0.362
		c-0.588,0.095-1.167,0.142-1.738,0.142C85.317,245.636,84.15,245.264,83.304,244.519z M89.142,240.832
		c-0.021-0.762-0.271-1.354-0.746-1.773c-0.478-0.42-1.152-0.629-2.025-0.629c-0.852,0-1.512,0.219-1.982,0.656
		c-0.472,0.438-0.716,1.02-0.741,1.748L89.142,240.832L89.142,240.832z M86.639,233.523h1.796l-1.393,2.889h-1.546L86.639,233.523z"
		/>
	<path d="M91.577,237.32h1.797l2.37,5.795l2.368-5.795h1.797l-3.427,8.064h-1.478L91.577,237.32z"/>
	<path d="M102.018,244.519c-0.845-0.743-1.269-1.794-1.269-3.149c0-1.322,0.378-2.369,1.134-3.141
		c0.756-0.773,1.834-1.156,3.234-1.156c0.929,0,1.719,0.176,2.369,0.529c0.65,0.353,1.141,0.84,1.471,1.461
		c0.331,0.626,0.496,1.33,0.496,2.125v0.841h-7.09c0.056,0.762,0.379,1.327,0.967,1.707c0.588,0.372,1.385,0.563,2.394,0.563
		c0.515,0,1.036-0.047,1.561-0.142c0.526-0.097,0.991-0.222,1.395-0.379v1.36c-0.359,0.146-0.832,0.266-1.419,0.362
		c-0.588,0.095-1.168,0.142-1.738,0.142C104.032,245.636,102.865,245.264,102.018,244.519z M107.856,240.832
		c-0.021-0.762-0.271-1.354-0.747-1.773c-0.476-0.42-1.151-0.629-2.024-0.629c-0.852,0-1.512,0.219-1.982,0.656
		s-0.717,1.02-0.74,1.748L107.856,240.832L107.856,240.832z M105.354,233.523h1.797l-1.394,2.889h-1.545L105.354,233.523z"/>
	<path d="M111.301,237.32h1.647v1.158c0.381-0.481,0.849-0.836,1.404-1.064c0.554-0.227,1.133-0.342,1.737-0.342
		c1.075,0,1.877,0.282,2.404,0.859c0.526,0.569,0.789,1.336,0.789,2.299v5.158h-1.696v-4.99c0-1.311-0.627-1.969-1.882-1.969
		c-0.538,0-1.038,0.129-1.503,0.377c-0.465,0.252-0.865,0.637-1.201,1.152v5.426h-1.698L111.301,237.32L111.301,237.32z"/>
	<path d="M122.313,244.519c-0.845-0.743-1.269-1.794-1.269-3.149c0-1.322,0.378-2.369,1.134-3.141
		c0.756-0.773,1.833-1.156,3.233-1.156c0.93,0,1.72,0.176,2.37,0.529c0.65,0.353,1.14,0.84,1.471,1.461
		c0.331,0.626,0.496,1.33,0.496,2.125v0.841h-7.09c0.056,0.762,0.379,1.327,0.967,1.707c0.588,0.372,1.385,0.563,2.394,0.563
		c0.514,0,1.035-0.047,1.561-0.142c0.526-0.097,0.991-0.222,1.395-0.379v1.36c-0.359,0.146-0.832,0.266-1.419,0.362
		c-0.588,0.095-1.168,0.142-1.738,0.142C124.326,245.636,123.159,245.264,122.313,244.519z M128.15,240.832
		c-0.021-0.762-0.271-1.354-0.747-1.773c-0.476-0.42-1.15-0.629-2.024-0.629c-0.852,0-1.512,0.219-1.982,0.656
		c-0.47,0.438-0.717,1.02-0.74,1.748L128.15,240.832L128.15,240.832z"/>
	<path d="M131.595,237.32h1.613v1.158c0.381-0.47,0.812-0.822,1.294-1.058c0.481-0.235,0.979-0.353,1.496-0.353
		c0.649,0,1.165,0.108,1.545,0.327c0.38,0.219,0.661,0.552,0.84,0.999c0.358-0.436,0.797-0.767,1.318-0.99
		c0.521-0.22,1.044-0.336,1.57-0.336c0.986,0,1.697,0.25,2.135,0.748c0.436,0.498,0.656,1.234,0.656,2.205v5.359h-1.647v-5.145
		c0-0.657-0.124-1.125-0.369-1.402c-0.247-0.275-0.666-0.412-1.261-0.412c-0.852,0-1.546,0.369-2.084,1.109
		c0.021,0.166,0.034,0.441,0.034,0.822v5.027h-1.647v-5.145c0-0.657-0.112-1.125-0.335-1.402c-0.224-0.275-0.627-0.412-1.21-0.412
		c-0.851,0-1.613,0.482-2.285,1.445v5.51h-1.664V237.32L131.595,237.32z"/>
	<path d="M147.093,244.519c-0.846-0.743-1.269-1.794-1.269-3.149c0-1.322,0.378-2.369,1.135-3.141
		c0.756-0.773,1.834-1.156,3.233-1.156c0.929,0,1.719,0.176,2.37,0.529c0.649,0.353,1.139,0.84,1.47,1.461
		c0.331,0.626,0.495,1.33,0.495,2.125v0.841h-7.089c0.056,0.762,0.377,1.327,0.966,1.707c0.59,0.372,1.385,0.563,2.395,0.563
		c0.514,0,1.034-0.047,1.562-0.142c0.526-0.097,0.99-0.222,1.394-0.379v1.36c-0.36,0.146-0.831,0.266-1.418,0.362
		c-0.588,0.095-1.168,0.142-1.738,0.142C149.106,245.636,147.938,245.264,147.093,244.519z M152.932,240.832
		c-0.022-0.762-0.273-1.354-0.746-1.773c-0.479-0.42-1.152-0.629-2.025-0.629c-0.854,0-1.513,0.219-1.982,0.656
		c-0.473,0.438-0.716,1.02-0.741,1.748L152.932,240.832L152.932,240.832z"/>
	<path d="M156.375,237.32h1.647v1.158c0.38-0.481,0.848-0.836,1.403-1.064c0.553-0.227,1.133-0.342,1.736-0.342
		c1.075,0,1.878,0.282,2.404,0.859c0.526,0.568,0.789,1.336,0.789,2.299v5.158h-1.697v-4.99c0-1.311-0.627-1.969-1.881-1.969
		c-0.538,0-1.037,0.129-1.502,0.377c-0.465,0.252-0.865,0.637-1.201,1.152v5.426h-1.697v-8.064H156.375z"/>
	<path d="M167.672,244.93c-0.443-0.47-0.664-1.136-0.664-1.997v-4.302h-1.227v-1.311h1.227v-2.418h1.715v2.418h1.982v1.311h-1.982
		v4.186c0,0.539,0.102,0.919,0.309,1.142c0.209,0.224,0.586,0.335,1.133,0.335c0.326,0,0.652-0.072,0.977-0.219v1.344
		c-0.426,0.146-0.951,0.219-1.579,0.219C168.745,245.636,168.113,245.4,167.672,244.93z"/>
	<path d="M173.595,245.426c-0.628-0.139-1.121-0.328-1.479-0.563v-1.443c0.437,0.256,0.94,0.467,1.511,0.627
		c0.572,0.16,1.127,0.246,1.664,0.246c0.604,0,1.047-0.072,1.328-0.219c0.277-0.146,0.42-0.381,0.42-0.705
		c0-0.248-0.064-0.445-0.193-0.598c-0.13-0.154-0.348-0.289-0.656-0.412c-0.308-0.126-0.771-0.271-1.385-0.438
		c-0.66-0.189-1.184-0.386-1.57-0.579c-0.389-0.196-0.68-0.448-0.875-0.746c-0.195-0.304-0.293-0.694-0.293-1.177
		c0-0.772,0.307-1.357,0.916-1.76c0.611-0.393,1.43-0.596,2.461-0.596c0.539,0,1.064,0.049,1.58,0.151
		c0.514,0.103,0.93,0.243,1.242,0.423v1.412c-0.324-0.189-0.725-0.342-1.201-0.452c-0.477-0.112-0.961-0.168-1.453-0.168
		c-0.595,0-1.047,0.073-1.36,0.22c-0.313,0.145-0.47,0.402-0.47,0.773c0,0.234,0.066,0.422,0.201,0.568s0.35,0.275,0.646,0.378
		c0.296,0.104,0.771,0.247,1.42,0.411c1.019,0.279,1.728,0.611,2.125,0.991c0.396,0.381,0.598,0.911,0.598,1.583
		c0,0.691-0.287,1.245-0.857,1.664c-0.572,0.414-1.417,0.621-2.538,0.621C174.815,245.636,174.223,245.566,173.595,245.426z"/>
	<path d="M187.766,244.519c-0.846-0.743-1.27-1.794-1.27-3.149c0-1.322,0.378-2.369,1.135-3.141
		c0.756-0.773,1.834-1.156,3.233-1.156c0.93,0,1.719,0.176,2.368,0.529c0.651,0.353,1.141,0.84,1.472,1.461
		c0.331,0.626,0.495,1.33,0.495,2.125v0.841h-7.09c0.057,0.762,0.378,1.327,0.966,1.707c0.588,0.372,1.386,0.563,2.394,0.563
		c0.516,0,1.036-0.047,1.563-0.142c0.526-0.097,0.991-0.222,1.395-0.379v1.36c-0.36,0.146-0.832,0.266-1.418,0.362
		c-0.589,0.095-1.168,0.142-1.738,0.142C189.777,245.636,188.61,245.264,187.766,244.519z M193.604,240.832
		c-0.022-0.762-0.271-1.354-0.748-1.773c-0.475-0.42-1.15-0.629-2.025-0.629c-0.85,0-1.512,0.219-1.982,0.656
		c-0.47,0.438-0.715,1.02-0.738,1.748L193.604,240.832L193.604,240.832z"/>
	<path d="M198.264,244.93c-0.442-0.47-0.662-1.136-0.662-1.997v-4.302h-1.227v-1.311h1.227v-2.418h1.713v2.418h1.982v1.311h-1.982
		v4.186c0,0.539,0.102,0.919,0.309,1.142c0.208,0.224,0.586,0.335,1.135,0.335c0.324,0,0.649-0.072,0.977-0.219v1.344
		c-0.426,0.146-0.953,0.219-1.58,0.219C199.338,245.636,198.707,245.4,198.264,244.93z"/>
</g>
<g enable-background="new    ">
	<path d="M82.917,265.048c-0.588-0.499-0.882-1.173-0.882-2.024c0-0.896,0.282-1.59,0.848-2.075c0.566-0.487,1.37-0.731,2.411-0.731
		c1.109,0,2.05,0.221,2.821,0.672v-0.422c0-0.639-0.191-1.112-0.58-1.418c-0.386-0.307-0.994-0.461-1.823-0.461
		c-0.493,0-0.972,0.045-1.437,0.143c-0.465,0.097-0.883,0.227-1.251,0.395v-1.377c0.335-0.159,0.773-0.283,1.31-0.379
		c0.538-0.096,1.058-0.143,1.562-0.143c1.333,0,2.32,0.294,2.965,0.882c0.645,0.589,0.966,1.404,0.966,2.444v4.99h-1.596v-0.908
		c-0.347,0.381-0.759,0.67-1.235,0.866c-0.477,0.191-1.055,0.294-1.739,0.294C84.286,265.795,83.506,265.546,82.917,265.048z
		 M87.142,264.182c0.438-0.212,0.762-0.509,0.975-0.889v-1.092c-0.729-0.471-1.54-0.706-2.435-0.706
		c-0.649,0-1.133,0.126-1.453,0.374c-0.319,0.252-0.479,0.636-0.479,1.152c0,0.984,0.644,1.474,1.932,1.474
		C86.219,264.502,86.706,264.396,87.142,264.182z"/>
	<path d="M93.459,265.291c-0.693-0.334-1.236-0.826-1.62-1.47c-0.387-0.644-0.58-1.408-0.58-2.294c0-0.885,0.192-1.646,0.58-2.289
		c0.386-0.644,0.93-1.139,1.629-1.486c0.7-0.348,1.502-0.521,2.411-0.521c1.232,0,2.217,0.244,2.957,0.723v1.391
		c-0.729-0.504-1.658-0.756-2.789-0.756c-0.919,0-1.661,0.248-2.226,0.748c-0.567,0.498-0.849,1.229-0.849,2.191
		c0,0.968,0.279,1.691,0.839,2.184c0.561,0.493,1.295,0.744,2.202,0.744c1.132,0,2.106-0.271,2.924-0.807v1.377
		c-0.392,0.272-0.837,0.465-1.335,0.59c-0.499,0.125-1.084,0.188-1.756,0.188C94.948,265.795,94.153,265.627,93.459,265.291z"/>
	<path d="M102.002,265.09c-0.442-0.475-0.663-1.137-0.663-2v-4.301h-1.227v-1.31h1.227v-2.42h1.712v2.42h1.982v1.31h-1.982v4.184
		c0,0.537,0.104,0.919,0.311,1.143c0.208,0.225,0.585,0.336,1.135,0.336c0.324,0,0.649-0.072,0.974-0.219v1.344
		c-0.425,0.146-0.951,0.219-1.579,0.219C103.074,265.795,102.444,265.561,102.002,265.09z"/>
	<path d="M107.731,264.922c-0.555-0.582-0.832-1.361-0.832-2.335v-5.107h1.697v5.036c0,1.292,0.645,1.936,1.934,1.936
		c1.13,0,2.015-0.51,2.653-1.531v-5.44h1.697v8.065h-1.647v-1.143c-0.381,0.482-0.832,0.834-1.353,1.059
		c-0.521,0.224-1.084,0.336-1.688,0.336C109.106,265.795,108.285,265.504,107.731,264.922z"/>
	<path d="M117.356,265.048c-0.588-0.499-0.882-1.173-0.882-2.024c0-0.896,0.282-1.59,0.849-2.075
		c0.565-0.487,1.369-0.731,2.409-0.731c1.109,0,2.05,0.221,2.822,0.672v-0.422c0-0.639-0.192-1.112-0.579-1.418
		c-0.386-0.307-0.994-0.461-1.823-0.461c-0.492,0-0.972,0.045-1.436,0.143c-0.465,0.097-0.883,0.227-1.251,0.395v-1.377
		c0.335-0.159,0.772-0.283,1.31-0.379c0.538-0.096,1.059-0.143,1.561-0.143c1.333,0,2.32,0.294,2.965,0.882
		c0.644,0.589,0.966,1.404,0.966,2.444v4.99h-1.596v-0.908c-0.347,0.381-0.759,0.67-1.235,0.866
		c-0.477,0.191-1.056,0.294-1.738,0.294C118.727,265.795,117.945,265.546,117.356,265.048z M121.583,264.182
		c0.436-0.212,0.761-0.509,0.974-0.889v-1.092c-0.729-0.471-1.54-0.706-2.435-0.706c-0.651,0-1.134,0.126-1.453,0.374
		c-0.32,0.252-0.48,0.636-0.48,1.152c0,0.984,0.644,1.474,1.933,1.474C120.659,264.502,121.145,264.396,121.583,264.182z"/>
	<path d="M126.37,253.128h1.697v12.415h-1.697V253.128z"/>
	<path d="M130.536,255.615c-0.19-0.191-0.286-0.426-0.286-0.707c0-0.279,0.095-0.514,0.286-0.705
		c0.189-0.191,0.424-0.287,0.706-0.287c0.291,0,0.535,0.098,0.73,0.287c0.196,0.188,0.294,0.422,0.294,0.705
		c0,0.276-0.098,0.512-0.294,0.707c-0.196,0.189-0.439,0.283-0.73,0.283C130.961,255.9,130.727,255.805,130.536,255.615z
		 M130.386,257.479h1.731v8.063h-1.731V257.479z"/>
	<path d="M135.668,265.09c-0.443-0.475-0.664-1.137-0.664-2v-4.301h-1.227v-1.31h1.227v-2.42h1.714v2.42h1.982v1.31h-1.982v4.184
		c0,0.537,0.103,0.919,0.31,1.143c0.208,0.225,0.585,0.336,1.134,0.336c0.325,0,0.649-0.072,0.975-0.219v1.344
		c-0.424,0.146-0.951,0.219-1.58,0.219C136.741,265.795,136.11,265.561,135.668,265.09z"/>
	<path d="M141.667,264.678c-0.845-0.744-1.269-1.793-1.269-3.15c0-1.32,0.379-2.368,1.135-3.137
		c0.755-0.773,1.833-1.159,3.233-1.159c0.929,0,1.72,0.177,2.37,0.53c0.65,0.355,1.139,0.839,1.47,1.464
		c0.33,0.622,0.495,1.327,0.495,2.122v0.84h-7.089c0.056,0.762,0.377,1.33,0.966,1.707c0.588,0.371,1.385,0.564,2.394,0.564
		c0.515,0,1.035-0.049,1.562-0.144c0.527-0.095,0.991-0.222,1.394-0.378v1.36c-0.359,0.146-0.831,0.267-1.417,0.362
		c-0.588,0.094-1.167,0.143-1.739,0.143C143.68,265.795,142.512,265.423,141.667,264.678z M147.504,260.99
		c-0.021-0.762-0.271-1.352-0.746-1.772c-0.477-0.419-1.152-0.63-2.025-0.63c-0.852,0-1.512,0.22-1.982,0.657
		c-0.471,0.438-0.716,1.02-0.741,1.747L147.504,260.99L147.504,260.99z M145.001,253.684h1.797l-1.394,2.889h-1.546L145.001,253.684
		z"/>
	<path d="M152.141,265.585c-0.627-0.14-1.119-0.331-1.477-0.567v-1.443c0.436,0.256,0.941,0.468,1.511,0.627
		c0.571,0.163,1.126,0.248,1.664,0.248c0.604,0,1.048-0.072,1.327-0.219c0.281-0.146,0.422-0.381,0.422-0.706
		c0-0.248-0.066-0.444-0.192-0.599c-0.131-0.152-0.348-0.284-0.657-0.412c-0.307-0.123-0.771-0.269-1.385-0.438
		c-0.661-0.189-1.185-0.383-1.57-0.578c-0.388-0.192-0.679-0.445-0.875-0.744c-0.195-0.307-0.293-0.694-0.293-1.18
		c0-0.772,0.305-1.356,0.916-1.756c0.609-0.394,1.43-0.597,2.463-0.597c0.537,0,1.064,0.05,1.579,0.151
		c0.512,0.102,0.93,0.242,1.241,0.42v1.414c-0.324-0.189-0.725-0.34-1.201-0.451s-0.961-0.167-1.453-0.167
		c-0.594,0-1.047,0.073-1.359,0.219c-0.313,0.146-0.471,0.403-0.471,0.773c0,0.235,0.066,0.423,0.2,0.569
		c0.134,0.145,0.351,0.273,0.649,0.377c0.295,0.106,0.77,0.247,1.416,0.416c1.021,0.276,1.729,0.606,2.127,0.989
		c0.396,0.378,0.598,0.904,0.598,1.576c0,0.694-0.287,1.249-0.859,1.664c-0.57,0.417-1.415,0.626-2.536,0.626
		C153.361,265.795,152.768,265.725,152.141,265.585z"/>
	<path d="M166.572,265.585c-0.627-0.14-1.121-0.331-1.478-0.567v-1.443c0.437,0.256,0.94,0.468,1.511,0.627
		c0.572,0.163,1.125,0.248,1.663,0.248c0.604,0,1.048-0.072,1.327-0.219c0.28-0.146,0.422-0.381,0.422-0.706
		c0-0.248-0.064-0.444-0.192-0.599c-0.13-0.152-0.347-0.284-0.656-0.412c-0.306-0.123-0.772-0.269-1.385-0.438
		c-0.659-0.189-1.184-0.383-1.571-0.578c-0.385-0.192-0.676-0.445-0.873-0.744c-0.195-0.307-0.295-0.694-0.295-1.18
		c0-0.772,0.307-1.356,0.918-1.756c0.609-0.394,1.43-0.597,2.461-0.597c0.539,0,1.064,0.05,1.579,0.151s0.93,0.242,1.243,0.42v1.414
		c-0.325-0.189-0.725-0.34-1.201-0.451c-0.479-0.111-0.961-0.167-1.453-0.167c-0.594,0-1.047,0.073-1.359,0.219
		c-0.314,0.146-0.473,0.403-0.473,0.773c0,0.235,0.07,0.423,0.203,0.569c0.133,0.145,0.35,0.273,0.646,0.377
		c0.297,0.106,0.771,0.247,1.419,0.416c1.019,0.276,1.728,0.606,2.125,0.989c0.396,0.378,0.597,0.904,0.597,1.576
		c0,0.694-0.284,1.249-0.857,1.664c-0.57,0.417-1.416,0.626-2.536,0.626C167.793,265.795,167.199,265.725,166.572,265.585z"/>
	<path d="M173.595,253.128h1.696v12.415h-1.696V253.128z M175.308,261.461l3.714-3.981h2.065l-3.729,3.981l4.116,4.082h-2.066
		L175.308,261.461z"/>
	<path d="M183.917,265.283c-0.688-0.342-1.227-0.832-1.613-1.479c-0.388-0.645-0.579-1.403-0.579-2.277
		c0-0.859,0.189-1.617,0.569-2.266c0.381-0.65,0.919-1.152,1.613-1.502c0.694-0.354,1.497-0.529,2.403-0.529
		c0.908,0,1.708,0.176,2.403,0.529c0.694,0.354,1.236,0.855,1.62,1.502c0.387,0.652,0.58,1.408,0.58,2.266
		c0,0.874-0.193,1.633-0.58,2.277c-0.387,0.648-0.926,1.137-1.62,1.479s-1.495,0.512-2.403,0.512
		C185.404,265.795,184.605,265.625,183.917,265.283z M188.395,263.645c0.516-0.537,0.772-1.243,0.772-2.117
		c0-0.906-0.256-1.619-0.772-2.146c-0.514-0.526-1.21-0.794-2.084-0.794c-0.873,0-1.567,0.268-2.084,0.794
		c-0.514,0.526-0.772,1.239-0.772,2.146c0,0.874,0.258,1.584,0.772,2.117c0.515,0.537,1.211,0.807,2.084,0.807
		C187.185,264.451,187.881,264.182,188.395,263.645z"/>
	<path d="M194.201,265.283c-0.689-0.342-1.228-0.832-1.614-1.479c-0.386-0.645-0.579-1.403-0.579-2.277
		c0-0.859,0.189-1.617,0.57-2.266c0.381-0.65,0.918-1.152,1.613-1.502c0.694-0.354,1.495-0.529,2.403-0.529
		c0.907,0,1.707,0.176,2.403,0.529c0.693,0.354,1.234,0.855,1.621,1.502c0.387,0.652,0.578,1.408,0.578,2.266
		c0,0.874-0.191,1.633-0.578,2.277c-0.389,0.648-0.928,1.137-1.621,1.479c-0.695,0.342-1.496,0.512-2.403,0.512
		C195.687,265.795,194.889,265.625,194.201,265.283z M198.678,263.645c0.514-0.537,0.771-1.243,0.771-2.117
		c0-0.906-0.257-1.619-0.771-2.146c-0.516-0.526-1.211-0.794-2.086-0.794c-0.873,0-1.566,0.268-2.084,0.794
		c-0.515,0.526-0.773,1.239-0.773,2.146c0,0.874,0.257,1.584,0.773,2.117c0.515,0.537,1.211,0.807,2.084,0.807
		S198.162,264.182,198.678,263.645z"/>
	<path d="M203.045,257.479h1.646v1.158c0.38-0.481,0.848-0.837,1.402-1.065c0.555-0.23,1.134-0.345,1.739-0.345
		c1.075,0,1.876,0.286,2.402,0.856c0.526,0.571,0.79,1.338,0.79,2.303v5.156h-1.697v-4.989c0-1.311-0.629-1.966-1.882-1.966
		c-0.54,0-1.039,0.127-1.504,0.378c-0.465,0.248-0.864,0.636-1.2,1.151v5.426h-1.697V257.479L203.045,257.479z"/>
	<path d="M213.015,265.316c-0.151-0.151-0.228-0.335-0.228-0.563c0-0.229,0.076-0.414,0.228-0.572
		c0.151-0.156,0.339-0.234,0.563-0.234s0.416,0.078,0.57,0.234c0.156,0.161,0.236,0.348,0.236,0.572s-0.08,0.411-0.236,0.563
		c-0.156,0.155-0.346,0.227-0.57,0.227C213.354,265.543,213.166,265.467,213.015,265.316z"/>
</g>
</svg>
