<?xml version="1.0" encoding="utf-8"?>
<!-- Generator: Adobe Illustrator 16.0.0, SVG Export Plug-In . SVG Version: 6.00 Build 0)  -->
<!DOCTYPE svg PUBLIC "-//W3C//DTD SVG 1.1//EN" "http://www.w3.org/Graphics/SVG/1.1/DTD/svg11.dtd">
<svg version="1.1" id="Calque_1" xmlns="http://www.w3.org/2000/svg" xmlns:xlink="http://www.w3.org/1999/xlink" x="0px" y="0px"
	 width="198.425px" height="283.465px" viewBox="47.787 60.758 198.425 283.465"
	 enable-background="new 47.787 60.758 198.425 283.465" xml:space="preserve">
<g>
	<path fill="#FFFDFD" stroke="#000000" stroke-width="2" stroke-miterlimit="10" d="M151.633,193.858
		c1.933-5.348,3.693-10.606,3.354-16.761c-1.716,4.156-3.132,7.919-4.804,11.564c-2.101,4.582-2.434,4.715-7.022,2.554
		c-3.585-1.688-7.029-3.676-10.467-5.496c3.833-3.72,7.357-7.143,10.884-10.564c-0.193-0.233-0.388-0.466-0.582-0.698
		c-1.119,0.736-2.17,1.617-3.37,2.18c-3.433,1.614-6.9,3.164-10.418,4.583c-0.739,0.299-2.042,0.276-2.589-0.187
		c-3.967-3.348-7.806-6.848-11.899-10.489c4.222-1.165,7.805-2.152,11.39-3.14c-0.055-0.273-0.114-0.545-0.173-0.818
		c-3.519,0-7.039-0.06-10.555,0.021c-2.51,0.058-4.368-0.916-5.519-3.112c-1.283-2.452-2.474-4.953-4-8.025
		c3.717,0.503,6.551,1.009,9.41,1.252c10.658,0.901,21.271,0.962,31.638-2.25c1.029-0.318,2.082-0.669,2.988-1.229
		c0.51-0.316,0.794-1.062,1.081-1.661c0.595-1.231,0.978-2.586,1.708-3.721c0.918-1.425,2.326-1.568,3.688-0.586
		c2.695,1.946,5.395,3.896,7.979,5.986c1.731,1.397,1.423,3.783-1.03,5.64c-1.299,0.982-1.211,1.833-1.08,3.108
		c0.885,8.771,1.864,17.558,0.318,26.347C161.379,195.064,158.464,196.553,151.633,193.858z"/>
	<path fill="#FFFDFD" stroke="#000000" stroke-width="2" stroke-miterlimit="10" d="M166.251,148.29
		c-2.237-1.622-4.173-3.025-6.231-4.515c6.778-9.364,13.445-18.585,20.121-27.8c4-5.519,8.023-11.019,12.01-16.548
		c1.173-1.624,2.456-2.839,4.55-1.592c1.604,0.956,1.755,2.833,0.267,5.045c-7.184,10.69-14.422,21.347-21.639,32.013
		C172.354,139.292,169.371,143.686,166.251,148.29z"/>
	<path fill="#FFFDFD" stroke="#000000" stroke-width="3" stroke-miterlimit="10" d="M130.185,103.588
		c1.579,6.019,5.166,9.197,11.133,10.962c-5.691,1.771-9.618,4.431-11.078,10.229c-1.926-5.197-4.885-8.719-11.156-9.981
		C125.269,113.008,128.714,109.602,130.185,103.588z"/>
	<path fill="#FFFDFD" stroke="#000000" stroke-width="3" stroke-miterlimit="10" d="M141.309,73.405
		c1.064,4.063,3.485,6.209,7.517,7.401c-3.842,1.196-6.494,2.991-7.482,6.907c-1.298-3.51-3.3-5.887-7.536-6.74
		C137.988,79.766,140.316,77.465,141.309,73.405z"/>
	<path fill="#FFFDFD" stroke="#000000" stroke-width="3" stroke-miterlimit="10" d="M167.805,97.96
		c0.713,2.712,2.328,4.146,5.02,4.941c-2.566,0.798-4.332,1.998-4.996,4.611c-0.867-2.342-2.201-3.929-5.031-4.499
		C165.588,102.206,167.142,100.67,167.805,97.96z"/>
</g>
<g enable-background="new    ">
	<path d="M58.095,220.561h4.721c1.254,0,2.218,0.304,2.889,0.908c0.673,0.604,1.007,1.49,1.007,2.654
		c0,0.862-0.229,1.594-0.688,2.193c-0.457,0.598-1.109,1.007-1.947,1.217l2.584,4.771H64.88l-2.503-4.637h-2.57v4.637h-1.712
		L58.095,220.561L58.095,220.561z M62.53,226.223c0.747,0,1.347-0.176,1.789-0.529c0.443-0.353,0.664-0.875,0.664-1.57
		c0-0.762-0.219-1.304-0.647-1.629c-0.432-0.324-1.035-0.484-1.806-0.484h-2.725v4.215L62.53,226.223L62.53,226.223z"/>
	<path d="M68.821,231.439c-0.846-0.744-1.269-1.794-1.269-3.15c0-1.321,0.377-2.369,1.133-3.141
		c0.756-0.771,1.834-1.159,3.234-1.159c0.929,0,1.719,0.181,2.369,0.532c0.65,0.354,1.14,0.836,1.471,1.462
		c0.333,0.624,0.496,1.327,0.496,2.126v0.836h-7.089c0.056,0.762,0.378,1.33,0.966,1.707s1.386,0.565,2.394,0.565
		c0.516,0,1.035-0.046,1.563-0.142c0.526-0.098,0.991-0.221,1.395-0.379v1.357c-0.363,0.146-0.832,0.268-1.42,0.365
		c-0.588,0.096-1.167,0.142-1.738,0.142C70.834,232.558,69.667,232.185,68.821,231.439z M74.659,227.752
		c-0.02-0.762-0.271-1.352-0.744-1.772c-0.478-0.421-1.152-0.63-2.027-0.63c-0.853,0-1.51,0.22-1.982,0.657
		c-0.471,0.438-0.715,1.019-0.74,1.745H74.659L74.659,227.752z"/>
	<path d="M75.835,236v-1.395c0.292,0.136,0.627,0.203,1.006,0.203c0.507,0,0.865-0.121,1.086-0.363
		c0.219-0.24,0.328-0.629,0.328-1.167v-9.037h1.713v9.155c0,0.93-0.257,1.627-0.772,2.092c-0.516,0.465-1.21,0.697-2.083,0.697
		C76.608,236.186,76.183,236.123,75.835,236z M78.388,222.376c-0.19-0.188-0.282-0.423-0.282-0.706c0-0.279,0.098-0.515,0.294-0.705
		c0.193-0.189,0.434-0.286,0.715-0.286c0.279,0,0.517,0.097,0.715,0.286c0.194,0.19,0.294,0.426,0.294,0.705
		c0,0.28-0.1,0.516-0.294,0.706c-0.196,0.19-0.434,0.285-0.715,0.285C78.821,222.661,78.579,222.566,78.388,222.376z"/>
	<path d="M84.16,232.045c-0.685-0.342-1.226-0.834-1.612-1.479c-0.387-0.644-0.579-1.402-0.579-2.276
		c0-0.861,0.189-1.619,0.57-2.267c0.381-0.649,0.918-1.151,1.613-1.502s1.496-0.531,2.402-0.531c0.908,0,1.708,0.179,2.406,0.531
		c0.691,0.353,1.236,0.854,1.619,1.502c0.388,0.649,0.58,1.405,0.58,2.267c0,0.874-0.191,1.633-0.58,2.276
		c-0.385,0.646-0.926,1.138-1.619,1.479c-0.694,0.34-1.498,0.512-2.406,0.512C85.647,232.558,84.849,232.385,84.16,232.045z
		 M88.637,230.406c0.513-0.541,0.773-1.243,0.773-2.117c0-0.906-0.257-1.623-0.773-2.148c-0.516-0.527-1.21-0.791-2.085-0.791
		s-1.566,0.264-2.083,0.791c-0.517,0.525-0.772,1.242-0.772,2.148c0,0.874,0.258,1.579,0.772,2.117
		c0.513,0.537,1.21,0.807,2.083,0.807S88.122,230.943,88.637,230.406z"/>
	<path d="M93.29,222.376c-0.19-0.188-0.285-0.423-0.285-0.706c0-0.279,0.097-0.515,0.285-0.705c0.19-0.189,0.425-0.286,0.706-0.286
		c0.291,0,0.538,0.097,0.73,0.286c0.196,0.19,0.296,0.426,0.296,0.705c0,0.28-0.101,0.516-0.296,0.706
		c-0.193,0.19-0.439,0.285-0.73,0.285C93.716,222.661,93.481,222.566,93.29,222.376z M93.14,224.241h1.73v8.063h-1.73V224.241z"/>
	<path d="M97.205,224.241h1.646v1.159c0.38-0.482,0.849-0.837,1.403-1.066c0.554-0.229,1.134-0.345,1.739-0.345
		c1.074,0,1.875,0.286,2.402,0.86c0.526,0.573,0.79,1.338,0.79,2.301v5.158h-1.697v-4.99c0-1.31-0.627-1.969-1.881-1.969
		c-0.54,0-1.039,0.126-1.503,0.377c-0.465,0.253-0.865,0.637-1.201,1.153v5.427h-1.697L97.205,224.241L97.205,224.241z"/>
	<path d="M108.478,232.346c-0.627-0.139-1.12-0.326-1.478-0.563v-1.443c0.437,0.254,0.941,0.468,1.512,0.627
		c0.571,0.16,1.125,0.247,1.664,0.247c0.604,0,1.047-0.073,1.327-0.219c0.277-0.146,0.42-0.381,0.42-0.707
		c0-0.248-0.064-0.444-0.193-0.599c-0.13-0.15-0.347-0.285-0.656-0.411c-0.308-0.123-0.771-0.269-1.385-0.437
		c-0.659-0.19-1.183-0.384-1.571-0.58c-0.387-0.192-0.678-0.445-0.874-0.744c-0.194-0.306-0.294-0.693-0.294-1.176
		c0-0.772,0.307-1.357,0.918-1.759c0.61-0.394,1.431-0.598,2.461-0.598c0.54,0,1.064,0.05,1.58,0.153
		c0.514,0.103,0.929,0.241,1.243,0.42v1.413c-0.326-0.188-0.726-0.339-1.201-0.452c-0.479-0.109-0.96-0.166-1.454-0.166
		c-0.596,0-1.047,0.072-1.36,0.219c-0.311,0.146-0.471,0.402-0.471,0.773c0,0.234,0.068,0.422,0.202,0.568
		c0.134,0.146,0.35,0.273,0.647,0.379c0.297,0.104,0.773,0.244,1.419,0.411c1.019,0.277,1.728,0.61,2.125,0.991
		c0.394,0.381,0.596,0.907,0.596,1.579c0,0.694-0.282,1.249-0.857,1.663c-0.572,0.418-1.417,0.625-2.537,0.625
		C109.698,232.558,109.105,232.486,108.478,232.346z"/>
	<path d="M121.716,219.889h1.697v12.416h-1.697V219.889z"/>
	<path d="M126.528,231.439c-0.845-0.744-1.269-1.794-1.269-3.15c0-1.321,0.378-2.369,1.134-3.141s1.833-1.159,3.233-1.159
		c0.929,0,1.72,0.181,2.369,0.532c0.653,0.354,1.141,0.836,1.473,1.462c0.331,0.624,0.496,1.327,0.496,2.126v0.836h-7.09
		c0.056,0.762,0.378,1.33,0.967,1.707c0.588,0.375,1.385,0.565,2.394,0.565c0.514,0,1.035-0.046,1.56-0.142
		c0.527-0.098,0.991-0.221,1.394-0.379v1.357c-0.359,0.146-0.832,0.268-1.417,0.365c-0.591,0.096-1.167,0.142-1.739,0.142
		C128.542,232.558,127.375,232.185,126.528,231.439z M132.367,227.752c-0.022-0.762-0.271-1.352-0.747-1.772
		c-0.477-0.421-1.151-0.63-2.024-0.63c-0.853,0-1.512,0.22-1.982,0.657c-0.471,0.438-0.717,1.019-0.74,1.745H132.367
		L132.367,227.752z"/>
	<path d="M137.004,232.346c-0.627-0.139-1.121-0.326-1.479-0.563v-1.443c0.438,0.254,0.942,0.468,1.512,0.627
		c0.571,0.16,1.125,0.247,1.664,0.247c0.604,0,1.047-0.073,1.327-0.219c0.277-0.146,0.42-0.381,0.42-0.707
		c0-0.248-0.065-0.444-0.193-0.599c-0.129-0.15-0.347-0.285-0.656-0.411c-0.308-0.123-0.771-0.269-1.386-0.437
		c-0.658-0.19-1.182-0.384-1.571-0.58c-0.386-0.192-0.678-0.445-0.874-0.744c-0.193-0.306-0.294-0.693-0.294-1.176
		c0-0.772,0.307-1.357,0.918-1.759c0.61-0.394,1.431-0.598,2.461-0.598c0.539,0,1.064,0.05,1.58,0.153
		c0.515,0.103,0.929,0.241,1.243,0.42v1.413c-0.325-0.188-0.726-0.339-1.202-0.452c-0.479-0.109-0.96-0.166-1.454-0.166
		c-0.596,0-1.047,0.072-1.36,0.219c-0.313,0.146-0.47,0.402-0.47,0.773c0,0.234,0.067,0.422,0.201,0.568
		c0.131,0.146,0.35,0.273,0.647,0.379c0.296,0.104,0.773,0.244,1.419,0.411c1.019,0.277,1.727,0.61,2.125,0.991
		c0.395,0.381,0.596,0.907,0.596,1.579c0,0.694-0.284,1.249-0.856,1.663c-0.571,0.418-1.417,0.625-2.538,0.625
		C138.224,232.558,137.63,232.486,137.004,232.346z"/>
	<path d="M151.51,232.381c-0.656-0.117-1.187-0.276-1.604-0.479v-1.546c1.075,0.504,2.233,0.756,3.48,0.756
		c1.743,0,2.617-0.588,2.617-1.764c0-0.403-0.095-0.728-0.282-0.978c-0.189-0.247-0.465-0.462-0.826-0.647
		c-0.358-0.187-0.941-0.442-1.746-0.767c-1.108-0.448-1.91-0.94-2.404-1.476s-0.738-1.215-0.738-2.033
		c0-0.615,0.167-1.158,0.504-1.638c0.336-0.478,0.806-0.846,1.41-1.108c0.606-0.264,1.301-0.395,2.086-0.395
		c0.639,0,1.215,0.049,1.732,0.151c0.512,0.103,1.018,0.264,1.51,0.487v1.477c-0.975-0.438-1.96-0.656-2.957-0.656
		c-0.805,0-1.422,0.145-1.852,0.436c-0.424,0.291-0.638,0.707-0.638,1.24c0,0.369,0.096,0.684,0.277,0.934
		c0.187,0.25,0.46,0.479,0.823,0.672c0.365,0.195,0.904,0.439,1.621,0.73c0.795,0.326,1.421,0.632,1.881,0.924
		c0.463,0.291,0.81,0.646,1.051,1.064c0.244,0.421,0.364,0.945,0.364,1.57c0,1.02-0.364,1.809-1.095,2.37
		c-0.729,0.561-1.803,0.839-3.223,0.839C152.829,232.558,152.166,232.499,151.51,232.381z"/>
	<path d="M159.667,220.561h1.712v11.744h-1.712V220.561z M161.465,226.323l5.355-5.763h2.085l-5.358,5.763l5.695,5.981h-2.084
		L161.465,226.323z"/>
	<path d="M172.182,231.792c-0.939-0.509-1.678-1.229-2.217-2.159c-0.538-0.928-0.805-1.993-0.805-3.191s0.271-2.262,0.805-3.191
		c0.54-0.932,1.277-1.653,2.217-2.172c0.943-0.511,1.996-0.773,3.161-0.773c1.163,0,2.218,0.256,3.161,0.773
		c0.941,0.512,1.676,1.239,2.217,2.172c0.539,0.926,0.804,1.993,0.804,3.191s-0.27,2.262-0.804,3.191
		c-0.539,0.931-1.275,1.65-2.217,2.159c-0.943,0.51-1.998,0.766-3.161,0.766C174.174,232.558,173.123,232.302,172.182,231.792z
		 M177.601,230.448c0.679-0.375,1.21-0.907,1.604-1.596c0.392-0.685,0.588-1.492,0.588-2.407c0-0.911-0.191-1.707-0.579-2.396
		c-0.388-0.686-0.916-1.219-1.588-1.594c-0.673-0.375-1.423-0.565-2.252-0.565c-0.839,0-1.599,0.188-2.276,0.554
		c-0.68,0.37-1.215,0.902-1.615,1.597c-0.396,0.694-0.598,1.494-0.598,2.405c0,0.92,0.193,1.723,0.588,2.407
		c0.393,0.688,0.925,1.221,1.604,1.596c0.679,0.375,1.431,0.563,2.261,0.563C176.17,231.012,176.923,230.823,177.601,230.448z"/>
	<path d="M185.977,231.792c-0.941-0.509-1.682-1.229-2.219-2.159c-0.537-0.928-0.807-1.993-0.807-3.191s0.273-2.262,0.807-3.191
		c0.537-0.932,1.277-1.653,2.219-2.172c0.939-0.511,1.992-0.773,3.158-0.773c1.164,0,2.217,0.256,3.161,0.773
		c0.94,0.514,1.677,1.239,2.218,2.172c0.539,0.926,0.803,1.993,0.803,3.191s-0.27,2.262-0.803,3.191
		c-0.539,0.931-1.277,1.65-2.218,2.159c-0.944,0.51-1.997,0.766-3.161,0.766C187.969,232.558,186.915,232.302,185.977,231.792z
		 M191.394,230.448c0.677-0.375,1.21-0.907,1.604-1.596c0.393-0.685,0.588-1.492,0.588-2.407c0-0.911-0.193-1.707-0.58-2.396
		c-0.387-0.686-0.915-1.219-1.588-1.594c-0.672-0.375-1.422-0.565-2.25-0.565c-0.842,0-1.6,0.188-2.277,0.554
		c-0.682,0.37-1.215,0.902-1.617,1.597c-0.396,0.694-0.596,1.494-0.596,2.405c0,0.92,0.191,1.723,0.588,2.407
		c0.393,0.688,0.924,1.221,1.604,1.596c0.677,0.375,1.431,0.563,2.26,0.563C189.962,231.012,190.715,230.823,191.394,230.448z"/>
	<path d="M197.164,220.561h1.63l5.979,8.854v-8.854h1.731v11.744h-1.647l-5.98-8.854v8.854h-1.71L197.164,220.561L197.164,220.561z"
		/>
	<path d="M208.688,220.561h7.744v1.445h-6.03v3.713h4.504v1.428h-4.504v3.73h6.03v1.428h-7.744V220.561z"/>
	<path d="M218.197,220.561h4.721c1.254,0,2.218,0.304,2.89,0.908s1.007,1.49,1.007,2.654c0,0.862-0.23,1.594-0.686,2.193
		c-0.459,0.598-1.109,1.007-1.949,1.217l2.588,4.771h-1.785l-2.499-4.637h-2.571v4.637h-1.713L218.197,220.561L218.197,220.561z
		 M222.633,226.223c0.75,0,1.347-0.176,1.789-0.529c0.442-0.353,0.663-0.875,0.663-1.57c0-0.762-0.216-1.304-0.646-1.629
		c-0.432-0.324-1.036-0.484-1.806-0.484h-2.723v4.215L222.633,226.223L222.633,226.223z"/>
	<path d="M229.932,232.381c-0.654-0.117-1.189-0.276-1.604-0.479v-1.546c1.075,0.504,2.235,0.756,3.478,0.756
		c1.748,0,2.621-0.588,2.621-1.764c0-0.403-0.096-0.728-0.285-0.978c-0.189-0.247-0.461-0.462-0.823-0.647
		c-0.358-0.187-0.941-0.442-1.747-0.767c-1.109-0.448-1.91-0.94-2.402-1.476c-0.494-0.539-0.74-1.215-0.74-2.033
		c0-0.615,0.164-1.158,0.504-1.638c0.336-0.478,0.807-0.846,1.412-1.108c0.604-0.264,1.299-0.395,2.086-0.395
		c0.639,0,1.211,0.049,1.731,0.151c0.513,0.103,1.018,0.264,1.51,0.487v1.477c-0.976-0.438-1.959-0.656-2.956-0.656
		c-0.807,0-1.423,0.145-1.852,0.436c-0.422,0.291-0.639,0.707-0.639,1.24c0,0.369,0.095,0.684,0.277,0.934
		c0.186,0.25,0.459,0.479,0.824,0.672c0.364,0.195,0.902,0.439,1.619,0.73c0.796,0.326,1.422,0.632,1.883,0.924
		c0.46,0.291,0.809,0.646,1.049,1.064c0.242,0.421,0.365,0.945,0.365,1.57c0,1.02-0.365,1.809-1.094,2.37
		c-0.729,0.561-1.804,0.839-3.225,0.839C231.25,232.558,230.586,232.499,229.932,232.381z"/>
</g>
<g enable-background="new    ">
	<path d="M59.028,251.599c-0.846-0.744-1.269-1.794-1.269-3.15c0-1.321,0.377-2.368,1.134-3.14c0.755-0.773,1.834-1.156,3.234-1.156
		c0.93,0,1.719,0.176,2.369,0.529c0.649,0.352,1.14,0.84,1.473,1.461c0.33,0.625,0.495,1.33,0.495,2.125v0.84h-7.092
		c0.056,0.762,0.379,1.328,0.969,1.707c0.588,0.373,1.386,0.564,2.394,0.564c0.513,0,1.036-0.047,1.561-0.143
		c0.526-0.096,0.991-0.221,1.394-0.379v1.36c-0.359,0.146-0.832,0.267-1.419,0.362s-1.167,0.143-1.735,0.143
		C61.04,252.715,59.873,252.344,59.028,251.599z M64.866,247.911c-0.023-0.762-0.275-1.353-0.748-1.772
		c-0.476-0.42-1.151-0.63-2.025-0.63c-0.851,0-1.512,0.22-1.982,0.657c-0.47,0.438-0.716,1.02-0.742,1.747L64.866,247.911
		L64.866,247.911z"/>
	<path d="M69.526,252.01c-0.445-0.471-0.663-1.136-0.663-1.997v-4.303h-1.227v-1.31h1.227v-2.419h1.713v2.419h1.982v1.31h-1.982
		v4.186c0,0.54,0.103,0.919,0.309,1.143c0.206,0.223,0.585,0.335,1.133,0.335c0.326,0,0.65-0.072,0.975-0.219v1.344
		c-0.423,0.146-0.948,0.219-1.579,0.219C70.599,252.715,69.969,252.48,69.526,252.01z"/>
	<path d="M80.808,244.4h1.615v1.158c0.382-0.471,0.809-0.822,1.294-1.059c0.485-0.234,0.979-0.352,1.495-0.352
		c0.652,0,1.165,0.108,1.546,0.327c0.38,0.219,0.66,0.552,0.839,0.999c0.358-0.436,0.8-0.767,1.319-0.991
		c0.521-0.22,1.044-0.335,1.57-0.335c0.985,0,1.699,0.249,2.133,0.748c0.438,0.498,0.657,1.234,0.657,2.205v5.359H91.63v-5.145
		c0-0.658-0.123-1.125-0.366-1.402c-0.248-0.275-0.667-0.412-1.262-0.412c-0.853,0-1.545,0.369-2.084,1.109
		c0.022,0.166,0.034,0.441,0.034,0.822v5.027h-1.646v-5.145c0-0.658-0.112-1.125-0.336-1.402c-0.221-0.275-0.627-0.412-1.21-0.412
		c-0.854,0-1.616,0.482-2.288,1.445v5.51h-1.663V244.4L80.808,244.4z"/>
	<path d="M96.121,251.842c-0.554-0.582-0.832-1.36-0.832-2.335V244.4h1.697v5.035c0,1.292,0.644,1.936,1.932,1.936
		c1.13,0,2.016-0.51,2.654-1.531V244.4h1.697v8.063h-1.647v-1.142c-0.38,0.481-0.832,0.834-1.352,1.058
		c-0.521,0.224-1.086,0.335-1.688,0.335C97.496,252.715,96.675,252.424,96.121,251.842z"/>
	<path d="M105.453,244.4h1.647v1.158c0.381-0.481,0.849-0.836,1.403-1.065c0.555-0.226,1.135-0.341,1.739-0.341
		c1.074,0,1.876,0.282,2.402,0.859c0.526,0.568,0.791,1.336,0.791,2.299v5.157h-1.697v-4.989c0-1.311-0.627-1.97-1.881-1.97
		c-0.539,0-1.037,0.13-1.502,0.378c-0.465,0.252-0.865,0.637-1.202,1.152v5.426h-1.697V244.4H105.453L105.453,244.4z"/>
	<path d="M115.819,242.535c-0.19-0.19-0.285-0.426-0.285-0.707c0-0.278,0.095-0.514,0.285-0.709
		c0.189-0.189,0.423-0.281,0.706-0.281c0.291,0,0.535,0.096,0.73,0.281c0.196,0.189,0.294,0.424,0.294,0.709
		c0,0.277-0.098,0.512-0.294,0.707c-0.195,0.189-0.439,0.285-0.73,0.285C116.244,242.821,116.01,242.726,115.819,242.535z
		 M115.667,244.4h1.731v8.064h-1.731V244.4z"/>
	<path d="M120.926,252.506c-0.627-0.139-1.123-0.328-1.478-0.563v-1.444c0.436,0.257,0.94,0.468,1.512,0.627
		c0.57,0.161,1.125,0.247,1.663,0.247c0.605,0,1.047-0.072,1.327-0.219c0.277-0.146,0.42-0.381,0.42-0.705
		c0-0.248-0.064-0.446-0.192-0.598c-0.129-0.154-0.347-0.289-0.655-0.412c-0.309-0.127-0.772-0.271-1.386-0.438
		c-0.658-0.189-1.182-0.387-1.571-0.58c-0.387-0.195-0.678-0.447-0.874-0.745c-0.193-0.304-0.294-0.694-0.294-1.177
		c0-0.773,0.307-1.357,0.919-1.76c0.609-0.394,1.43-0.596,2.461-0.596c0.539,0,1.065,0.048,1.579,0.15
		c0.515,0.103,0.93,0.244,1.243,0.424v1.412c-0.325-0.189-0.725-0.342-1.201-0.452c-0.48-0.112-0.961-0.169-1.453-0.169
		c-0.597,0-1.047,0.074-1.361,0.221c-0.312,0.146-0.471,0.402-0.471,0.772c0,0.235,0.07,0.423,0.202,0.569
		c0.132,0.145,0.35,0.275,0.647,0.377c0.297,0.105,0.771,0.247,1.419,0.412c1.019,0.279,1.728,0.61,2.125,0.991
		c0.394,0.381,0.597,0.911,0.597,1.583c0,0.69-0.286,1.245-0.858,1.663c-0.57,0.415-1.416,0.622-2.536,0.622
		C122.146,252.715,121.553,252.646,120.926,252.506z"/>
	<path d="M127.613,246.768h5.358v1.395h-5.358V246.768z"/>
	<path d="M136.037,252.01c-0.442-0.471-0.663-1.136-0.663-1.997v-4.303h-1.226v-1.31h1.226v-2.419h1.713v2.419h1.982v1.31h-1.982
		v4.186c0,0.54,0.102,0.919,0.31,1.143c0.208,0.223,0.586,0.335,1.132,0.335c0.327,0,0.652-0.072,0.977-0.219v1.344
		c-0.425,0.146-0.952,0.219-1.579,0.219C137.11,252.715,136.48,252.48,136.037,252.01z"/>
	<path d="M142.875,252.203c-0.686-0.341-1.227-0.833-1.613-1.479c-0.387-0.644-0.58-1.402-0.58-2.276c0-0.86,0.19-1.618,0.571-2.267
		c0.38-0.649,0.917-1.152,1.613-1.502c0.693-0.353,1.495-0.529,2.403-0.529c0.91,0,1.708,0.177,2.405,0.529
		c0.694,0.354,1.235,0.856,1.62,1.502c0.388,0.652,0.579,1.408,0.579,2.267c0,0.874-0.19,1.633-0.579,2.276
		c-0.388,0.646-0.925,1.138-1.62,1.479c-0.694,0.342-1.496,0.512-2.405,0.512C144.362,252.715,143.563,252.545,142.875,252.203z
		 M147.352,250.565c0.515-0.538,0.773-1.243,0.773-2.117c0-0.907-0.255-1.622-0.773-2.149c-0.514-0.525-1.21-0.79-2.085-0.79
		c-0.872,0-1.565,0.265-2.083,0.79c-0.514,0.527-0.773,1.242-0.773,2.149c0,0.874,0.256,1.579,0.773,2.117s1.21,0.806,2.083,0.806
		C146.142,251.371,146.838,251.104,147.352,250.565z"/>
	<path d="M152.006,242.535c-0.19-0.19-0.283-0.426-0.283-0.707c0-0.278,0.096-0.514,0.283-0.709
		c0.189-0.189,0.424-0.281,0.709-0.281c0.291,0,0.534,0.096,0.73,0.281c0.192,0.189,0.293,0.424,0.293,0.709
		c0,0.277-0.101,0.512-0.293,0.707c-0.196,0.189-0.442,0.285-0.73,0.285C152.432,242.821,152.196,242.726,152.006,242.535z
		 M151.855,244.4h1.734v8.064h-1.734V244.4z"/>
	<path d="M163.858,252.187c-0.644-0.353-1.151-0.851-1.513-1.495c-0.363-0.645-0.545-1.391-0.545-2.243
		c0-0.839,0.182-1.585,0.545-2.233s0.869-1.152,1.513-1.521c0.644-0.364,1.369-0.542,2.173-0.542c1.456,0,2.559,0.441,3.311,1.326
		v-5.426h1.696v12.412h-1.647v-1.177c-0.451,0.493-0.939,0.854-1.472,1.085c-0.532,0.228-1.161,0.344-1.89,0.344
		C165.228,252.715,164.502,252.539,163.858,252.187z M168.244,250.826c0.52-0.363,0.887-0.854,1.1-1.471v-1.818
		c-0.189-0.615-0.553-1.109-1.084-1.475c-0.533-0.369-1.146-0.554-1.84-0.554c-0.549,0-1.044,0.123-1.486,0.365
		c-0.443,0.247-0.789,0.598-1.042,1.042c-0.251,0.445-0.378,0.954-0.378,1.528s0.127,1.085,0.378,1.531
		c0.253,0.449,0.598,0.794,1.042,1.034c0.442,0.242,0.938,0.363,1.486,0.363C167.114,251.371,167.723,251.189,168.244,250.826z"/>
	<path d="M174.156,251.599c-0.846-0.744-1.269-1.794-1.269-3.15c0-1.321,0.378-2.368,1.134-3.14
		c0.756-0.773,1.833-1.156,3.232-1.156c0.93,0,1.719,0.176,2.37,0.529c0.651,0.352,1.142,0.84,1.472,1.461
		c0.332,0.625,0.496,1.33,0.496,2.125v0.84h-7.09c0.056,0.762,0.379,1.328,0.967,1.707c0.588,0.373,1.385,0.564,2.394,0.564
		c0.516,0,1.036-0.047,1.562-0.143c0.527-0.096,0.992-0.221,1.393-0.379v1.36c-0.36,0.146-0.832,0.267-1.418,0.362
		c-0.588,0.096-1.167,0.143-1.738,0.143C176.17,252.715,175.002,252.344,174.156,251.599z M179.994,247.911
		c-0.021-0.762-0.271-1.353-0.746-1.772c-0.477-0.42-1.152-0.63-2.025-0.63c-0.852,0-1.512,0.22-1.982,0.657s-0.716,1.02-0.74,1.747
		L179.994,247.911L179.994,247.911z"/>
</g>
<g enable-background="new    ">
	<path d="M58.095,260.209h1.697v12.416h-1.697V260.209z"/>
	<path d="M62.749,260.629h1.679l-1.327,3.276H61.64L62.749,260.629z"/>
	<path d="M67.209,271.759c-0.846-0.743-1.269-1.794-1.269-3.149c0-1.322,0.378-2.368,1.133-3.137c0.753-0.773,1.832-1.16,3.232-1.16
		c0.93,0,1.719,0.176,2.372,0.531c0.649,0.354,1.139,0.838,1.47,1.463c0.33,0.622,0.495,1.326,0.495,2.122v0.84h-7.09
		c0.056,0.762,0.378,1.331,0.966,1.707c0.588,0.372,1.386,0.563,2.395,0.563c0.515,0,1.036-0.047,1.563-0.143
		c0.526-0.095,0.991-0.221,1.394-0.378v1.36c-0.362,0.146-0.832,0.266-1.419,0.361s-1.167,0.143-1.738,0.143
		C69.222,272.877,68.054,272.504,67.209,271.759z M73.047,268.072c-0.023-0.762-0.272-1.353-0.745-1.772
		c-0.479-0.421-1.152-0.627-2.027-0.627c-0.852,0-1.512,0.22-1.982,0.655c-0.47,0.438-0.715,1.02-0.739,1.747L73.047,268.072
		L73.047,268.072z M70.543,260.763h1.798l-1.395,2.89H69.4L70.543,260.763z"/>
	<path d="M83.697,271.549c-0.366,0.438-0.845,0.771-1.427,0.992c-0.583,0.224-1.21,0.336-1.881,0.336
		c-0.818,0-1.546-0.18-2.184-0.541c-0.638-0.357-1.14-0.859-1.502-1.508c-0.365-0.652-0.545-1.396-0.545-2.233
		c0-0.853,0.182-1.599,0.545-2.243c0.365-0.644,0.865-1.145,1.51-1.502c0.646-0.361,1.37-0.539,2.175-0.539
		c1.413,0,2.531,0.481,3.36,1.443v-1.191h1.647v11.738h-1.695v-4.753L83.697,271.549L83.697,271.549z M82.605,270.979
		c0.539-0.37,0.902-0.863,1.092-1.479v-1.814c-0.221-0.627-0.597-1.121-1.117-1.479c-0.521-0.357-1.123-0.537-1.806-0.537
		c-0.545,0-1.042,0.12-1.486,0.36c-0.443,0.241-0.791,0.583-1.039,1.024c-0.252,0.443-0.378,0.955-0.378,1.538
		c0,0.582,0.126,1.098,0.378,1.546c0.249,0.447,0.598,0.792,1.039,1.032c0.441,0.245,0.938,0.365,1.486,0.365
		C81.458,271.533,82.067,271.348,82.605,270.979z"/>
	<path d="M88.326,272.003c-0.554-0.583-0.832-1.36-0.832-2.335v-5.107h1.697v5.039c0,1.289,0.644,1.934,1.933,1.934
		c1.131,0,2.016-0.512,2.655-1.532v-5.439h1.696v8.063h-1.646v-1.143c-0.382,0.482-0.832,0.835-1.355,1.059
		c-0.521,0.225-1.084,0.336-1.688,0.336C89.701,272.877,88.881,272.586,88.326,272.003z"/>
	<path d="M97.943,262.695c-0.189-0.189-0.285-0.426-0.285-0.706c0-0.279,0.096-0.515,0.285-0.706
		c0.19-0.189,0.425-0.285,0.706-0.285c0.291,0,0.535,0.096,0.732,0.285c0.195,0.189,0.294,0.423,0.294,0.706
		c0,0.276-0.099,0.512-0.294,0.706c-0.197,0.189-0.441,0.285-0.732,0.285C98.368,262.98,98.133,262.886,97.943,262.695z
		 M97.792,264.561h1.73v8.064h-1.73V264.561z"/>
	<path d="M101.858,264.561h1.648v1.192c0.831-0.962,1.948-1.444,3.362-1.444c0.804,0,1.532,0.18,2.173,0.538
		c0.644,0.362,1.151,0.86,1.512,1.503c0.365,0.644,0.546,1.393,0.546,2.243c0,0.84-0.183,1.585-0.546,2.233
		c-0.364,0.65-0.864,1.152-1.502,1.508c-0.638,0.363-1.366,0.541-2.184,0.541c-0.672,0-1.298-0.112-1.881-0.337
		c-0.583-0.22-1.059-0.554-1.429-0.991v4.754h-1.697L101.858,264.561L101.858,264.561z M107.964,271.171
		c0.445-0.24,0.791-0.585,1.042-1.032c0.251-0.448,0.377-0.964,0.377-1.546c0-0.583-0.126-1.095-0.377-1.538
		c-0.25-0.441-0.598-0.783-1.042-1.024c-0.443-0.24-0.938-0.36-1.487-0.36c-0.683,0-1.285,0.179-1.805,0.537
		c-0.519,0.359-0.892,0.852-1.119,1.479v1.814c0.19,0.615,0.555,1.108,1.094,1.479c0.538,0.365,1.149,0.555,1.829,0.555
		C107.027,271.533,107.522,271.412,107.964,271.171z"/>
	<path d="M113.878,271.759c-0.846-0.743-1.269-1.794-1.269-3.149c0-1.322,0.378-2.368,1.134-3.137c0.753-0.773,1.83-1.16,3.23-1.16
		c0.93,0,1.72,0.176,2.373,0.531c0.649,0.354,1.14,0.838,1.47,1.463c0.331,0.622,0.496,1.326,0.496,2.122v0.84h-7.09
		c0.056,0.762,0.378,1.331,0.967,1.707c0.588,0.372,1.385,0.563,2.394,0.563c0.514,0,1.035-0.047,1.561-0.143
		c0.525-0.095,0.991-0.221,1.392-0.378v1.36c-0.359,0.146-0.832,0.266-1.417,0.361c-0.588,0.096-1.167,0.143-1.739,0.143
		C115.892,272.877,114.725,272.504,113.878,271.759z M119.715,268.072c-0.019-0.762-0.271-1.353-0.744-1.772
		c-0.479-0.421-1.152-0.627-2.027-0.627c-0.852,0-1.512,0.22-1.982,0.655c-0.47,0.438-0.715,1.02-0.74,1.747L119.715,268.072
		L119.715,268.072z"/>
	<path d="M123.16,264.561h1.616v1.158c0.38-0.474,0.812-0.826,1.293-1.062c0.482-0.235,0.98-0.353,1.496-0.353
		c0.652,0,1.164,0.107,1.545,0.327c0.38,0.22,0.661,0.552,0.84,1.003c0.359-0.438,0.801-0.771,1.319-0.99
		c0.521-0.225,1.044-0.336,1.571-0.336c0.986,0,1.697,0.25,2.134,0.747c0.436,0.499,0.656,1.235,0.656,2.21v5.354h-1.647v-5.141
		c0-0.661-0.124-1.128-0.368-1.405c-0.248-0.276-0.666-0.413-1.259-0.413c-0.854,0-1.546,0.369-2.085,1.108
		c0.021,0.169,0.033,0.447,0.033,0.828v5.022h-1.646v-5.141c0-0.661-0.111-1.128-0.335-1.403c-0.221-0.277-0.627-0.415-1.21-0.415
		c-0.854,0-1.616,0.481-2.288,1.444v5.511h-1.664L123.16,264.561L123.16,264.561z"/>
	<path d="M138.658,271.759c-0.846-0.743-1.269-1.794-1.269-3.149c0-1.322,0.378-2.368,1.134-3.137
		c0.755-0.773,1.833-1.16,3.233-1.16c0.93,0,1.719,0.176,2.369,0.531c0.649,0.354,1.14,0.838,1.473,1.463
		c0.33,0.622,0.495,1.326,0.495,2.122v0.84h-7.09c0.054,0.762,0.379,1.331,0.967,1.707c0.588,0.372,1.385,0.563,2.394,0.563
		c0.513,0,1.036-0.047,1.561-0.143c0.527-0.095,0.991-0.221,1.395-0.378v1.36c-0.359,0.146-0.832,0.266-1.42,0.361
		c-0.588,0.096-1.167,0.143-1.735,0.143C140.671,272.877,139.503,272.504,138.658,271.759z M144.496,268.072
		c-0.023-0.762-0.272-1.353-0.748-1.772c-0.476-0.421-1.151-0.627-2.025-0.627c-0.851,0-1.512,0.22-1.982,0.655
		c-0.471,0.438-0.716,1.02-0.74,1.747L144.496,268.072L144.496,268.072z"/>
	<path d="M147.939,264.561h1.647v1.158c0.38-0.482,0.852-0.837,1.406-1.066c0.554-0.229,1.132-0.344,1.735-0.344
		c1.074,0,1.879,0.285,2.406,0.856c0.525,0.571,0.789,1.339,0.789,2.302v5.158h-1.697v-4.99c0-1.311-0.627-1.965-1.881-1.965
		c-0.538,0-1.036,0.125-1.502,0.377c-0.466,0.248-0.865,0.636-1.203,1.151v5.427h-1.699L147.939,264.561L147.939,264.561z"/>
	<path d="M159.236,272.17c-0.441-0.474-0.66-1.136-0.66-1.998v-4.301h-1.226v-1.311h1.226v-2.419h1.711v2.419h1.982v1.311h-1.982
		v4.184c0,0.537,0.103,0.919,0.311,1.142c0.207,0.224,0.586,0.337,1.133,0.337c0.325,0,0.65-0.074,0.977-0.22v1.344
		c-0.424,0.146-0.949,0.22-1.58,0.22C160.311,272.877,159.68,272.642,159.236,272.17z"/>
</g>
<g enable-background="new    ">
	<path d="M58.095,284.721h1.646v1.159c0.38-0.481,0.849-0.837,1.403-1.066s1.134-0.345,1.739-0.345c1.075,0,1.876,0.286,2.402,0.861
		c0.526,0.568,0.79,1.338,0.79,2.301v5.154h-1.697v-4.99c0-1.311-0.627-1.965-1.882-1.965c-0.54,0-1.039,0.126-1.503,0.377
		c-0.465,0.248-0.862,0.637-1.201,1.151v5.427h-1.696L58.095,284.721L58.095,284.721z"/>
	<path d="M69.108,291.92c-0.846-0.744-1.269-1.795-1.269-3.15c0-1.326,0.377-2.373,1.133-3.141c0.753-0.773,1.831-1.16,3.231-1.16
		c0.93,0,1.719,0.177,2.372,0.529c0.649,0.357,1.141,0.84,1.471,1.466c0.33,0.621,0.496,1.327,0.496,2.121v0.841h-7.091
		c0.056,0.761,0.379,1.33,0.967,1.706c0.588,0.377,1.385,0.563,2.394,0.563c0.515,0,1.035-0.048,1.563-0.143
		c0.526-0.096,0.991-0.219,1.394-0.379v1.361c-0.362,0.145-0.832,0.266-1.419,0.361c-0.588,0.095-1.168,0.143-1.738,0.143
		C71.121,293.037,69.953,292.664,69.108,291.92z M74.945,288.232c-0.02-0.762-0.271-1.353-0.744-1.769
		c-0.479-0.423-1.152-0.63-2.027-0.63c-0.852,0-1.512,0.22-1.982,0.657c-0.471,0.438-0.715,1.017-0.74,1.745L74.945,288.232
		L74.945,288.232z M72.442,280.924h1.795l-1.395,2.89h-1.545L72.442,280.924z"/>
	<path d="M80.253,292.533c-0.691-0.336-1.235-0.83-1.619-1.474s-0.58-1.408-0.58-2.29c0-0.889,0.193-1.648,0.58-2.292
		c0.387-0.644,0.929-1.14,1.629-1.487c0.7-0.347,1.502-0.521,2.409-0.521c1.235,0,2.218,0.245,2.959,0.723v1.394
		c-0.727-0.504-1.657-0.756-2.788-0.756c-0.918,0-1.66,0.25-2.226,0.748c-0.569,0.498-0.848,1.229-0.848,2.191
		c0,0.965,0.277,1.691,0.836,2.185c0.563,0.493,1.297,0.739,2.202,0.739c1.13,0,2.106-0.269,2.923-0.807v1.383
		c-0.393,0.268-0.837,0.461-1.336,0.588c-0.498,0.123-1.083,0.185-1.755,0.185C81.743,293.037,80.948,292.869,80.253,292.533z"/>
	<path d="M88.511,291.92c-0.846-0.744-1.269-1.795-1.269-3.15c0-1.326,0.378-2.373,1.134-3.141c0.755-0.773,1.834-1.16,3.234-1.16
		c0.93,0,1.719,0.177,2.369,0.529c0.65,0.357,1.14,0.84,1.471,1.466c0.333,0.621,0.495,1.327,0.495,2.121v0.841h-7.089
		c0.056,0.761,0.378,1.33,0.966,1.706c0.588,0.377,1.386,0.563,2.394,0.563c0.515,0,1.036-0.048,1.562-0.143
		c0.527-0.096,0.991-0.219,1.395-0.379v1.361c-0.359,0.145-0.832,0.266-1.419,0.361c-0.588,0.095-1.167,0.143-1.735,0.143
		C90.523,293.037,89.356,292.664,88.511,291.92z M94.349,288.232c-0.023-0.762-0.275-1.353-0.748-1.769
		c-0.476-0.423-1.151-0.63-2.025-0.63c-0.854,0-1.512,0.22-1.982,0.657c-0.47,0.438-0.716,1.017-0.742,1.745L94.349,288.232
		L94.349,288.232z"/>
	<path d="M98.985,292.826c-0.627-0.139-1.123-0.327-1.478-0.563v-1.443c0.436,0.257,0.941,0.467,1.512,0.629
		c0.569,0.16,1.123,0.244,1.662,0.244c0.604,0,1.047-0.073,1.328-0.22c0.28-0.146,0.422-0.38,0.422-0.705
		c0-0.246-0.066-0.445-0.192-0.597c-0.131-0.151-0.347-0.288-0.656-0.412c-0.308-0.127-0.773-0.272-1.385-0.437
		c-0.659-0.19-1.183-0.384-1.571-0.579c-0.387-0.196-0.679-0.445-0.874-0.748s-0.294-0.694-0.294-1.176
		c0-0.773,0.306-1.357,0.917-1.756c0.609-0.396,1.43-0.598,2.463-0.598c0.538,0,1.064,0.051,1.579,0.15
		c0.514,0.103,0.93,0.246,1.242,0.424v1.411c-0.326-0.189-0.724-0.338-1.202-0.452c-0.478-0.111-0.961-0.167-1.452-0.167
		c-0.597,0-1.047,0.073-1.36,0.22c-0.314,0.146-0.471,0.4-0.471,0.771c0,0.236,0.068,0.426,0.202,0.571
		c0.132,0.146,0.35,0.272,0.647,0.378c0.296,0.103,0.77,0.244,1.417,0.412c1.019,0.276,1.729,0.609,2.125,0.99
		s0.598,0.908,0.598,1.58c0,0.693-0.286,1.248-0.86,1.662c-0.569,0.415-1.415,0.623-2.536,0.623
		C100.206,293.037,99.613,292.967,98.985,292.826z"/>
	<path d="M106.781,292.826c-0.627-0.139-1.12-0.327-1.478-0.563v-1.443c0.437,0.257,0.941,0.467,1.512,0.629
		c0.571,0.16,1.126,0.244,1.663,0.244c0.604,0,1.047-0.073,1.327-0.22c0.277-0.146,0.42-0.38,0.42-0.705
		c0-0.246-0.064-0.445-0.192-0.597c-0.13-0.151-0.347-0.288-0.656-0.412c-0.309-0.127-0.773-0.272-1.385-0.437
		c-0.659-0.19-1.182-0.384-1.571-0.579c-0.387-0.196-0.678-0.445-0.874-0.748c-0.194-0.303-0.294-0.694-0.294-1.176
		c0-0.773,0.306-1.357,0.918-1.756c0.609-0.396,1.431-0.598,2.461-0.598c0.54,0,1.065,0.051,1.58,0.15
		c0.514,0.103,0.929,0.246,1.243,0.424v1.411c-0.326-0.189-0.726-0.338-1.202-0.452c-0.479-0.111-0.96-0.167-1.453-0.167
		c-0.597,0-1.047,0.073-1.361,0.22c-0.312,0.146-0.47,0.4-0.47,0.771c0,0.236,0.067,0.426,0.202,0.571
		c0.131,0.146,0.35,0.272,0.647,0.378c0.296,0.103,0.772,0.244,1.419,0.412c1.018,0.276,1.728,0.609,2.125,0.99
		c0.394,0.381,0.597,0.908,0.597,1.58c0,0.693-0.284,1.248-0.857,1.662c-0.573,0.415-1.417,0.623-2.537,0.623
		C108.002,293.037,107.407,292.967,106.781,292.826z"/>
	<path d="M114.097,292.289c-0.588-0.498-0.885-1.173-0.885-2.023c0-0.896,0.283-1.588,0.852-2.076
		c0.564-0.486,1.365-0.73,2.407-0.73c1.109,0,2.049,0.221,2.822,0.672v-0.423c0-0.634-0.193-1.112-0.58-1.416
		c-0.386-0.308-0.994-0.462-1.823-0.462c-0.491,0-0.973,0.047-1.437,0.143c-0.465,0.096-0.883,0.227-1.252,0.395v-1.378
		c0.336-0.157,0.773-0.283,1.311-0.378c0.54-0.096,1.062-0.143,1.562-0.143c1.33,0,2.319,0.293,2.962,0.881
		c0.646,0.593,0.969,1.407,0.969,2.445v4.989h-1.596v-0.907c-0.347,0.381-0.759,0.67-1.237,0.865
		c-0.478,0.195-1.057,0.295-1.737,0.295C115.467,293.037,114.685,292.787,114.097,292.289z M118.323,291.424
		c0.436-0.217,0.761-0.511,0.974-0.891v-1.092c-0.728-0.471-1.54-0.705-2.436-0.705c-0.65,0-1.134,0.126-1.453,0.378
		c-0.32,0.248-0.479,0.632-0.479,1.151c0,0.985,0.644,1.478,1.932,1.478C117.398,291.743,117.885,291.637,118.323,291.424z"/>
	<path d="M123.396,282.856c-0.19-0.19-0.283-0.426-0.283-0.706c0-0.279,0.095-0.515,0.283-0.705c0.189-0.19,0.425-0.286,0.708-0.286
		c0.291,0,0.535,0.096,0.73,0.286c0.194,0.189,0.294,0.422,0.294,0.705c0,0.277-0.1,0.512-0.294,0.706
		c-0.195,0.189-0.439,0.285-0.73,0.285C123.822,283.142,123.586,283.047,123.396,282.856z M123.244,284.721h1.734v8.064h-1.734
		V284.721z"/>
	<path d="M127.311,284.721h1.646v1.444c0.336-0.489,0.809-0.856,1.419-1.092c0.611-0.235,1.319-0.353,2.126-0.353v1.326
		c-0.862,0-1.603,0.141-2.218,0.424c-0.617,0.277-1.042,0.723-1.277,1.326v4.99h-1.697V284.721L127.311,284.721z"/>
	<path d="M134.442,291.92c-0.847-0.744-1.27-1.795-1.27-3.15c0-1.326,0.378-2.373,1.134-3.141c0.755-0.773,1.834-1.16,3.234-1.16
		c0.927,0,1.716,0.177,2.369,0.529c0.649,0.357,1.14,0.84,1.471,1.466c0.329,0.621,0.495,1.327,0.495,2.121v0.841h-7.09
		c0.056,0.761,0.378,1.33,0.966,1.706c0.588,0.377,1.386,0.563,2.394,0.563c0.515,0,1.036-0.048,1.562-0.143
		c0.526-0.096,0.991-0.219,1.395-0.379v1.361c-0.362,0.145-0.832,0.266-1.419,0.361c-0.588,0.095-1.168,0.143-1.738,0.143
		C136.455,293.037,135.287,292.664,134.442,291.92z M140.279,288.232c-0.02-0.762-0.272-1.353-0.745-1.769
		c-0.479-0.423-1.152-0.63-2.027-0.63c-0.851,0-1.512,0.22-1.982,0.657s-0.715,1.017-0.739,1.745L140.279,288.232L140.279,288.232z"
		/>
	<path d="M144.748,291.895h1.782l-1.596,3.377h-1.546L144.748,291.895z"/>
	<path d="M155.525,291.92c-0.846-0.744-1.268-1.795-1.268-3.15c0-1.326,0.378-2.373,1.133-3.141c0.754-0.773,1.83-1.16,3.23-1.16
		c0.93,0,1.721,0.177,2.373,0.529c0.65,0.357,1.139,0.84,1.471,1.466c0.33,0.621,0.495,1.327,0.495,2.121v0.841h-7.089
		c0.055,0.761,0.377,1.33,0.965,1.706c0.589,0.376,1.387,0.563,2.395,0.563c0.515,0,1.035-0.048,1.563-0.143
		c0.525-0.096,0.99-0.219,1.39-0.379v1.361c-0.358,0.145-0.831,0.266-1.415,0.361c-0.588,0.095-1.168,0.143-1.738,0.143
		C157.539,293.037,156.371,292.664,155.525,291.92z M161.363,288.232c-0.021-0.762-0.272-1.353-0.744-1.769
		c-0.479-0.423-1.152-0.63-2.027-0.63c-0.852,0-1.512,0.22-1.982,0.657c-0.47,0.438-0.715,1.017-0.738,1.745L161.363,288.232
		L161.363,288.232z"/>
	<path d="M166.024,292.331c-0.442-0.47-0.663-1.136-0.663-1.999v-4.301h-1.227v-1.311h1.227v-2.418h1.713v2.418h1.982v1.311h-1.982
		v4.184c0,0.54,0.104,0.92,0.312,1.143c0.207,0.224,0.585,0.336,1.134,0.336c0.324,0,0.649-0.073,0.975-0.22v1.349
		c-0.425,0.145-0.951,0.219-1.58,0.219C167.098,293.037,166.467,292.803,166.024,292.331z"/>
</g>
<g enable-background="new    ">
	<path d="M59.028,312.078c-0.846-0.744-1.269-1.794-1.269-3.149c0-1.321,0.377-2.368,1.134-3.142
		c0.755-0.771,1.834-1.158,3.234-1.158c0.93,0,1.719,0.176,2.369,0.533c0.649,0.352,1.14,0.836,1.473,1.461
		c0.33,0.621,0.495,1.326,0.495,2.125v0.836h-7.092c0.056,0.764,0.379,1.33,0.969,1.707c0.588,0.375,1.386,0.563,2.394,0.563
		c0.513,0,1.036-0.044,1.561-0.144c0.526-0.094,0.991-0.219,1.394-0.377v1.359c-0.359,0.146-0.832,0.267-1.419,0.362
		c-0.588,0.099-1.167,0.143-1.735,0.143C61.04,313.196,59.873,312.824,59.028,312.078z M64.866,308.392
		c-0.023-0.762-0.275-1.353-0.748-1.769c-0.476-0.424-1.151-0.63-2.025-0.63c-0.851,0-1.512,0.22-1.982,0.657
		c-0.47,0.438-0.716,1.02-0.742,1.747h5.497V308.392L64.866,308.392z"/>
	<path d="M68.31,304.881h1.646v1.158c0.38-0.482,0.848-0.836,1.403-1.066c0.554-0.229,1.134-0.344,1.739-0.344
		c1.074,0,1.876,0.285,2.402,0.859c0.526,0.569,0.79,1.339,0.79,2.303v5.157h-1.697v-4.989c0-1.311-0.627-1.97-1.881-1.97
		c-0.54,0-1.039,0.126-1.503,0.378c-0.466,0.252-0.862,0.636-1.202,1.152v5.427H68.31L68.31,304.881L68.31,304.881z"/>
	<path d="M79.582,312.986c-0.627-0.141-1.121-0.328-1.479-0.563v-1.445c0.438,0.258,0.944,0.468,1.512,0.63
		c0.571,0.16,1.125,0.244,1.664,0.244c0.604,0,1.047-0.073,1.327-0.219c0.28-0.146,0.421-0.381,0.421-0.71
		c0-0.246-0.065-0.445-0.19-0.597c-0.131-0.151-0.347-0.288-0.657-0.411c-0.307-0.123-0.77-0.27-1.385-0.438
		c-0.661-0.189-1.184-0.383-1.571-0.579s-0.678-0.445-0.873-0.747c-0.196-0.303-0.294-0.69-0.294-1.176
		c0-0.772,0.305-1.356,0.916-1.756c0.61-0.397,1.431-0.599,2.461-0.599c0.54,0,1.064,0.051,1.583,0.155
		c0.512,0.102,0.926,0.241,1.241,0.42v1.411c-0.326-0.188-0.726-0.337-1.202-0.452c-0.476-0.111-0.96-0.167-1.453-0.167
		c-0.594,0-1.047,0.073-1.359,0.22c-0.312,0.146-0.472,0.398-0.472,0.771c0,0.236,0.069,0.426,0.201,0.571
		c0.134,0.146,0.35,0.272,0.649,0.378c0.296,0.104,0.771,0.244,1.417,0.412c1.019,0.276,1.727,0.61,2.125,0.99
		c0.397,0.381,0.598,0.908,0.598,1.58c0,0.694-0.283,1.248-0.857,1.663c-0.57,0.414-1.416,0.622-2.538,0.622
		C80.803,313.196,80.208,313.126,79.582,312.986z"/>
	<path d="M87.536,312.078c-0.845-0.744-1.269-1.794-1.269-3.149c0-1.321,0.379-2.368,1.132-3.142
		c0.756-0.771,1.833-1.158,3.233-1.158c0.93,0,1.72,0.176,2.372,0.533c0.649,0.352,1.14,0.836,1.47,1.461
		c0.332,0.621,0.497,1.326,0.497,2.125v0.836h-7.09c0.056,0.764,0.378,1.33,0.967,1.707c0.588,0.375,1.385,0.563,2.394,0.563
		c0.515,0,1.035-0.044,1.561-0.144c0.526-0.094,0.991-0.219,1.392-0.377v1.359c-0.359,0.146-0.832,0.267-1.417,0.362
		c-0.588,0.099-1.168,0.143-1.739,0.143C89.551,313.196,88.383,312.824,87.536,312.078z M93.375,308.392
		c-0.022-0.762-0.271-1.353-0.746-1.769c-0.478-0.424-1.151-0.63-2.025-0.63c-0.853,0-1.512,0.22-1.982,0.657
		c-0.471,0.438-0.715,1.02-0.74,1.747h5.494V308.392z"/>
	<path d="M96.818,304.881h1.617v1.158c0.38-0.471,0.809-0.822,1.293-1.059c0.482-0.238,0.98-0.356,1.496-0.356
		c0.653,0,1.165,0.109,1.545,0.331c0.381,0.219,0.661,0.553,0.84,1c0.359-0.438,0.798-0.768,1.319-0.991
		c0.521-0.224,1.044-0.335,1.571-0.335c0.985,0,1.697,0.248,2.134,0.746c0.436,0.498,0.656,1.234,0.656,2.209v5.359h-1.647v-5.145
		c0-0.657-0.124-1.125-0.368-1.402c-0.248-0.275-0.666-0.412-1.262-0.412c-0.852,0-1.546,0.369-2.083,1.109
		c0.021,0.167,0.033,0.441,0.033,0.822v5.027h-1.647v-5.145c0-0.657-0.11-1.125-0.335-1.402c-0.224-0.275-0.627-0.412-1.21-0.412
		c-0.854,0-1.616,0.481-2.287,1.443v5.51h-1.664L96.818,304.881L96.818,304.881z"/>
	<path d="M114.5,312.852c-0.532-0.225-1.021-0.59-1.47-1.083v1.18h-1.646v-12.415h1.697v5.426c0.366-0.437,0.845-0.767,1.427-0.991
		c0.583-0.224,1.21-0.335,1.881-0.335c0.806,0,1.532,0.183,2.176,0.543c0.644,0.365,1.148,0.871,1.512,1.521
		c0.364,0.653,0.542,1.395,0.542,2.233c0,0.852-0.182,1.6-0.542,2.243c-0.365,0.645-0.868,1.143-1.512,1.495
		c-0.644,0.354-1.37,0.529-2.176,0.529C115.662,313.196,115.032,313.081,114.5,312.852z M117.491,311.49
		c0.442-0.244,0.79-0.584,1.041-1.035c0.25-0.447,0.379-0.957,0.379-1.529c0-0.57-0.129-1.08-0.379-1.531
		c-0.251-0.448-0.598-0.795-1.041-1.038c-0.443-0.248-0.939-0.369-1.487-0.369c-0.684,0-1.294,0.185-1.832,0.554
		c-0.538,0.369-0.901,0.863-1.092,1.479v1.814c0.212,0.616,0.58,1.106,1.101,1.471c0.517,0.365,1.125,0.546,1.823,0.546
		C116.552,311.853,117.048,311.732,117.491,311.49z"/>
	<path d="M122.472,300.529h1.697v12.415h-1.697V300.529z"/>
	<path d="M127.285,312.078c-0.846-0.744-1.269-1.794-1.269-3.149c0-1.321,0.378-2.368,1.135-3.142
		c0.755-0.771,1.833-1.158,3.233-1.158c0.929,0,1.719,0.176,2.369,0.533c0.65,0.352,1.139,0.836,1.473,1.461
		c0.331,0.621,0.496,1.326,0.496,2.125v0.836h-7.09c0.055,0.764,0.376,1.33,0.966,1.707c0.588,0.375,1.385,0.563,2.394,0.563
		c0.512,0,1.035-0.044,1.561-0.144c0.526-0.094,0.991-0.219,1.395-0.377v1.359c-0.359,0.146-0.832,0.267-1.417,0.362
		c-0.59,0.099-1.168,0.143-1.737,0.143C129.298,313.196,128.13,312.824,127.285,312.078z M133.123,308.392
		c-0.022-0.762-0.272-1.353-0.748-1.769c-0.476-0.424-1.151-0.63-2.024-0.63c-0.851,0-1.512,0.22-1.982,0.657
		c-0.47,0.438-0.717,1.02-0.739,1.747h5.494V308.392z"/>
	<path d="M143.976,312.986c-0.627-0.141-1.12-0.328-1.479-0.563v-1.445c0.437,0.258,0.944,0.468,1.512,0.63
		c0.57,0.16,1.125,0.244,1.663,0.244c0.604,0,1.047-0.073,1.327-0.219c0.277-0.146,0.42-0.381,0.42-0.71
		c0-0.246-0.065-0.445-0.192-0.597c-0.13-0.151-0.344-0.288-0.656-0.411c-0.308-0.123-0.771-0.27-1.385-0.438
		c-0.659-0.189-1.182-0.383-1.568-0.579c-0.39-0.196-0.681-0.445-0.874-0.747c-0.196-0.303-0.295-0.69-0.295-1.176
		c0-0.772,0.307-1.356,0.917-1.756c0.61-0.397,1.431-0.599,2.462-0.599c0.54,0,1.064,0.051,1.58,0.155
		c0.511,0.102,0.929,0.241,1.24,0.42v1.411c-0.324-0.188-0.725-0.337-1.2-0.452c-0.479-0.111-0.961-0.167-1.454-0.167
		c-0.595,0-1.047,0.073-1.359,0.22c-0.312,0.146-0.471,0.398-0.471,0.771c0,0.236,0.068,0.426,0.201,0.571
		c0.134,0.146,0.35,0.272,0.648,0.378c0.297,0.104,0.771,0.244,1.417,0.412c1.018,0.276,1.729,0.61,2.125,0.99
		c0.396,0.381,0.599,0.908,0.599,1.58c0,0.694-0.284,1.248-0.858,1.663c-0.571,0.414-1.415,0.622-2.537,0.622
		C145.196,313.196,144.602,313.126,143.976,312.986z"/>
	<path d="M151.291,312.449c-0.588-0.503-0.882-1.178-0.882-2.028c0-0.896,0.28-1.588,0.849-2.075c0.566-0.486,1.369-0.73,2.407-0.73
		c1.108,0,2.053,0.224,2.823,0.672v-0.423c0-0.636-0.19-1.112-0.58-1.417c-0.387-0.308-0.994-0.461-1.822-0.461
		c-0.492,0-0.975,0.047-1.438,0.142c-0.464,0.096-0.884,0.228-1.252,0.394v-1.377c0.336-0.157,0.773-0.283,1.312-0.379
		c0.538-0.094,1.06-0.143,1.56-0.143c1.333,0,2.321,0.295,2.965,0.887c0.645,0.588,0.967,1.402,0.967,2.439v4.99h-1.596v-0.907
		c-0.348,0.381-0.76,0.669-1.235,0.865c-0.479,0.196-1.058,0.294-1.739,0.294C152.661,313.196,151.879,312.947,151.291,312.449z
		 M155.518,311.583c0.436-0.212,0.761-0.511,0.974-0.89v-1.093c-0.728-0.47-1.54-0.706-2.435-0.706
		c-0.654,0-1.135,0.127-1.453,0.379c-0.32,0.248-0.482,0.636-0.482,1.15c0,0.986,0.645,1.479,1.936,1.479
		C154.594,311.902,155.08,311.797,155.518,311.583z"/>
	<path d="M161.051,312.322c-0.553-0.582-0.832-1.356-0.832-2.334v-5.107h1.697v5.039c0,1.289,0.645,1.933,1.934,1.933
		c1.131,0,2.018-0.511,2.653-1.529v-5.442h1.7v8.064h-1.648v-1.146c-0.381,0.482-0.831,0.835-1.353,1.063
		c-0.521,0.221-1.085,0.335-1.688,0.335C162.427,313.196,161.606,312.905,161.051,312.322z"/>
	<path d="M169.629,304.881h1.793l2.371,5.795l2.371-5.795h1.795l-3.428,8.064h-1.479L169.629,304.881z"/>
	<path d="M180.573,312.684c-0.688-0.342-1.226-0.834-1.612-1.479c-0.39-0.645-0.58-1.402-0.58-2.276c0-0.862,0.19-1.62,0.568-2.268
		c0.383-0.649,0.92-1.151,1.618-1.502c0.692-0.356,1.495-0.533,2.401-0.533c0.91,0,1.707,0.177,2.404,0.533
		c0.694,0.353,1.238,0.854,1.62,1.502c0.388,0.649,0.579,1.405,0.579,2.268c0,0.874-0.191,1.632-0.579,2.276
		c-0.386,0.645-0.926,1.137-1.62,1.479c-0.692,0.338-1.494,0.51-2.404,0.51C182.061,313.196,181.262,313.025,180.573,312.684z
		 M185.051,311.047c0.514-0.539,0.771-1.24,0.771-2.115c0-0.906-0.258-1.623-0.771-2.149c-0.513-0.526-1.211-0.79-2.085-0.79
		s-1.567,0.264-2.085,0.79c-0.512,0.526-0.773,1.243-0.773,2.149c0,0.874,0.258,1.58,0.773,2.115
		c0.516,0.539,1.21,0.806,2.085,0.806S184.535,311.583,185.051,311.047z"/>
	<path d="M189.42,304.881h1.648v1.158c0.38-0.482,0.848-0.836,1.402-1.066c0.555-0.229,1.135-0.344,1.736-0.344
		c1.074,0,1.879,0.285,2.404,0.859c0.527,0.569,0.79,1.339,0.79,2.303v5.157h-1.696v-4.989c0-1.311-0.628-1.97-1.881-1.97
		c-0.539,0-1.036,0.126-1.504,0.378c-0.465,0.252-0.865,0.636-1.201,1.152v5.427h-1.697v-8.065H189.42L189.42,304.881z"/>
	<path d="M200.691,312.986c-0.627-0.141-1.123-0.328-1.479-0.563v-1.445c0.438,0.258,0.941,0.468,1.512,0.63
		c0.569,0.16,1.123,0.244,1.664,0.244c0.604,0,1.047-0.073,1.326-0.219s0.424-0.381,0.424-0.71c0-0.246-0.066-0.445-0.192-0.597
		c-0.132-0.151-0.347-0.288-0.656-0.411c-0.306-0.123-0.772-0.27-1.386-0.438c-0.659-0.189-1.183-0.383-1.57-0.579
		c-0.387-0.196-0.678-0.445-0.873-0.747c-0.195-0.303-0.295-0.69-0.295-1.176c0-0.772,0.307-1.356,0.917-1.756
		c0.61-0.397,1.432-0.599,2.464-0.599c0.539,0,1.064,0.051,1.58,0.155c0.512,0.102,0.928,0.241,1.24,0.42v1.411
		c-0.326-0.188-0.724-0.337-1.202-0.452c-0.478-0.111-0.959-0.167-1.45-0.167c-0.598,0-1.048,0.073-1.361,0.22
		c-0.313,0.146-0.47,0.398-0.47,0.771c0,0.236,0.067,0.426,0.2,0.571s0.351,0.272,0.648,0.378c0.295,0.104,0.771,0.244,1.418,0.412
		c1.018,0.276,1.729,0.61,2.125,0.99c0.395,0.381,0.598,0.908,0.598,1.58c0,0.694-0.285,1.248-0.857,1.663
		c-0.572,0.414-1.416,0.622-2.537,0.622C201.912,313.196,201.318,313.126,200.691,312.986z"/>
</g>
<g enable-background="new    ">
	<path d="M58.095,325.041h1.646v1.158c0.38-0.48,0.849-0.836,1.403-1.066c0.554-0.225,1.134-0.34,1.739-0.34
		c1.075,0,1.876,0.281,2.402,0.856s0.79,1.339,0.79,2.302v5.158h-1.697v-4.99c0-1.311-0.627-1.969-1.882-1.969
		c-0.54,0-1.039,0.129-1.503,0.377c-0.465,0.252-0.862,0.637-1.201,1.152v5.426h-1.696L58.095,325.041L58.095,325.041z"/>
	<path d="M69.78,332.844c-0.686-0.342-1.227-0.834-1.613-1.479c-0.386-0.644-0.579-1.402-0.579-2.275c0-0.86,0.19-1.619,0.57-2.268
		c0.381-0.65,0.919-1.152,1.613-1.502c0.695-0.352,1.496-0.529,2.403-0.529c0.908,0,1.707,0.176,2.405,0.529
		c0.698,0.353,1.236,0.854,1.619,1.502c0.39,0.652,0.58,1.409,0.58,2.268c0,0.873-0.19,1.632-0.58,2.275
		c-0.386,0.645-0.924,1.137-1.619,1.479c-0.694,0.342-1.497,0.51-2.405,0.51C71.267,333.357,70.468,333.186,69.78,332.844z
		 M74.257,331.207c0.512-0.541,0.773-1.244,0.773-2.117c0-0.908-0.258-1.624-0.773-2.15s-1.21-0.789-2.085-0.789
		s-1.565,0.263-2.084,0.789c-0.514,0.526-0.772,1.242-0.772,2.15c0,0.873,0.258,1.578,0.772,2.117
		c0.513,0.537,1.21,0.802,2.084,0.802C73.045,332.009,73.742,331.744,74.257,331.207z"/>
	<path d="M79.59,332.65c-0.445-0.47-0.663-1.136-0.663-1.997v-4.303h-1.227v-1.31h1.227v-2.42h1.713v2.42h1.982v1.31H80.64v4.187
		c0,0.537,0.103,0.918,0.308,1.142c0.207,0.224,0.585,0.335,1.134,0.335c0.324,0,0.65-0.072,0.977-0.219v1.344
		c-0.425,0.146-0.951,0.219-1.581,0.219C80.663,333.357,80.033,333.121,79.59,332.65z"/>
	<path d="M84.656,325.041h1.647v1.444c0.335-0.493,0.807-0.86,1.416-1.095c0.611-0.234,1.323-0.353,2.126-0.353v1.327
		c-0.86,0-1.602,0.141-2.217,0.42c-0.617,0.281-1.041,0.723-1.276,1.328v4.989h-1.697L84.656,325.041L84.656,325.041z"/>
	<path d="M91.787,332.239c-0.847-0.743-1.269-1.794-1.269-3.149c0-1.322,0.378-2.369,1.135-3.142
		c0.755-0.772,1.833-1.155,3.233-1.155c0.93,0,1.719,0.176,2.37,0.529c0.65,0.353,1.139,0.84,1.473,1.461
		c0.331,0.621,0.496,1.33,0.496,2.125v0.841h-7.091c0.054,0.761,0.375,1.327,0.967,1.704c0.588,0.376,1.385,0.566,2.394,0.566
		c0.513,0,1.036-0.047,1.561-0.141c0.526-0.1,0.991-0.223,1.395-0.379v1.356c-0.358,0.146-0.832,0.267-1.417,0.365
		c-0.589,0.095-1.168,0.142-1.738,0.142C93.8,333.357,92.632,332.984,91.787,332.239z M97.625,328.552
		c-0.022-0.761-0.272-1.356-0.748-1.772c-0.476-0.423-1.151-0.629-2.024-0.629c-0.851,0-1.512,0.219-1.982,0.656
		c-0.471,0.438-0.717,1.02-0.739,1.748L97.625,328.552L97.625,328.552z"/>
	<path d="M108.502,332.65c-0.442-0.47-0.663-1.136-0.663-1.997v-4.303h-1.226v-1.31h1.226v-2.42h1.713v2.42h1.982v1.31h-1.982v4.187
		c0,0.537,0.102,0.918,0.31,1.142s0.586,0.335,1.132,0.335c0.327,0,0.652-0.072,0.977-0.219v1.344
		c-0.425,0.146-0.952,0.219-1.579,0.219C109.575,333.357,108.944,333.121,108.502,332.65z"/>
	<path d="M114.5,332.239c-0.846-0.743-1.269-1.794-1.269-3.149c0-1.322,0.379-2.369,1.135-3.142
		c0.755-0.772,1.833-1.155,3.233-1.155c0.93,0,1.719,0.176,2.37,0.529c0.649,0.353,1.139,0.84,1.47,1.461
		c0.333,0.621,0.496,1.33,0.496,2.125v0.841h-7.089c0.056,0.761,0.377,1.327,0.966,1.704c0.591,0.377,1.385,0.566,2.395,0.566
		c0.514,0,1.036-0.047,1.562-0.141c0.526-0.1,0.991-0.223,1.394-0.379v1.356c-0.358,0.146-0.832,0.267-1.418,0.365
		c-0.588,0.095-1.168,0.142-1.739,0.142C116.512,333.357,115.346,332.984,114.5,332.239z M120.338,328.552
		c-0.022-0.761-0.275-1.356-0.748-1.772c-0.476-0.423-1.151-0.629-2.024-0.629c-0.852,0-1.512,0.219-1.982,0.656
		c-0.471,0.438-0.717,1.02-0.742,1.748L120.338,328.552L120.338,328.552z"/>
	<path d="M123.782,325.041h1.646v1.444c0.336-0.493,0.809-0.86,1.419-1.095c0.61-0.233,1.319-0.353,2.125-0.353v1.327
		c-0.862,0-1.602,0.141-2.218,0.42c-0.617,0.281-1.042,0.723-1.277,1.328v4.989h-1.697V325.041L123.782,325.041z"/>
	<path d="M130.4,325.041h1.647v1.444c0.335-0.493,0.809-0.86,1.419-1.095c0.61-0.234,1.319-0.353,2.125-0.353v1.327
		c-0.862,0-1.601,0.141-2.218,0.42c-0.617,0.281-1.042,0.723-1.277,1.328v4.989H130.4V325.041L130.4,325.041z"/>
	<path d="M137.533,332.239c-0.846-0.743-1.269-1.794-1.269-3.149c0-1.322,0.377-2.369,1.133-3.142
		c0.753-0.772,1.831-1.155,3.231-1.155c0.93,0,1.719,0.176,2.372,0.529c0.649,0.353,1.14,0.84,1.471,1.461
		c0.33,0.621,0.496,1.33,0.496,2.125v0.841h-7.091c0.056,0.761,0.379,1.327,0.967,1.704c0.588,0.379,1.385,0.566,2.394,0.566
		c0.515,0,1.035-0.047,1.562-0.141c0.526-0.1,0.991-0.223,1.394-0.379v1.356c-0.362,0.146-0.832,0.267-1.42,0.365
		c-0.588,0.095-1.167,0.142-1.738,0.142C139.546,333.357,138.378,332.984,137.533,332.239z M143.37,328.552
		c-0.02-0.761-0.272-1.356-0.744-1.772c-0.479-0.423-1.152-0.629-2.027-0.629c-0.852,0-1.512,0.219-1.982,0.656
		s-0.715,1.02-0.74,1.748L143.37,328.552L143.37,328.552z"/>
	<path d="M146.705,332.878c-0.151-0.151-0.226-0.339-0.226-0.563s0.075-0.414,0.226-0.57s0.335-0.236,0.563-0.236
		c0.224,0,0.414,0.079,0.571,0.236c0.157,0.16,0.235,0.347,0.235,0.57c0,0.221-0.078,0.412-0.235,0.563
		c-0.161,0.151-0.347,0.227-0.571,0.227S146.856,333.029,146.705,332.878z"/>
</g>
</svg>
