<?xml version="1.0" encoding="utf-8"?>
<!-- Generator: Adobe Illustrator 16.0.0, SVG Export Plug-In . SVG Version: 6.00 Build 0)  -->
<!DOCTYPE svg PUBLIC "-//W3C//DTD SVG 1.1//EN" "http://www.w3.org/Graphics/SVG/1.1/DTD/svg11.dtd">
<svg version="1.1" id="Calque_1" xmlns="http://www.w3.org/2000/svg" xmlns:xlink="http://www.w3.org/1999/xlink" x="0px" y="0px"
	 width="198.425px" height="240.945px" viewBox="47.787 82.018 198.425 240.945"
	 enable-background="new 47.787 82.018 198.425 240.945" xml:space="preserve">
<g>
	<path fill="#FFFDFD" stroke="#000000" stroke-width="3" stroke-miterlimit="10" d="M143.866,99.527
		c3.916,0.642,8.131,2.53,11.307,4.958c8.209,6.271,10.375,19.774,5.516,29.65c-2.537,5.158-5.945,9.386-11.244,11.977
		c-7.662,3.745-16.224,1.954-22.844-4.951c-8.402-8.768-9.555-23.972-2.558-33.499c3.077-4.189,7.473-6.596,12.365-7.727
		c0.884-0.204,1.692-0.136,2.56-0.409C140.601,99.527,142.233,99.527,143.866,99.527z"/>
	<path fill="#FFFDFD" stroke="#000000" stroke-width="3" stroke-miterlimit="10" d="M96.874,188.262
		c0.003-3.032-0.059-6.066,0.015-9.097c0.257-10.659,8.023-18.508,18.701-18.584c17.143-0.121,34.287-0.119,51.432-0.006
		c10.527,0.07,18.351,7.709,18.728,18.253c0.241,6.639,0.217,13.299-0.044,19.936c-0.054,1.424-1.301,3.273-2.553,4.111
		c-24.412,16.429-54.071,18.915-79.879,2.519c-4.834-3.071-6.297-4.202-6.365-10.06C97.048,193.666,96.87,190.01,96.874,188.262z"/>
	<path d="M191.515,141.425c-4.072,0.045-4.112,0.008-4.112,0.008c-0.024-2.036-0.036-7.287,0.021-9.319
		c0.038-1.254,0.032-1.585,0.032-1.585c-2.709,0.025-8.471-0.036-11.143,0.06c0,0,0.011-1.07,0.026-2.084
		c0.015-0.983-0.026-2.12-0.026-2.12c3.127,0.084,7.685,0.029,11.089,0.029c0-2.726,0-8.3,0-10.834c0,0.063-0.599,0.041,4.096,0.041
		c0,2.789,0,7.951,0.004,10.788c0,0,0.001,0.002,2.399,0.003c2.787,0.002,5.578,0.001,8.505,0.001c0,1.361,0,2.604,0,4.118
		c-3.554,0-7.12,0-10.89,0C191.515,134.311,191.515,137.834,191.515,141.425z"/>
</g>
<g enable-background="new    ">
	<path d="M63.077,234.836h1.731v11.742h-1.731V234.836z"/>
	<path d="M66.992,238.516h1.647v1.158c0.38-0.482,0.848-0.836,1.403-1.066c0.554-0.229,1.133-0.344,1.738-0.344
		c1.074,0,1.876,0.285,2.403,0.859s0.789,1.338,0.789,2.303v5.156h-1.697v-4.992c0-1.307-0.627-1.967-1.881-1.967
		c-0.538,0-1.039,0.127-1.503,0.377c-0.466,0.254-0.866,0.637-1.202,1.152v5.43h-1.697L66.992,238.516L66.992,238.516z"/>
	<path d="M78.263,246.621c-0.627-0.141-1.121-0.328-1.478-0.564v-1.443c0.436,0.254,0.941,0.469,1.512,0.627
		c0.57,0.16,1.125,0.248,1.663,0.248c0.605,0,1.047-0.074,1.327-0.219c0.28-0.146,0.421-0.381,0.421-0.707
		c0-0.248-0.064-0.445-0.192-0.6c-0.13-0.15-0.347-0.287-0.655-0.41s-0.772-0.27-1.386-0.438c-0.661-0.189-1.184-0.383-1.571-0.58
		c-0.387-0.191-0.678-0.445-0.874-0.744c-0.195-0.305-0.294-0.693-0.294-1.178c0-0.773,0.306-1.357,0.917-1.756
		c0.61-0.395,1.43-0.598,2.462-0.598c0.537,0,1.064,0.049,1.579,0.15c0.514,0.104,0.93,0.244,1.242,0.422v1.414
		c-0.325-0.189-0.725-0.34-1.201-0.453c-0.478-0.111-0.961-0.166-1.453-0.166c-0.595,0-1.047,0.072-1.361,0.219
		c-0.314,0.146-0.471,0.4-0.471,0.773c0,0.234,0.068,0.424,0.202,0.568c0.133,0.146,0.35,0.273,0.647,0.379
		c0.296,0.104,0.77,0.244,1.418,0.412c1.02,0.277,1.729,0.609,2.126,0.99s0.597,0.908,0.597,1.58c0,0.693-0.286,1.248-0.858,1.662
		c-0.57,0.418-1.416,0.625-2.536,0.625C79.484,246.832,78.891,246.76,78.263,246.621z"/>
	<path d="M86.73,246.326c-0.693-0.336-1.235-0.826-1.62-1.471c-0.387-0.645-0.58-1.408-0.58-2.293c0-0.883,0.193-1.648,0.58-2.293
		c0.386-0.643,0.929-1.139,1.629-1.486c0.7-0.346,1.503-0.52,2.411-0.52c1.232,0,2.217,0.244,2.957,0.721v1.395
		c-0.728-0.504-1.658-0.756-2.788-0.756c-0.919,0-1.661,0.25-2.228,0.748c-0.567,0.498-0.848,1.229-0.848,2.191
		c0,0.965,0.28,1.691,0.839,2.186c0.561,0.492,1.294,0.74,2.202,0.74c1.131,0,2.106-0.271,2.924-0.807v1.381
		c-0.393,0.268-0.836,0.465-1.335,0.588c-0.498,0.127-1.083,0.188-1.755,0.188C88.221,246.832,87.425,246.662,86.73,246.326z"/>
	<path d="M94.056,238.516h1.647v1.443c0.335-0.492,0.809-0.855,1.419-1.092c0.61-0.234,1.319-0.357,2.125-0.357v1.328
		c-0.863,0-1.602,0.141-2.218,0.422c-0.617,0.279-1.042,0.723-1.277,1.326v4.99h-1.697V238.516L94.056,238.516z"/>
	<path d="M101.045,236.65c-0.19-0.189-0.286-0.424-0.286-0.707c0-0.279,0.095-0.514,0.286-0.705
		c0.189-0.189,0.424-0.285,0.706-0.285c0.291,0,0.535,0.096,0.73,0.285c0.197,0.191,0.294,0.426,0.294,0.705
		s-0.097,0.516-0.294,0.707c-0.195,0.189-0.439,0.285-0.73,0.285C101.47,236.936,101.235,236.84,101.045,236.65z M100.893,238.516
		h1.731v8.064h-1.731V238.516z"/>
	<path d="M106.151,246.621c-0.627-0.141-1.12-0.328-1.478-0.564v-1.443c0.437,0.254,0.94,0.469,1.512,0.627
		c0.57,0.16,1.125,0.248,1.663,0.248c0.605,0,1.047-0.074,1.327-0.219c0.279-0.146,0.42-0.381,0.42-0.707
		c0-0.248-0.064-0.445-0.192-0.6c-0.13-0.15-0.347-0.287-0.655-0.41s-0.772-0.27-1.386-0.438c-0.66-0.189-1.183-0.383-1.571-0.58
		c-0.386-0.191-0.677-0.445-0.874-0.744c-0.194-0.305-0.294-0.693-0.294-1.178c0-0.773,0.306-1.357,0.917-1.756
		c0.61-0.395,1.43-0.598,2.461-0.598c0.538,0,1.064,0.049,1.579,0.15c0.514,0.104,0.93,0.244,1.242,0.422v1.414
		c-0.324-0.189-0.724-0.34-1.2-0.453c-0.478-0.111-0.961-0.166-1.453-0.166c-0.594,0-1.047,0.072-1.361,0.219
		c-0.313,0.146-0.47,0.4-0.47,0.773c0,0.234,0.067,0.424,0.202,0.568c0.133,0.146,0.35,0.273,0.646,0.379
		c0.296,0.104,0.771,0.244,1.419,0.412c1.02,0.277,1.729,0.609,2.126,0.99c0.396,0.381,0.596,0.908,0.596,1.58
		c0,0.693-0.286,1.248-0.857,1.662c-0.57,0.418-1.416,0.625-2.536,0.625C107.372,246.832,106.778,246.76,106.151,246.621z"/>
	<path d="M112.838,240.885h5.359v1.395h-5.359V240.885z"/>
	<path d="M121.263,246.125c-0.443-0.471-0.663-1.137-0.663-2v-4.301h-1.227v-1.309h1.227v-2.42h1.713v2.42h1.982v1.309h-1.982v4.184
		c0,0.541,0.102,0.92,0.31,1.146c0.208,0.221,0.585,0.336,1.133,0.336c0.326,0,0.651-0.072,0.975-0.219v1.344
		c-0.425,0.145-0.951,0.219-1.579,0.219C122.336,246.832,121.705,246.596,121.263,246.125z"/>
	<path d="M128.101,246.318c-0.688-0.342-1.227-0.834-1.613-1.479s-0.579-1.402-0.579-2.277c0-0.861,0.189-1.619,0.571-2.266
		c0.38-0.65,0.918-1.152,1.613-1.502c0.693-0.355,1.495-0.531,2.403-0.531c0.907,0,1.707,0.176,2.403,0.531
		c0.694,0.352,1.235,0.854,1.62,1.502c0.387,0.648,0.58,1.404,0.58,2.266c0,0.875-0.192,1.633-0.58,2.277
		c-0.386,0.645-0.925,1.137-1.62,1.479c-0.695,0.34-1.496,0.512-2.403,0.512C129.587,246.832,128.789,246.658,128.101,246.318z
		 M132.578,244.68c0.515-0.541,0.773-1.242,0.773-2.117c0-0.906-0.257-1.623-0.773-2.148c-0.514-0.527-1.21-0.791-2.084-0.791
		c-0.873,0-1.566,0.264-2.083,0.791c-0.517,0.525-0.773,1.242-0.773,2.148c0,0.875,0.258,1.58,0.773,2.117s1.21,0.803,2.083,0.803
		C131.367,245.484,132.063,245.217,132.578,244.68z"/>
	<path d="M137.231,236.65c-0.19-0.189-0.285-0.424-0.285-0.707c0-0.279,0.095-0.514,0.285-0.705
		c0.189-0.189,0.425-0.285,0.706-0.285c0.291,0,0.535,0.096,0.731,0.285c0.196,0.191,0.294,0.426,0.294,0.705
		s-0.098,0.516-0.294,0.707c-0.196,0.189-0.44,0.285-0.731,0.285C137.657,236.936,137.421,236.84,137.231,236.65z M137.081,238.516
		h1.731v8.064h-1.731V238.516z"/>
	<path d="M153.577,238.516h1.648v1.191c0.828-0.963,1.947-1.443,3.359-1.443c0.807,0,1.531,0.178,2.176,0.537
		s1.148,0.859,1.511,1.504c0.365,0.645,0.544,1.391,0.544,2.242c0,0.84-0.184,1.586-0.544,2.23
		c-0.364,0.654-0.864,1.152-1.503,1.512s-1.365,0.541-2.184,0.541c-0.672,0-1.297-0.111-1.881-0.336
		c-0.582-0.223-1.061-0.555-1.428-0.99v4.754h-1.699V238.516L153.577,238.516z M159.685,245.125c0.443-0.24,0.791-0.586,1.042-1.033
		c0.251-0.451,0.378-0.963,0.378-1.545s-0.127-1.096-0.378-1.537c-0.251-0.443-0.599-0.785-1.042-1.025
		c-0.441-0.24-0.938-0.365-1.486-0.365c-0.684,0-1.285,0.184-1.806,0.541c-0.521,0.359-0.892,0.852-1.116,1.477v1.814
		c0.189,0.617,0.553,1.109,1.092,1.477c0.54,0.369,1.15,0.555,1.83,0.555C158.747,245.488,159.241,245.367,159.685,245.125z"/>
	<path d="M166.103,246.318c-0.688-0.342-1.227-0.834-1.613-1.479c-0.389-0.645-0.58-1.402-0.58-2.277c0-0.861,0.19-1.619,0.57-2.266
		c0.381-0.65,0.919-1.152,1.614-1.502c0.692-0.355,1.495-0.531,2.403-0.531c0.906,0,1.707,0.176,2.402,0.531
		c0.695,0.352,1.238,0.854,1.621,1.502c0.387,0.648,0.579,1.404,0.579,2.266c0,0.875-0.192,1.633-0.579,2.277
		s-0.926,1.137-1.621,1.479c-0.691,0.34-1.496,0.512-2.402,0.512C167.589,246.832,166.791,246.658,166.103,246.318z M170.579,244.68
		c0.514-0.541,0.771-1.242,0.771-2.117c0-0.906-0.256-1.623-0.771-2.148c-0.514-0.527-1.211-0.791-2.084-0.791
		s-1.567,0.264-2.084,0.791c-0.516,0.525-0.773,1.242-0.773,2.148c0,0.875,0.257,1.58,0.773,2.117
		c0.512,0.537,1.211,0.803,2.084,0.803S170.064,245.217,170.579,244.68z"/>
	<path d="M175.694,245.957c-0.553-0.582-0.831-1.357-0.831-2.334v-5.107h1.696v5.039c0,1.289,0.646,1.934,1.936,1.934
		c1.131,0,2.015-0.512,2.653-1.531v-5.441h1.696v8.064h-1.646v-1.143c-0.383,0.48-0.832,0.83-1.354,1.059
		c-0.521,0.225-1.085,0.336-1.689,0.336C177.069,246.832,176.249,246.541,175.694,245.957z"/>
	<path d="M185.026,238.516h1.648v1.443c0.336-0.492,0.808-0.855,1.419-1.092c0.61-0.234,1.317-0.357,2.124-0.357v1.328
		c-0.862,0-1.601,0.141-2.217,0.422s-1.042,0.723-1.277,1.326v4.99h-1.697V238.516L185.026,238.516z"/>
	<path d="M198.491,246.082c-0.588-0.498-0.882-1.174-0.882-2.023c0-0.896,0.282-1.59,0.849-2.08c0.568-0.482,1.369-0.73,2.41-0.73
		c1.109,0,2.05,0.223,2.822,0.672v-0.422c0-0.637-0.193-1.113-0.58-1.418s-0.994-0.461-1.822-0.461
		c-0.493,0-0.973,0.047-1.438,0.143c-0.465,0.1-0.883,0.227-1.253,0.395v-1.377c0.337-0.16,0.773-0.283,1.312-0.379
		c0.539-0.098,1.059-0.143,1.562-0.143c1.331,0,2.319,0.293,2.964,0.885c0.644,0.588,0.966,1.402,0.966,2.441v4.988h-1.595v-0.902
		c-0.346,0.381-0.758,0.67-1.236,0.861c-0.477,0.195-1.055,0.299-1.736,0.299C199.86,246.832,199.081,246.582,198.491,246.082z
		 M202.718,245.217c0.436-0.213,0.761-0.508,0.976-0.889v-1.094c-0.729-0.471-1.54-0.707-2.435-0.707
		c-0.651,0-1.135,0.127-1.453,0.379c-0.32,0.25-0.48,0.635-0.48,1.152c0,0.982,0.645,1.475,1.934,1.475
		C201.794,245.537,202.28,245.432,202.718,245.217z"/>
	<path d="M206.413,238.516h1.796l2.37,5.795l2.369-5.795h1.796l-3.427,8.064h-1.479L206.413,238.516z"/>
	<path d="M217.358,246.318c-0.687-0.342-1.227-0.834-1.613-1.479c-0.388-0.645-0.58-1.402-0.58-2.277
		c0-0.861,0.189-1.619,0.57-2.266c0.381-0.65,0.919-1.152,1.613-1.502c0.695-0.355,1.496-0.531,2.404-0.531
		c0.906,0,1.707,0.176,2.404,0.531c0.694,0.352,1.234,0.854,1.619,1.502c0.387,0.648,0.58,1.404,0.58,2.266
		c0,0.875-0.193,1.633-0.58,2.277s-0.926,1.137-1.619,1.479c-0.695,0.34-1.498,0.512-2.404,0.512
		C218.845,246.832,218.048,246.658,217.358,246.318z M221.836,244.68c0.513-0.541,0.772-1.242,0.772-2.117
		c0-0.906-0.258-1.623-0.772-2.148c-0.516-0.527-1.21-0.791-2.085-0.791s-1.566,0.264-2.084,0.791
		c-0.517,0.525-0.773,1.242-0.773,2.148c0,0.875,0.258,1.58,0.773,2.117c0.514,0.537,1.211,0.803,2.084,0.803
		S221.32,245.217,221.836,244.68z"/>
	<path d="M226.488,236.65c-0.19-0.189-0.284-0.424-0.284-0.707c0-0.279,0.096-0.514,0.284-0.705c0.19-0.189,0.425-0.285,0.706-0.285
		c0.291,0,0.537,0.096,0.732,0.285c0.193,0.191,0.294,0.426,0.294,0.705s-0.101,0.516-0.294,0.707
		c-0.195,0.189-0.441,0.285-0.732,0.285C226.915,236.936,226.68,236.84,226.488,236.65z M226.337,238.516h1.73v8.064h-1.73V238.516z
		"/>
	<path d="M230.403,238.516h1.646v1.443c0.336-0.492,0.809-0.855,1.42-1.092c0.609-0.234,1.318-0.357,2.125-0.357v1.328
		c-0.862,0-1.602,0.141-2.22,0.422c-0.616,0.279-1.039,0.723-1.274,1.326v4.99h-1.697V238.516z"/>
</g>
<g enable-background="new    ">
	<path d="M63.624,266.244c-0.589-0.5-0.883-1.174-0.883-2.025c0-0.896,0.283-1.59,0.849-2.074c0.566-0.488,1.37-0.732,2.411-0.732
		c1.109,0,2.049,0.221,2.822,0.674v-0.424c0-0.639-0.193-1.111-0.58-1.42c-0.387-0.307-0.994-0.459-1.823-0.459
		c-0.493,0-0.972,0.045-1.437,0.143c-0.464,0.096-0.882,0.225-1.252,0.395v-1.379c0.335-0.16,0.773-0.281,1.311-0.379
		c0.538-0.094,1.059-0.141,1.563-0.141c1.333,0,2.319,0.295,2.964,0.883c0.645,0.588,0.966,1.402,0.966,2.443v4.99h-1.596v-0.908
		c-0.347,0.381-0.759,0.67-1.234,0.865c-0.478,0.191-1.057,0.293-1.739,0.293C64.992,266.99,64.211,266.742,63.624,266.244z
		 M67.848,265.379c0.437-0.213,0.762-0.51,0.975-0.889v-1.094c-0.729-0.475-1.54-0.709-2.436-0.709
		c-0.649,0-1.133,0.129-1.453,0.377c-0.318,0.25-0.479,0.637-0.479,1.154c0,0.984,0.644,1.475,1.932,1.475
		C66.924,265.697,67.411,265.59,67.848,265.379z"/>
	<path d="M74.166,266.488c-0.694-0.336-1.235-0.828-1.621-1.471c-0.386-0.645-0.579-1.41-0.579-2.295
		c0-0.883,0.191-1.646,0.579-2.291c0.386-0.645,0.929-1.141,1.629-1.484c0.7-0.346,1.503-0.52,2.411-0.52
		c1.232,0,2.217,0.24,2.957,0.719v1.395c-0.728-0.506-1.658-0.758-2.788-0.758c-0.919,0-1.661,0.25-2.228,0.748
		c-0.566,0.498-0.848,1.23-0.848,2.191c0,0.965,0.28,1.691,0.84,2.186c0.56,0.492,1.293,0.74,2.201,0.74
		c1.131,0,2.106-0.27,2.924-0.803v1.377c-0.393,0.271-0.836,0.465-1.335,0.59c-0.498,0.125-1.084,0.186-1.756,0.186
		C75.654,266.99,74.859,266.822,74.166,266.488z"/>
	<path d="M83.103,266.488c-0.694-0.336-1.235-0.828-1.621-1.471c-0.387-0.645-0.58-1.41-0.58-2.295c0-0.883,0.192-1.646,0.58-2.291
		c0.386-0.645,0.93-1.141,1.629-1.484c0.7-0.346,1.502-0.52,2.41-0.52c1.232,0,2.218,0.24,2.958,0.719v1.395
		c-0.729-0.506-1.658-0.758-2.789-0.758c-0.919,0-1.66,0.25-2.226,0.748c-0.568,0.498-0.849,1.23-0.849,2.191
		c0,0.965,0.28,1.691,0.841,2.186c0.559,0.492,1.293,0.74,2.201,0.74c1.131,0,2.106-0.27,2.924-0.803v1.377
		c-0.393,0.271-0.837,0.465-1.335,0.59s-1.084,0.186-1.756,0.186C84.592,266.99,83.796,266.822,83.103,266.488z"/>
	<path d="M91.36,265.873c-0.845-0.744-1.269-1.793-1.269-3.15c0-1.32,0.378-2.367,1.133-3.139c0.756-0.773,1.833-1.156,3.233-1.156
		c0.93,0,1.72,0.176,2.37,0.529c0.65,0.352,1.139,0.84,1.471,1.461c0.331,0.625,0.495,1.33,0.495,2.125v0.84h-7.089
		c0.055,0.762,0.377,1.328,0.966,1.707c0.589,0.373,1.386,0.564,2.395,0.564c0.514,0,1.035-0.047,1.561-0.143
		c0.526-0.096,0.991-0.221,1.393-0.379v1.359c-0.358,0.146-0.832,0.268-1.418,0.363c-0.588,0.096-1.167,0.143-1.738,0.143
		C93.374,266.99,92.206,266.619,91.36,265.873z M97.198,262.186c-0.021-0.762-0.272-1.352-0.747-1.771
		c-0.477-0.42-1.151-0.631-2.024-0.631c-0.852,0-1.512,0.221-1.982,0.658s-0.717,1.02-0.74,1.746L97.198,262.186L97.198,262.186z
		 M92.494,254.879h1.797l1.158,2.889h-1.562L92.494,254.879z"/>
	<path d="M101.835,266.781c-0.627-0.139-1.121-0.328-1.478-0.563v-1.445c0.437,0.258,0.94,0.469,1.511,0.627
		c0.571,0.162,1.126,0.248,1.664,0.248c0.604,0,1.047-0.072,1.327-0.219s0.421-0.381,0.421-0.705c0-0.248-0.064-0.447-0.193-0.598
		c-0.129-0.154-0.347-0.289-0.656-0.412c-0.307-0.127-0.771-0.271-1.385-0.438c-0.66-0.189-1.184-0.387-1.571-0.58
		c-0.386-0.195-0.678-0.447-0.874-0.746c-0.195-0.303-0.294-0.693-0.294-1.176c0-0.773,0.306-1.357,0.916-1.76
		c0.611-0.395,1.43-0.596,2.462-0.596c0.539,0,1.065,0.047,1.579,0.15c0.515,0.104,0.93,0.244,1.243,0.424v1.412
		c-0.325-0.189-0.725-0.342-1.202-0.453c-0.478-0.111-0.961-0.168-1.453-0.168c-0.594,0-1.047,0.074-1.36,0.221
		c-0.313,0.145-0.47,0.402-0.47,0.771c0,0.236,0.067,0.424,0.202,0.57c0.134,0.145,0.35,0.275,0.647,0.377
		c0.296,0.105,0.771,0.246,1.419,0.412c1.018,0.279,1.728,0.609,2.124,0.99c0.397,0.381,0.598,0.912,0.598,1.584
		c0,0.689-0.286,1.244-0.857,1.662c-0.571,0.416-1.417,0.623-2.538,0.623C103.055,266.99,102.461,266.92,101.835,266.781z"/>
	<path d="M115.619,266.244c-0.588-0.5-0.882-1.174-0.882-2.025c0-0.896,0.282-1.59,0.848-2.074c0.567-0.488,1.369-0.732,2.41-0.732
		c1.109,0,2.05,0.221,2.823,0.674v-0.424c0-0.639-0.194-1.111-0.58-1.42c-0.387-0.307-0.994-0.459-1.823-0.459
		c-0.493,0-0.972,0.045-1.437,0.143c-0.464,0.096-0.882,0.225-1.251,0.395v-1.379c0.335-0.16,0.772-0.281,1.31-0.379
		c0.538-0.094,1.059-0.141,1.563-0.141c1.332,0,2.319,0.295,2.964,0.883c0.644,0.588,0.967,1.402,0.967,2.443v4.99h-1.595v-0.908
		c-0.348,0.381-0.759,0.67-1.236,0.865c-0.477,0.191-1.056,0.293-1.737,0.293C116.987,266.99,116.206,266.742,115.619,266.244z
		 M119.844,265.379c0.437-0.213,0.761-0.51,0.976-0.889v-1.094c-0.729-0.475-1.541-0.709-2.436-0.709
		c-0.65,0-1.134,0.129-1.453,0.377c-0.319,0.25-0.479,0.637-0.479,1.154c0,0.984,0.644,1.475,1.932,1.475
		C118.919,265.697,119.407,265.59,119.844,265.379z M116.854,254.879h1.796l1.159,2.889h-1.563L116.854,254.879z"/>
	<path d="M132.066,266.285c-0.442-0.471-0.663-1.137-0.663-1.998v-4.303h-1.227v-1.309h1.227v-2.42h1.713v2.42h1.982v1.309h-1.982
		v4.186c0,0.541,0.103,0.92,0.311,1.143c0.207,0.223,0.585,0.336,1.133,0.336c0.325,0,0.65-0.072,0.975-0.219v1.344
		c-0.424,0.145-0.951,0.219-1.579,0.219C133.139,266.99,132.508,266.756,132.066,266.285z"/>
	<path d="M138.904,266.479c-0.689-0.342-1.227-0.834-1.614-1.479c-0.386-0.645-0.579-1.402-0.579-2.277
		c0-0.859,0.189-1.617,0.571-2.266c0.381-0.65,0.919-1.152,1.612-1.502c0.695-0.354,1.496-0.529,2.404-0.529
		c0.906,0,1.706,0.176,2.402,0.529c0.695,0.354,1.235,0.855,1.621,1.502c0.385,0.652,0.58,1.408,0.58,2.266
		c0,0.875-0.195,1.633-0.58,2.277c-0.387,0.645-0.928,1.137-1.621,1.479c-0.695,0.342-1.496,0.512-2.402,0.512
		C140.39,266.99,139.592,266.82,138.904,266.479z M143.382,264.84c0.514-0.537,0.772-1.242,0.772-2.117
		c0-0.906-0.259-1.621-0.772-2.148c-0.515-0.525-1.211-0.791-2.084-0.791c-0.874,0-1.568,0.266-2.085,0.791
		c-0.515,0.527-0.773,1.242-0.773,2.148c0,0.875,0.257,1.58,0.773,2.117c0.516,0.539,1.21,0.807,2.085,0.807
		C142.172,265.646,142.865,265.379,143.382,264.84z"/>
	<path d="M148.495,266.117c-0.554-0.582-0.83-1.361-0.83-2.336v-5.105h1.696v5.035c0,1.291,0.644,1.936,1.932,1.936
		c1.131,0,2.017-0.51,2.653-1.531v-5.439h1.699v8.063h-1.648v-1.141c-0.38,0.48-0.832,0.834-1.353,1.057
		c-0.521,0.225-1.085,0.336-1.688,0.336C149.87,266.99,149.05,266.699,148.495,266.117z"/>
	<path d="M159.021,266.781c-0.627-0.139-1.121-0.328-1.479-0.563v-1.445c0.438,0.258,0.943,0.469,1.513,0.627
		c0.569,0.162,1.125,0.248,1.663,0.248c0.604,0,1.047-0.072,1.326-0.219s0.422-0.381,0.422-0.705c0-0.248-0.066-0.447-0.191-0.598
		c-0.131-0.154-0.346-0.289-0.656-0.412c-0.307-0.127-0.771-0.271-1.385-0.438c-0.66-0.189-1.184-0.387-1.57-0.58
		c-0.387-0.195-0.678-0.447-0.873-0.746c-0.197-0.303-0.294-0.693-0.294-1.176c0-0.773,0.305-1.357,0.915-1.76
		c0.611-0.395,1.43-0.596,2.463-0.596c0.539,0,1.065,0.047,1.58,0.15c0.512,0.102,0.93,0.244,1.24,0.424v1.412
		c-0.324-0.189-0.725-0.342-1.201-0.453s-0.961-0.168-1.453-0.168c-0.594,0-1.047,0.074-1.357,0.221
		c-0.313,0.145-0.471,0.402-0.471,0.771c0,0.236,0.066,0.424,0.199,0.57c0.135,0.145,0.35,0.275,0.65,0.377
		c0.295,0.105,0.77,0.246,1.416,0.412c1.02,0.279,1.729,0.609,2.125,0.99s0.597,0.912,0.597,1.584c0,0.689-0.284,1.244-0.859,1.662
		c-0.569,0.416-1.414,0.623-2.536,0.623C160.241,266.99,159.647,266.92,159.021,266.781z"/>
	<path d="M172.259,254.324h1.697v12.414h-1.697V254.324z"/>
	<path d="M177.071,265.873c-0.845-0.744-1.269-1.793-1.269-3.15c0-1.32,0.378-2.367,1.132-3.139
		c0.756-0.773,1.834-1.156,3.233-1.156c0.929,0,1.719,0.176,2.372,0.529c0.649,0.352,1.139,0.84,1.47,1.461
		c0.331,0.625,0.497,1.33,0.497,2.125v0.84h-7.091c0.056,0.762,0.378,1.328,0.966,1.707c0.588,0.373,1.386,0.564,2.395,0.564
		c0.514,0,1.035-0.047,1.562-0.143s0.991-0.221,1.393-0.379v1.359c-0.36,0.146-0.832,0.268-1.417,0.363
		c-0.589,0.096-1.168,0.143-1.739,0.143C179.085,266.99,177.917,266.619,177.071,265.873z M182.909,262.186
		c-0.021-0.762-0.271-1.352-0.745-1.771c-0.478-0.42-1.152-0.631-2.026-0.631c-0.852,0-1.512,0.221-1.982,0.658
		s-0.715,1.02-0.739,1.746L182.909,262.186L182.909,262.186z"/>
	<path d="M187.547,266.781c-0.628-0.139-1.122-0.328-1.479-0.563v-1.445c0.437,0.258,0.942,0.469,1.512,0.627
		c0.571,0.162,1.124,0.248,1.663,0.248c0.604,0,1.047-0.072,1.328-0.219c0.276-0.146,0.42-0.381,0.42-0.705
		c0-0.248-0.064-0.447-0.19-0.598c-0.132-0.154-0.347-0.289-0.656-0.412c-0.308-0.127-0.772-0.271-1.386-0.438
		c-0.66-0.189-1.184-0.387-1.57-0.58c-0.387-0.195-0.678-0.447-0.873-0.746c-0.195-0.303-0.295-0.693-0.295-1.176
		c0-0.773,0.307-1.357,0.916-1.76c0.61-0.395,1.431-0.596,2.465-0.596c0.537,0,1.063,0.047,1.578,0.15
		c0.514,0.102,0.93,0.244,1.242,0.424v1.412c-0.326-0.189-0.725-0.342-1.202-0.453s-0.962-0.168-1.454-0.168
		c-0.593,0-1.046,0.074-1.357,0.221c-0.314,0.145-0.471,0.402-0.471,0.771c0,0.236,0.068,0.424,0.201,0.57
		c0.132,0.145,0.35,0.275,0.647,0.377c0.296,0.105,0.77,0.246,1.417,0.412c1.02,0.279,1.73,0.609,2.125,0.99
		c0.396,0.381,0.598,0.912,0.598,1.584c0,0.689-0.285,1.244-0.859,1.662c-0.569,0.416-1.414,0.623-2.537,0.623
		C188.767,266.99,188.174,266.92,187.547,266.781z"/>
</g>
<g enable-background="new    ">
	<path d="M64.009,286.033c-0.845-0.744-1.269-1.795-1.269-3.15c0-1.322,0.378-2.369,1.134-3.137c0.756-0.773,1.834-1.16,3.234-1.16
		c0.928,0,1.719,0.178,2.369,0.529c0.65,0.355,1.14,0.84,1.47,1.465c0.331,0.623,0.496,1.328,0.496,2.123v0.84h-7.09
		c0.056,0.762,0.379,1.33,0.967,1.707c0.588,0.371,1.385,0.563,2.394,0.563c0.515,0,1.035-0.047,1.561-0.143
		c0.525-0.094,0.991-0.221,1.395-0.377v1.359c-0.359,0.146-0.832,0.266-1.419,0.361c-0.588,0.096-1.167,0.145-1.739,0.145
		C66.023,287.15,64.855,286.777,64.009,286.033z M69.848,282.346c-0.022-0.762-0.272-1.352-0.747-1.773
		c-0.477-0.42-1.152-0.629-2.025-0.629c-0.852,0-1.512,0.219-1.982,0.656c-0.471,0.438-0.716,1.02-0.74,1.748L69.848,282.346
		L69.848,282.346z M67.345,275.037h1.797l-1.394,2.889h-1.545L67.345,275.037z"/>
	<path d="M72.283,278.834h1.797l2.369,5.791l2.37-5.791h1.797l-3.427,8.064H75.71L72.283,278.834z"/>
	<path d="M82.725,286.033c-0.846-0.744-1.269-1.795-1.269-3.15c0-1.322,0.377-2.369,1.134-3.137c0.756-0.773,1.833-1.16,3.233-1.16
		c0.93,0,1.72,0.178,2.37,0.529c0.649,0.355,1.14,0.84,1.47,1.465c0.331,0.623,0.495,1.328,0.495,2.123v0.84h-7.09
		c0.056,0.762,0.378,1.33,0.966,1.707c0.589,0.371,1.385,0.563,2.396,0.563c0.514,0,1.035-0.047,1.561-0.143
		c0.525-0.094,0.991-0.221,1.394-0.377v1.359c-0.358,0.146-0.832,0.266-1.419,0.361c-0.588,0.096-1.167,0.145-1.738,0.145
		C84.738,287.15,83.57,286.777,82.725,286.033z M88.563,282.346c-0.022-0.762-0.272-1.352-0.747-1.773
		c-0.477-0.42-1.151-0.629-2.024-0.629c-0.852,0-1.512,0.219-1.982,0.656s-0.717,1.02-0.741,1.748L88.563,282.346L88.563,282.346z
		 M86.059,275.037h1.797l-1.394,2.889h-1.546L86.059,275.037z"/>
	<path d="M92.006,278.834h1.647v1.158c0.38-0.482,0.849-0.836,1.404-1.064c0.554-0.23,1.133-0.346,1.737-0.346
		c1.076,0,1.877,0.285,2.404,0.857c0.526,0.57,0.79,1.338,0.79,2.301v5.158h-1.697v-4.99c0-1.311-0.627-1.965-1.882-1.965
		c-0.539,0-1.039,0.125-1.503,0.377c-0.465,0.248-0.865,0.637-1.202,1.152v5.426h-1.697V278.834L92.006,278.834z"/>
	<path d="M103.019,286.033c-0.846-0.744-1.269-1.795-1.269-3.15c0-1.322,0.377-2.369,1.133-3.137c0.756-0.773,1.835-1.16,3.235-1.16
		c0.929,0,1.719,0.178,2.368,0.529c0.65,0.355,1.14,0.84,1.471,1.465c0.331,0.623,0.496,1.328,0.496,2.123v0.84h-7.089
		c0.056,0.762,0.378,1.33,0.966,1.707c0.588,0.371,1.386,0.563,2.394,0.563c0.516,0,1.035-0.047,1.563-0.143
		c0.526-0.094,0.991-0.221,1.395-0.377v1.359c-0.36,0.146-0.832,0.266-1.419,0.361c-0.589,0.096-1.168,0.145-1.739,0.145
		C105.031,287.15,103.864,286.777,103.019,286.033z M108.856,282.346c-0.022-0.762-0.272-1.352-0.747-1.773
		c-0.476-0.42-1.151-0.629-2.025-0.629c-0.852,0-1.512,0.219-1.982,0.656c-0.47,0.438-0.716,1.02-0.74,1.748L108.856,282.346
		L108.856,282.346z"/>
	<path d="M112.301,278.834h1.612v1.158c0.382-0.473,0.813-0.826,1.294-1.061c0.482-0.236,0.979-0.354,1.496-0.354
		c0.65,0,1.165,0.105,1.546,0.328c0.38,0.219,0.66,0.551,0.839,1.002c0.358-0.438,0.799-0.77,1.32-0.99
		c0.52-0.223,1.043-0.336,1.57-0.336c0.986,0,1.698,0.25,2.134,0.748c0.438,0.498,0.656,1.234,0.656,2.209v5.355h-1.647v-5.141
		c0-0.662-0.124-1.129-0.369-1.406c-0.248-0.275-0.667-0.412-1.26-0.412c-0.851,0-1.545,0.369-2.084,1.107
		c0.022,0.17,0.034,0.447,0.034,0.828v5.023h-1.646v-5.141c0-0.662-0.112-1.129-0.336-1.406c-0.224-0.275-0.627-0.412-1.21-0.412
		c-0.851,0-1.612,0.482-2.285,1.443v5.512h-1.664L112.301,278.834L112.301,278.834z"/>
	<path d="M127.798,286.033c-0.845-0.744-1.269-1.795-1.269-3.15c0-1.322,0.379-2.369,1.134-3.137c0.756-0.773,1.834-1.16,3.234-1.16
		c0.93,0,1.719,0.178,2.37,0.529c0.649,0.355,1.139,0.84,1.47,1.465c0.332,0.623,0.497,1.328,0.497,2.123v0.84h-7.09
		c0.056,0.762,0.378,1.33,0.966,1.707c0.588,0.371,1.386,0.563,2.394,0.563c0.516,0,1.036-0.047,1.561-0.143
		c0.526-0.094,0.991-0.221,1.395-0.377v1.359c-0.359,0.146-0.832,0.266-1.419,0.361c-0.588,0.096-1.167,0.145-1.738,0.145
		C129.812,287.15,128.644,286.777,127.798,286.033z M133.637,282.346c-0.022-0.762-0.271-1.352-0.747-1.773
		c-0.477-0.42-1.151-0.629-2.025-0.629c-0.852,0-1.512,0.219-1.982,0.656s-0.716,1.02-0.74,1.748L133.637,282.346L133.637,282.346z"
		/>
	<path d="M137.081,278.834h1.647v1.158c0.38-0.482,0.848-0.836,1.403-1.064c0.553-0.23,1.133-0.346,1.738-0.346
		c1.074,0,1.876,0.285,2.402,0.857c0.526,0.57,0.789,1.338,0.789,2.301v5.158h-1.697v-4.99c0-1.311-0.627-1.965-1.881-1.965
		c-0.538,0-1.038,0.125-1.503,0.377c-0.466,0.248-0.866,0.637-1.202,1.152v5.426h-1.697L137.081,278.834L137.081,278.834z"/>
	<path d="M148.378,286.443c-0.443-0.473-0.664-1.135-0.664-1.998v-4.301h-1.227v-1.311h1.227v-2.42h1.714v2.42h1.981v1.311h-1.981
		v4.184c0,0.537,0.103,0.918,0.31,1.143s0.585,0.336,1.133,0.336c0.326,0,0.651-0.074,0.977-0.219v1.344
		c-0.424,0.145-0.95,0.219-1.58,0.219C149.45,287.15,148.819,286.916,148.378,286.443z"/>
	<path d="M154.3,286.939c-0.628-0.139-1.121-0.332-1.477-0.566v-1.443c0.437,0.256,0.94,0.467,1.51,0.627
		c0.57,0.162,1.125,0.248,1.663,0.248c0.604,0,1.048-0.074,1.327-0.219c0.279-0.146,0.421-0.381,0.421-0.707
		c0-0.248-0.065-0.445-0.19-0.598c-0.131-0.152-0.348-0.289-0.656-0.412c-0.307-0.123-0.773-0.27-1.385-0.438
		c-0.66-0.189-1.185-0.383-1.571-0.578c-0.388-0.193-0.679-0.447-0.874-0.744c-0.195-0.307-0.293-0.695-0.293-1.18
		c0-0.773,0.306-1.357,0.916-1.756c0.609-0.395,1.43-0.598,2.463-0.598c0.539,0,1.064,0.051,1.579,0.152
		c0.513,0.1,0.93,0.242,1.241,0.42v1.414c-0.325-0.189-0.723-0.34-1.201-0.453c-0.478-0.109-0.961-0.166-1.453-0.166
		c-0.594,0-1.046,0.072-1.357,0.219c-0.314,0.146-0.471,0.404-0.471,0.773c0,0.236,0.066,0.422,0.201,0.568
		c0.131,0.146,0.35,0.275,0.646,0.379c0.297,0.105,0.771,0.246,1.418,0.414c1.018,0.277,1.729,0.607,2.124,0.99
		c0.396,0.381,0.598,0.904,0.598,1.576c0,0.695-0.286,1.25-0.859,1.664c-0.569,0.418-1.415,0.625-2.536,0.625
		C155.521,287.15,154.927,287.08,154.3,286.939z"/>
	<path d="M169.259,286.621c-0.644-0.354-1.148-0.855-1.511-1.5c-0.364-0.643-0.544-1.387-0.544-2.238
		c0-0.84,0.182-1.588,0.544-2.234c0.364-0.648,0.867-1.156,1.511-1.52c0.645-0.365,1.371-0.547,2.176-0.547
		c1.455,0,2.559,0.443,3.311,1.326v-5.426h1.695v12.416h-1.646v-1.176c-0.449,0.492-0.938,0.854-1.471,1.084
		c-0.533,0.229-1.162,0.344-1.891,0.344C170.63,287.15,169.903,286.975,169.259,286.621z M173.646,285.26
		c0.519-0.363,0.887-0.854,1.098-1.471v-1.814c-0.189-0.619-0.551-1.109-1.084-1.479c-0.532-0.369-1.145-0.553-1.84-0.553
		c-0.549,0-1.044,0.123-1.486,0.369c-0.441,0.246-0.789,0.594-1.041,1.037c-0.25,0.451-0.379,0.959-0.379,1.531
		c0,0.57,0.129,1.082,0.379,1.531c0.252,0.447,0.6,0.791,1.041,1.031c0.442,0.246,0.938,0.365,1.486,0.365
		C172.517,285.807,173.124,285.623,173.646,285.26z"/>
	<path d="M178.92,286.402c-0.588-0.498-0.882-1.172-0.882-2.023c0-0.896,0.281-1.59,0.848-2.076c0.568-0.486,1.369-0.73,2.41-0.73
		c1.109,0,2.051,0.221,2.822,0.672v-0.424c0-0.637-0.193-1.111-0.578-1.416c-0.389-0.307-0.996-0.461-1.824-0.461
		c-0.492,0-0.973,0.045-1.438,0.143c-0.465,0.096-0.881,0.227-1.25,0.395v-1.379c0.334-0.158,0.771-0.281,1.309-0.377
		c0.54-0.096,1.061-0.143,1.563-0.143c1.33,0,2.32,0.293,2.963,0.881c0.645,0.59,0.967,1.404,0.967,2.445v4.99h-1.594v-0.908
		c-0.348,0.381-0.76,0.67-1.237,0.865c-0.478,0.191-1.057,0.295-1.737,0.295C180.289,287.15,179.509,286.9,178.92,286.402z
		 M183.146,285.537c0.437-0.213,0.762-0.51,0.977-0.889v-1.094c-0.729-0.469-1.541-0.705-2.436-0.705
		c-0.65,0-1.134,0.127-1.453,0.375c-0.318,0.252-0.479,0.635-0.479,1.152c0,0.982,0.644,1.473,1.933,1.473
		C182.222,285.855,182.708,285.75,183.146,285.537z"/>
	<path d="M187.933,278.834h1.648v1.158c0.381-0.482,0.848-0.836,1.402-1.064c0.555-0.23,1.134-0.346,1.738-0.346
		c1.073,0,1.877,0.285,2.403,0.857c0.526,0.57,0.789,1.338,0.789,2.301v5.158h-1.696v-4.99c0-1.311-0.628-1.965-1.883-1.965
		c-0.537,0-1.035,0.125-1.502,0.377c-0.465,0.248-0.863,0.637-1.201,1.152v5.426h-1.699V278.834L187.933,278.834z"/>
	<path d="M199.206,286.939c-0.627-0.139-1.121-0.332-1.477-0.566v-1.443c0.436,0.256,0.941,0.467,1.511,0.627
		c0.571,0.162,1.126,0.248,1.663,0.248c0.605,0,1.047-0.074,1.327-0.219c0.277-0.146,0.419-0.381,0.419-0.707
		c0-0.248-0.063-0.445-0.191-0.598c-0.129-0.152-0.347-0.289-0.656-0.412c-0.307-0.123-0.771-0.27-1.385-0.438
		c-0.657-0.189-1.181-0.383-1.568-0.578c-0.389-0.193-0.68-0.447-0.873-0.744c-0.195-0.307-0.297-0.695-0.297-1.18
		c0-0.773,0.307-1.357,0.919-1.756c0.61-0.395,1.431-0.598,2.462-0.598c0.539,0,1.064,0.051,1.579,0.152
		c0.513,0.1,0.93,0.242,1.241,0.42v1.414c-0.323-0.189-0.725-0.34-1.199-0.453c-0.479-0.109-0.961-0.166-1.453-0.166
		c-0.594,0-1.048,0.072-1.361,0.219c-0.312,0.146-0.471,0.404-0.471,0.773c0,0.236,0.07,0.422,0.201,0.568
		c0.135,0.146,0.351,0.275,0.648,0.379c0.299,0.105,0.771,0.246,1.418,0.414c1.02,0.277,1.729,0.607,2.126,0.99
		c0.396,0.381,0.597,0.904,0.597,1.576c0,0.695-0.283,1.25-0.857,1.664c-0.57,0.418-1.416,0.625-2.537,0.625
		C200.427,287.15,199.833,287.08,199.206,286.939z"/>
	<path d="M213.662,286.443c-0.444-0.473-0.663-1.135-0.663-1.998v-4.301h-1.227v-1.311h1.227v-2.42h1.713v2.42h1.982v1.311h-1.982
		v4.184c0,0.537,0.102,0.918,0.309,1.143s0.586,0.336,1.133,0.336c0.326,0,0.651-0.074,0.978-0.219v1.344
		c-0.425,0.145-0.951,0.219-1.581,0.219C214.733,287.15,214.104,286.916,213.662,286.443z"/>
	<path d="M219.021,286.402c-0.588-0.498-0.883-1.172-0.883-2.023c0-0.896,0.282-1.59,0.85-2.076c0.565-0.486,1.369-0.73,2.41-0.73
		c1.108,0,2.049,0.221,2.819,0.672v-0.424c0-0.637-0.19-1.111-0.577-1.416c-0.389-0.307-0.994-0.461-1.822-0.461
		c-0.492,0-0.973,0.045-1.438,0.143c-0.465,0.096-0.883,0.227-1.251,0.395v-1.379c0.335-0.158,0.772-0.281,1.31-0.377
		c0.539-0.096,1.06-0.143,1.561-0.143c1.331,0,2.318,0.293,2.963,0.881c0.645,0.59,0.967,1.404,0.967,2.445v4.99h-1.596v-0.908
		c-0.345,0.381-0.758,0.67-1.235,0.865c-0.476,0.191-1.056,0.295-1.735,0.295C220.39,287.15,219.608,286.9,219.021,286.402z
		 M223.245,285.537c0.438-0.213,0.763-0.51,0.977-0.889v-1.094c-0.729-0.469-1.539-0.705-2.436-0.705
		c-0.648,0-1.133,0.127-1.451,0.375c-0.319,0.252-0.48,0.635-0.48,1.152c0,0.982,0.645,1.473,1.932,1.473
		C222.321,285.855,222.81,285.75,223.245,285.537z"/>
</g>
<g enable-background="new    ">
	<path d="M63.077,298.994h1.648v1.445c0.335-0.494,0.809-0.857,1.419-1.092c0.609-0.236,1.319-0.354,2.125-0.354v1.326
		c-0.861,0-1.601,0.141-2.218,0.424c-0.615,0.277-1.041,0.723-1.276,1.326v4.99h-1.698V298.994z"/>
	<path d="M70.208,306.193c-0.845-0.744-1.269-1.795-1.269-3.15c0-1.324,0.379-2.373,1.135-3.141c0.756-0.773,1.833-1.16,3.233-1.16
		c0.93,0,1.72,0.178,2.369,0.529c0.65,0.354,1.139,0.84,1.47,1.463c0.332,0.625,0.496,1.33,0.496,2.125v0.84h-7.089
		c0.056,0.762,0.378,1.33,0.966,1.707c0.589,0.377,1.385,0.563,2.395,0.563c0.515,0,1.035-0.047,1.561-0.143
		c0.528-0.096,0.991-0.221,1.395-0.379v1.361c-0.36,0.146-0.832,0.266-1.418,0.361c-0.588,0.096-1.167,0.143-1.739,0.143
		C72.22,307.311,71.054,306.938,70.208,306.193z M76.046,302.506c-0.022-0.762-0.272-1.352-0.748-1.771s-1.151-0.627-2.024-0.627
		c-0.852,0-1.512,0.217-1.982,0.654c-0.472,0.438-0.718,1.02-0.741,1.746L76.046,302.506L76.046,302.506z M73.542,295.197h1.797
		l-1.394,2.891h-1.545L73.542,295.197z"/>
	<path d="M82.103,310.789c-0.521-0.09-0.96-0.219-1.32-0.387v-1.395c0.841,0.381,1.815,0.57,2.924,0.57
		c1.041,0,1.8-0.227,2.276-0.684c0.478-0.453,0.715-1.141,0.715-2.057v-0.861c-0.741,0.891-1.826,1.328-3.259,1.328
		c-0.818,0-1.552-0.18-2.202-0.539c-0.65-0.359-1.16-0.861-1.53-1.51c-0.369-0.652-0.554-1.393-0.554-2.232
		c0-0.852,0.183-1.6,0.546-2.244c0.363-0.643,0.868-1.145,1.512-1.502c0.644-0.361,1.368-0.539,2.175-0.539
		c0.75,0,1.385,0.109,1.907,0.328c0.52,0.219,1.005,0.578,1.453,1.086v-1.158h1.647v7.656c0,1.381-0.384,2.436-1.151,3.168
		c-0.768,0.732-1.945,1.1-3.537,1.1C83.158,310.922,82.624,310.879,82.103,310.789z M85.613,305.412
		c0.532-0.369,0.893-0.861,1.084-1.479v-1.814c-0.214-0.627-0.58-1.119-1.101-1.479c-0.521-0.357-1.128-0.537-1.823-0.537
		c-0.549,0-1.044,0.121-1.487,0.361c-0.443,0.24-0.79,0.586-1.041,1.035c-0.251,0.449-0.377,0.959-0.377,1.529
		c0,0.582,0.126,1.096,0.377,1.537c0.251,0.443,0.598,0.787,1.041,1.033c0.443,0.248,0.938,0.371,1.487,0.371
		C84.469,305.967,85.081,305.781,85.613,305.412z"/>
	<path d="M90.863,297.131c-0.189-0.191-0.286-0.426-0.286-0.707c0-0.279,0.096-0.514,0.286-0.705
		c0.19-0.189,0.425-0.285,0.706-0.285c0.291,0,0.536,0.096,0.731,0.285c0.195,0.189,0.294,0.422,0.294,0.705
		c0,0.277-0.099,0.512-0.294,0.707c-0.196,0.189-0.44,0.285-0.731,0.285C91.29,297.416,91.055,297.32,90.863,297.131z
		 M90.711,298.994h1.731v8.064h-1.731V298.994z"/>
	<path d="M96.634,306.799c-0.688-0.338-1.226-0.832-1.613-1.475c-0.386-0.645-0.58-1.402-0.58-2.277c0-0.861,0.19-1.619,0.57-2.268
		c0.382-0.646,0.919-1.15,1.614-1.502c0.694-0.354,1.495-0.531,2.403-0.531c0.908,0,1.707,0.178,2.402,0.531
		c0.695,0.355,1.236,0.857,1.622,1.502c0.387,0.65,0.58,1.406,0.58,2.268c0,0.875-0.192,1.633-0.58,2.277s-0.927,1.137-1.622,1.475
		c-0.693,0.342-1.494,0.512-2.402,0.512C98.12,307.311,97.324,307.141,96.634,306.799z M101.112,305.16
		c0.516-0.537,0.773-1.238,0.773-2.113c0-0.908-0.257-1.625-0.773-2.15c-0.516-0.527-1.21-0.789-2.083-0.789
		c-0.874,0-1.568,0.262-2.084,0.789c-0.515,0.525-0.773,1.242-0.773,2.15c0,0.873,0.257,1.578,0.773,2.113
		c0.514,0.541,1.21,0.807,2.084,0.807C99.901,305.967,100.596,305.697,101.112,305.16z"/>
	<path d="M105.48,298.994h1.646v1.16c0.38-0.482,0.849-0.838,1.403-1.066c0.555-0.23,1.134-0.346,1.739-0.346
		c1.074,0,1.876,0.287,2.402,0.861c0.526,0.568,0.79,1.334,0.79,2.301v5.154h-1.696v-4.99c0-1.311-0.627-1.965-1.882-1.965
		c-0.538,0-1.039,0.127-1.503,0.377c-0.465,0.248-0.865,0.637-1.201,1.152v5.426h-1.697L105.48,298.994L105.48,298.994z"/>
	<path d="M116.753,307.1c-0.627-0.139-1.12-0.326-1.478-0.563v-1.443c0.437,0.258,0.941,0.467,1.512,0.629
		c0.57,0.16,1.125,0.244,1.663,0.244c0.605,0,1.047-0.072,1.327-0.219c0.279-0.146,0.42-0.381,0.42-0.705
		c0-0.246-0.064-0.445-0.192-0.598c-0.131-0.15-0.347-0.287-0.656-0.412c-0.308-0.127-0.771-0.271-1.386-0.436
		c-0.661-0.191-1.184-0.385-1.571-0.58s-0.678-0.445-0.874-0.748c-0.196-0.303-0.294-0.693-0.294-1.176
		c0-0.773,0.305-1.357,0.916-1.756c0.611-0.396,1.43-0.598,2.463-0.598c0.538,0,1.064,0.051,1.579,0.15
		c0.513,0.104,0.93,0.246,1.242,0.424v1.412c-0.325-0.189-0.725-0.338-1.201-0.453c-0.477-0.111-0.961-0.166-1.453-0.166
		c-0.593,0-1.047,0.072-1.36,0.219c-0.313,0.146-0.47,0.402-0.47,0.771c0,0.236,0.067,0.426,0.201,0.57
		c0.134,0.148,0.35,0.273,0.648,0.375c0.295,0.107,0.77,0.248,1.418,0.416c1.02,0.277,1.729,0.611,2.125,0.992
		c0.397,0.381,0.598,0.906,0.598,1.578c0,0.695-0.286,1.25-0.858,1.664c-0.571,0.414-1.416,0.621-2.537,0.621
		C117.973,307.311,117.378,307.24,116.753,307.1z"/>
	<path d="M123.666,306.832c-0.151-0.156-0.226-0.338-0.226-0.566c0-0.221,0.075-0.414,0.226-0.568
		c0.151-0.162,0.338-0.236,0.563-0.236c0.224,0,0.415,0.074,0.571,0.236c0.157,0.156,0.235,0.346,0.235,0.568
		c0,0.225-0.078,0.41-0.235,0.566c-0.158,0.15-0.348,0.223-0.571,0.223C124.004,307.059,123.816,306.982,123.666,306.832z"/>
</g>
</svg>
